<?xml version="1.0" encoding="utf-8"?>
<!-- Generator: Adobe Illustrator 16.0.0, SVG Export Plug-In . SVG Version: 6.00 Build 0)  -->
<!DOCTYPE svg PUBLIC "-//W3C//DTD SVG 1.1//EN" "http://www.w3.org/Graphics/SVG/1.1/DTD/svg11.dtd">
<svg version="1.1" id="Layer_1" xmlns="http://www.w3.org/2000/svg" xmlns:xlink="http://www.w3.org/1999/xlink" x="0px" y="0px"
	 width="1414.601px" height="167px" viewBox="0 0 1414.601 167" enable-background="new 0 0 1414.601 167" xml:space="preserve">
<g>
	<path d="M340.12,77.197l9.258,2.936c-1.419,5.161-3.779,8.995-7.08,11.5c-3.302,2.505-7.489,3.758-12.564,3.758
		c-6.279,0-11.44-2.146-15.483-6.436s-6.064-10.155-6.064-17.596c0-7.871,2.032-13.983,6.097-18.338
		c4.064-4.354,9.408-6.532,16.031-6.532c5.785,0,10.484,1.709,14.097,5.129c2.15,2.021,3.763,4.925,4.839,8.709l-9.451,2.258
		c-0.56-2.452-1.727-4.387-3.5-5.806c-1.774-1.419-3.931-2.129-6.468-2.129c-3.506,0-6.35,1.258-8.532,3.774
		s-3.273,6.591-3.273,12.226c0,5.979,1.074,10.236,3.226,12.773c2.149,2.538,4.945,3.807,8.387,3.807
		c2.537,0,4.72-0.807,6.548-2.419S339.324,80.66,340.12,77.197z"/>
	<path d="M351.564,60.327h9.646l8.193,24.322l7.999-24.322h9.388l-12.097,32.966l-2.161,5.968c-0.796,2-1.554,3.527-2.274,4.581
		c-0.721,1.053-1.548,1.908-2.483,2.564c-0.936,0.656-2.087,1.166-3.452,1.532c-1.365,0.365-2.908,0.548-4.629,0.548
		c-1.741,0-3.451-0.183-5.129-0.548l-0.806-7.097c1.419,0.279,2.698,0.419,3.838,0.419c2.107,0,3.666-0.619,4.678-1.855
		c1.011-1.237,1.784-2.812,2.322-4.726L351.564,60.327z"/>
	<path d="M390.227,94.583V47.294h9.064v17.032c2.795-3.182,6.107-4.774,9.936-4.774c4.172,0,7.623,1.511,10.354,4.532
		c2.73,3.021,4.097,7.36,4.097,13.016c0,5.85-1.393,10.354-4.178,13.516s-6.167,4.742-10.145,4.742c-1.957,0-3.888-0.49-5.79-1.468
		c-1.903-0.979-3.544-2.424-4.92-4.339v5.032H390.227z M399.227,76.713c0,3.548,0.559,6.172,1.678,7.871
		c1.569,2.409,3.655,3.613,6.258,3.613c2,0,3.704-0.855,5.112-2.564c1.408-1.71,2.113-4.403,2.113-8.081
		c0-3.914-0.71-6.736-2.129-8.467c-1.42-1.731-3.237-2.597-5.452-2.597c-2.172,0-3.979,0.844-5.419,2.532
		C399.946,70.708,399.227,73.272,399.227,76.713z"/>
	<path d="M450.806,83.681l9.032,1.516c-1.162,3.312-2.995,5.833-5.5,7.564c-2.506,1.731-5.641,2.597-9.403,2.597
		c-5.957,0-10.365-1.946-13.226-5.839c-2.258-3.118-3.387-7.053-3.387-11.806c0-5.677,1.483-10.123,4.451-13.338
		c2.968-3.214,6.721-4.822,11.258-4.822c5.097,0,9.118,1.683,12.064,5.048c2.946,3.366,4.354,8.521,4.226,15.467h-22.709
		c0.064,2.688,0.795,4.779,2.193,6.274c1.397,1.495,3.14,2.242,5.226,2.242c1.42,0,2.613-0.387,3.581-1.161
		C449.58,86.648,450.311,85.401,450.806,83.681z M451.321,74.52c-0.064-2.624-0.741-4.618-2.032-5.983
		c-1.29-1.366-2.86-2.048-4.709-2.048c-1.979,0-3.613,0.721-4.903,2.161c-1.29,1.441-1.925,3.398-1.903,5.871H451.321z"/>
	<path d="M474.073,94.583h-9.064V60.327h8.419v4.871c1.44-2.301,2.736-3.817,3.888-4.548c1.149-0.73,2.456-1.097,3.919-1.097
		c2.064,0,4.054,0.57,5.968,1.709l-2.807,7.903c-1.527-0.989-2.946-1.484-4.258-1.484c-1.27,0-2.345,0.35-3.226,1.048
		c-0.882,0.699-1.576,1.962-2.081,3.79c-0.505,1.828-0.758,5.656-0.758,11.483V94.583z"/>
	<path d="M521.427,77.197l9.258,2.936c-1.419,5.161-3.779,8.995-7.08,11.5c-3.302,2.505-7.489,3.758-12.564,3.758
		c-6.279,0-11.44-2.146-15.483-6.436s-6.064-10.155-6.064-17.596c0-7.871,2.032-13.983,6.097-18.338
		c4.064-4.354,9.408-6.532,16.031-6.532c5.785,0,10.484,1.709,14.097,5.129c2.15,2.021,3.763,4.925,4.839,8.709l-9.451,2.258
		c-0.56-2.452-1.727-4.387-3.5-5.806c-1.774-1.419-3.931-2.129-6.468-2.129c-3.506,0-6.35,1.258-8.532,3.774
		s-3.273,6.591-3.273,12.226c0,5.979,1.074,10.236,3.226,12.773c2.149,2.538,4.945,3.807,8.387,3.807
		c2.537,0,4.72-0.807,6.548-2.419S520.631,80.66,521.427,77.197z"/>
	<path d="M533.414,76.971c0-3.011,0.741-5.924,2.226-8.742c1.483-2.817,3.585-4.968,6.306-6.452
		c2.721-1.483,5.758-2.226,9.113-2.226c5.182,0,9.43,1.683,12.741,5.048c3.312,3.366,4.968,7.618,4.968,12.758
		c0,5.183-1.673,9.479-5.017,12.887c-3.344,3.409-7.554,5.113-12.628,5.113c-3.141,0-6.135-0.71-8.983-2.129
		c-2.851-1.419-5.017-3.5-6.5-6.242C534.155,84.245,533.414,80.906,533.414,76.971z M542.704,77.455c0,3.398,0.806,6,2.419,7.806
		c1.612,1.806,3.602,2.709,5.968,2.709c2.365,0,4.349-0.903,5.951-2.709c1.602-1.807,2.403-4.43,2.403-7.871
		c0-3.355-0.802-5.936-2.403-7.742c-1.603-1.807-3.586-2.71-5.951-2.71c-2.366,0-4.355,0.903-5.968,2.71
		C543.51,71.455,542.704,74.058,542.704,77.455z"/>
	<path d="M581.238,94.583h-9.064V60.327h8.419v4.871c1.44-2.301,2.736-3.817,3.888-4.548c1.149-0.73,2.456-1.097,3.919-1.097
		c2.064,0,4.054,0.57,5.968,1.709l-2.807,7.903c-1.527-0.989-2.946-1.484-4.258-1.484c-1.27,0-2.345,0.35-3.226,1.048
		c-0.882,0.699-1.576,1.962-2.081,3.79c-0.505,1.828-0.758,5.656-0.758,11.483V94.583z"/>
	<path d="M597.351,60.327h8.452v5.032c1.097-1.72,2.58-3.118,4.451-4.193c1.871-1.075,3.945-1.613,6.226-1.613
		c3.979,0,7.354,1.56,10.129,4.677c2.773,3.119,4.161,7.462,4.161,13.032c0,5.721-1.398,10.167-4.193,13.338
		c-2.796,3.172-6.183,4.758-10.161,4.758c-1.893,0-3.608-0.377-5.146-1.129s-3.156-2.042-4.854-3.871v17.257h-9.064V60.327z
		 M606.318,76.875c0,3.85,0.763,6.693,2.29,8.532c1.527,1.839,3.388,2.758,5.581,2.758c2.107,0,3.859-0.844,5.258-2.532
		c1.397-1.688,2.097-4.457,2.097-8.306c0-3.591-0.721-6.258-2.161-8c-1.441-1.742-3.226-2.613-5.354-2.613
		c-2.216,0-4.055,0.855-5.517,2.564C607.049,70.987,606.318,73.52,606.318,76.875z"/>
	<path d="M633.118,84.81l9.096-1.387c0.388,1.764,1.172,3.103,2.355,4.016c1.182,0.915,2.838,1.371,4.967,1.371
		c2.344,0,4.107-0.43,5.291-1.291c0.795-0.602,1.193-1.408,1.193-2.419c0-0.688-0.216-1.258-0.646-1.71
		c-0.451-0.43-1.463-0.828-3.032-1.193c-7.312-1.613-11.946-3.085-13.902-4.419c-2.71-1.849-4.064-4.419-4.064-7.709
		c0-2.967,1.172-5.462,3.516-7.483c2.344-2.021,5.979-3.032,10.903-3.032c4.688,0,8.171,0.764,10.451,2.291
		c2.279,1.527,3.849,3.785,4.709,6.774l-8.548,1.581c-0.366-1.333-1.06-2.355-2.08-3.064c-1.022-0.71-2.479-1.064-4.371-1.064
		c-2.387,0-4.097,0.333-5.129,1c-0.688,0.473-1.032,1.086-1.032,1.838c0,0.645,0.301,1.194,0.903,1.645
		c0.816,0.603,3.64,1.452,8.467,2.548c4.828,1.097,8.199,2.441,10.113,4.032c1.892,1.613,2.839,3.86,2.839,6.742
		c0,3.14-1.312,5.839-3.936,8.097c-2.624,2.258-6.506,3.387-11.646,3.387c-4.666,0-8.359-0.946-11.08-2.839
		C635.735,90.627,633.956,88.057,633.118,84.81z"/>
	<path d="M671.49,69.391v-9.064h9.064v9.064H671.49z M671.49,94.583v-9.064h9.064v9.064H671.49z"/>
	<path d="M707.747,79.197l9.29-0.903c0.56,3.119,1.693,5.409,3.403,6.871s4.017,2.193,6.919,2.193c3.075,0,5.393-0.65,6.952-1.952
		c1.559-1.301,2.338-2.822,2.338-4.564c0-1.118-0.328-2.069-0.983-2.854c-0.656-0.785-1.802-1.468-3.436-2.048
		c-1.118-0.387-3.667-1.075-7.645-2.064c-5.119-1.269-8.71-2.828-10.774-4.677c-2.903-2.602-4.354-5.774-4.354-9.516
		c0-2.408,0.683-4.661,2.048-6.758c1.366-2.097,3.334-3.693,5.903-4.79s5.672-1.645,9.307-1.645c5.935,0,10.402,1.301,13.402,3.903
		c3,2.603,4.575,6.076,4.726,10.419l-9.548,0.419c-0.409-2.43-1.285-4.177-2.629-5.242c-1.345-1.064-3.36-1.597-6.048-1.597
		c-2.774,0-4.947,0.57-6.517,1.709c-1.011,0.731-1.516,1.71-1.516,2.936c0,1.119,0.473,2.076,1.419,2.871
		c1.204,1.011,4.129,2.064,8.774,3.161c4.645,1.097,8.08,2.231,10.306,3.403c2.226,1.172,3.968,2.774,5.226,4.807
		s1.888,4.543,1.888,7.532c0,2.71-0.754,5.248-2.259,7.613c-1.505,2.366-3.634,4.124-6.387,5.274
		c-2.753,1.15-6.183,1.726-10.29,1.726c-5.979,0-10.569-1.382-13.773-4.145C710.284,88.514,708.371,84.487,707.747,79.197z"/>
	<path d="M782.715,70.455l-8.936,1.613c-0.302-1.785-0.984-3.129-2.049-4.032c-1.064-0.903-2.446-1.355-4.145-1.355
		c-2.258,0-4.06,0.78-5.403,2.338c-1.344,1.56-2.016,4.167-2.016,7.823c0,4.064,0.683,6.935,2.048,8.612
		c1.365,1.678,3.198,2.516,5.5,2.516c1.72,0,3.129-0.489,4.226-1.468c1.097-0.978,1.871-2.661,2.322-5.048l8.903,1.516
		c-0.925,4.086-2.699,7.172-5.322,9.258c-2.624,2.086-6.14,3.129-10.548,3.129c-5.012,0-9.006-1.581-11.984-4.742
		s-4.467-7.537-4.467-13.128c0-5.656,1.494-10.059,4.483-13.209c2.989-3.15,7.032-4.726,12.129-4.726
		c4.172,0,7.488,0.898,9.951,2.693C779.87,64.042,781.639,66.778,782.715,70.455z"/>
	<path d="M797.296,47.294v17.387c2.925-3.419,6.42-5.129,10.484-5.129c2.085,0,3.967,0.387,5.645,1.161
		c1.678,0.774,2.94,1.764,3.79,2.968c0.85,1.205,1.43,2.538,1.742,4c0.312,1.462,0.468,3.731,0.468,6.806v20.096h-9.064V76.487
		c0-3.591-0.173-5.871-0.516-6.838c-0.345-0.968-0.952-1.736-1.823-2.307c-0.871-0.569-1.963-0.854-3.273-0.854
		c-1.506,0-2.851,0.366-4.032,1.097c-1.184,0.731-2.049,1.833-2.597,3.306c-0.549,1.473-0.823,3.651-0.823,6.532v17.161h-9.063
		V47.294H797.296z"/>
	<path d="M825.2,76.971c0-3.011,0.741-5.924,2.226-8.742c1.483-2.817,3.585-4.968,6.306-6.452c2.721-1.483,5.758-2.226,9.113-2.226
		c5.182,0,9.43,1.683,12.741,5.048c3.312,3.366,4.968,7.618,4.968,12.758c0,5.183-1.673,9.479-5.017,12.887
		c-3.344,3.409-7.554,5.113-12.628,5.113c-3.141,0-6.135-0.71-8.983-2.129c-2.851-1.419-5.017-3.5-6.5-6.242
		C825.941,84.245,825.2,80.906,825.2,76.971z M834.49,77.455c0,3.398,0.806,6,2.419,7.806c1.612,1.806,3.602,2.709,5.968,2.709
		c2.365,0,4.349-0.903,5.951-2.709c1.602-1.807,2.403-4.43,2.403-7.871c0-3.355-0.802-5.936-2.403-7.742
		c-1.603-1.807-3.586-2.71-5.951-2.71c-2.366,0-4.355,0.903-5.968,2.71C835.296,71.455,834.49,74.058,834.49,77.455z"/>
	<path d="M866.329,94.583V47.294h9.063v47.289H866.329z"/>
	<path d="M890.136,70.778l-8.226-1.484c0.925-3.312,2.517-5.763,4.774-7.354c2.258-1.591,5.612-2.387,10.064-2.387
		c4.042,0,7.053,0.479,9.031,1.436c1.979,0.957,3.371,2.172,4.178,3.645c0.807,1.473,1.21,4.177,1.21,8.113l-0.098,10.58
		c0,3.011,0.146,5.231,0.436,6.661c0.291,1.431,0.834,2.963,1.629,4.597h-8.967c-0.237-0.602-0.527-1.495-0.871-2.677
		c-0.15-0.538-0.258-0.892-0.322-1.064c-1.549,1.505-3.205,2.634-4.968,3.387c-1.764,0.752-3.646,1.129-5.646,1.129
		c-3.526,0-6.306-0.957-8.338-2.871c-2.032-1.914-3.049-4.333-3.049-7.258c0-1.936,0.463-3.661,1.388-5.177
		c0.924-1.516,2.22-2.677,3.887-3.484c1.666-0.806,4.069-1.511,7.209-2.113c4.236-0.795,7.172-1.537,8.807-2.226v-0.903
		c0-1.742-0.431-2.984-1.29-3.726c-0.86-0.742-2.484-1.113-4.871-1.113c-1.613,0-2.871,0.317-3.774,0.951
		C891.426,68.074,890.695,69.187,890.136,70.778z M902.265,78.132c-1.161,0.387-3,0.85-5.516,1.387
		c-2.517,0.538-4.161,1.064-4.936,1.581c-1.184,0.838-1.774,1.903-1.774,3.193c0,1.269,0.473,2.366,1.419,3.29
		c0.946,0.925,2.15,1.387,3.613,1.387c1.634,0,3.193-0.537,4.677-1.613c1.098-0.817,1.817-1.817,2.162-3
		c0.236-0.774,0.354-2.247,0.354-4.419V78.132z"/>
	<path d="M927.458,94.583h-9.064V60.327h8.419v4.871c1.44-2.301,2.736-3.817,3.888-4.548c1.149-0.73,2.456-1.097,3.919-1.097
		c2.064,0,4.054,0.57,5.968,1.709l-2.807,7.903c-1.527-0.989-2.946-1.484-4.258-1.484c-1.27,0-2.345,0.35-3.226,1.048
		c-0.882,0.699-1.576,1.962-2.081,3.79c-0.505,1.828-0.758,5.656-0.758,11.483V94.583z"/>
	<path d="M939.976,84.81l9.096-1.387c0.388,1.764,1.172,3.103,2.355,4.016c1.182,0.915,2.838,1.371,4.967,1.371
		c2.344,0,4.107-0.43,5.291-1.291c0.795-0.602,1.193-1.408,1.193-2.419c0-0.688-0.216-1.258-0.646-1.71
		c-0.451-0.43-1.463-0.828-3.032-1.193c-7.312-1.613-11.946-3.085-13.902-4.419c-2.71-1.849-4.064-4.419-4.064-7.709
		c0-2.967,1.172-5.462,3.516-7.483c2.344-2.021,5.979-3.032,10.903-3.032c4.688,0,8.171,0.764,10.451,2.291
		c2.279,1.527,3.849,3.785,4.709,6.774l-8.548,1.581c-0.366-1.333-1.06-2.355-2.08-3.064c-1.022-0.71-2.479-1.064-4.371-1.064
		c-2.387,0-4.097,0.333-5.129,1c-0.688,0.473-1.032,1.086-1.032,1.838c0,0.645,0.301,1.194,0.903,1.645
		c0.816,0.603,3.64,1.452,8.467,2.548c4.828,1.097,8.199,2.441,10.113,4.032c1.892,1.613,2.839,3.86,2.839,6.742
		c0,3.14-1.312,5.839-3.936,8.097c-2.624,2.258-6.506,3.387-11.646,3.387c-4.666,0-8.359-0.946-11.08-2.839
		C942.593,90.627,940.813,88.057,939.976,84.81z"/>
	<path d="M987.62,47.294v17.387c2.925-3.419,6.42-5.129,10.484-5.129c2.085,0,3.967,0.387,5.645,1.161
		c1.678,0.774,2.94,1.764,3.79,2.968c0.85,1.205,1.43,2.538,1.742,4c0.312,1.462,0.468,3.731,0.468,6.806v20.096h-9.064V76.487
		c0-3.591-0.173-5.871-0.516-6.838c-0.345-0.968-0.952-1.736-1.823-2.307c-0.871-0.569-1.963-0.854-3.273-0.854
		c-1.506,0-2.851,0.366-4.032,1.097c-1.184,0.731-2.049,1.833-2.597,3.306c-0.549,1.473-0.823,3.651-0.823,6.532v17.161h-9.063
		V47.294H987.62z"/>
	<path d="M1017.621,55.682v-8.387h9.063v8.387H1017.621z M1017.621,94.583V60.327h9.063v34.257H1017.621z"/>
	<path d="M1034.396,60.327h8.452v5.032c1.097-1.72,2.58-3.118,4.451-4.193c1.871-1.075,3.945-1.613,6.226-1.613
		c3.979,0,7.354,1.56,10.129,4.677c2.773,3.119,4.161,7.462,4.161,13.032c0,5.721-1.398,10.167-4.193,13.338
		c-2.796,3.172-6.183,4.758-10.161,4.758c-1.893,0-3.608-0.377-5.146-1.129s-3.156-2.042-4.854-3.871v17.257h-9.064V60.327z
		 M1043.363,76.875c0,3.85,0.763,6.693,2.29,8.532c1.527,1.839,3.388,2.758,5.581,2.758c2.107,0,3.859-0.844,5.258-2.532
		c1.397-1.688,2.097-4.457,2.097-8.306c0-3.591-0.721-6.258-2.161-8c-1.441-1.742-3.226-2.613-5.354-2.613
		c-2.216,0-4.055,0.855-5.517,2.564C1044.094,70.987,1043.363,73.52,1043.363,76.875z"/>
	<path d="M1086.752,60.327h5.032v-2.581c0-2.882,0.306-5.032,0.919-6.452s1.742-2.575,3.387-3.468
		c1.646-0.892,3.726-1.338,6.242-1.338c2.58,0,5.107,0.387,7.58,1.161l-1.226,6.322c-1.441-0.344-2.828-0.516-4.161-0.516
		c-1.312,0-2.253,0.307-2.822,0.919c-0.57,0.613-0.855,1.791-0.855,3.532v2.419h6.774v7.128h-6.774v27.128h-9.063V67.455h-5.032
		V60.327z"/>
	<path d="M1109.301,76.971c0-3.011,0.741-5.924,2.226-8.742c1.483-2.817,3.585-4.968,6.306-6.452
		c2.721-1.483,5.758-2.226,9.113-2.226c5.182,0,9.43,1.683,12.741,5.048c3.312,3.366,4.968,7.618,4.968,12.758
		c0,5.183-1.673,9.479-5.017,12.887c-3.344,3.409-7.554,5.113-12.628,5.113c-3.141,0-6.135-0.71-8.983-2.129
		c-2.851-1.419-5.017-3.5-6.5-6.242C1110.042,84.245,1109.301,80.906,1109.301,76.971z M1118.591,77.455
		c0,3.398,0.806,6,2.419,7.806c1.612,1.806,3.602,2.709,5.968,2.709c2.365,0,4.349-0.903,5.951-2.709
		c1.602-1.807,2.403-4.43,2.403-7.871c0-3.355-0.802-5.936-2.403-7.742c-1.603-1.807-3.586-2.71-5.951-2.71
		c-2.366,0-4.355,0.903-5.968,2.71C1119.396,71.455,1118.591,74.058,1118.591,77.455z"/>
	<path d="M1159.106,94.583h-9.064V60.327h8.419v4.871c1.44-2.301,2.736-3.817,3.888-4.548c1.149-0.73,2.456-1.097,3.919-1.097
		c2.064,0,4.054,0.57,5.968,1.709l-2.807,7.903c-1.527-0.989-2.946-1.484-4.258-1.484c-1.27,0-2.345,0.35-3.226,1.048
		c-0.882,0.699-1.576,1.962-2.081,3.79c-0.505,1.828-0.758,5.656-0.758,11.483V94.583z"/>
	<path d="M1189.495,79.197l9.29-0.903c0.56,3.119,1.693,5.409,3.403,6.871s4.017,2.193,6.919,2.193c3.075,0,5.393-0.65,6.952-1.952
		c1.559-1.301,2.338-2.822,2.338-4.564c0-1.118-0.328-2.069-0.983-2.854c-0.656-0.785-1.802-1.468-3.436-2.048
		c-1.118-0.387-3.667-1.075-7.645-2.064c-5.119-1.269-8.71-2.828-10.774-4.677c-2.903-2.602-4.354-5.774-4.354-9.516
		c0-2.408,0.683-4.661,2.048-6.758c1.366-2.097,3.334-3.693,5.903-4.79s5.672-1.645,9.307-1.645c5.935,0,10.402,1.301,13.402,3.903
		c3,2.603,4.575,6.076,4.726,10.419l-9.548,0.419c-0.409-2.43-1.285-4.177-2.629-5.242c-1.345-1.064-3.36-1.597-6.048-1.597
		c-2.774,0-4.947,0.57-6.517,1.709c-1.011,0.731-1.516,1.71-1.516,2.936c0,1.119,0.473,2.076,1.419,2.871
		c1.204,1.011,4.129,2.064,8.774,3.161c4.645,1.097,8.08,2.231,10.306,3.403c2.226,1.172,3.968,2.774,5.226,4.807
		s1.888,4.543,1.888,7.532c0,2.71-0.754,5.248-2.259,7.613c-1.505,2.366-3.634,4.124-6.387,5.274
		c-2.753,1.15-6.183,1.726-10.29,1.726c-5.979,0-10.569-1.382-13.773-4.145C1192.032,88.514,1190.119,84.487,1189.495,79.197z"/>
	<path d="M1254.431,83.681l9.032,1.516c-1.162,3.312-2.995,5.833-5.5,7.564c-2.506,1.731-5.641,2.597-9.403,2.597
		c-5.957,0-10.365-1.946-13.226-5.839c-2.258-3.118-3.387-7.053-3.387-11.806c0-5.677,1.483-10.123,4.451-13.338
		c2.968-3.214,6.721-4.822,11.258-4.822c5.097,0,9.118,1.683,12.064,5.048c2.946,3.366,4.354,8.521,4.226,15.467h-22.709
		c0.064,2.688,0.795,4.779,2.193,6.274c1.397,1.495,3.14,2.242,5.226,2.242c1.42,0,2.613-0.387,3.581-1.161
		C1253.205,86.648,1253.936,85.401,1254.431,83.681z M1254.946,74.52c-0.064-2.624-0.741-4.618-2.032-5.983
		c-1.29-1.366-2.86-2.048-4.709-2.048c-1.979,0-3.613,0.721-4.903,2.161c-1.29,1.441-1.925,3.398-1.903,5.871H1254.946z"/>
	<path d="M1278.688,94.583h-9.064V60.327h8.419v4.871c1.44-2.301,2.736-3.817,3.888-4.548c1.149-0.73,2.456-1.097,3.919-1.097
		c2.064,0,4.054,0.57,5.968,1.709l-2.807,7.903c-1.527-0.989-2.946-1.484-4.258-1.484c-1.27,0-2.345,0.35-3.226,1.048
		c-0.882,0.699-1.576,1.962-2.081,3.79c-0.505,1.828-0.758,5.656-0.758,11.483V94.583z"/>
	<path d="M1305.47,94.583l-13.807-34.257h9.517l6.451,17.483l1.871,5.839c0.494-1.484,0.806-2.462,0.936-2.936
		c0.301-0.968,0.623-1.936,0.967-2.903l6.517-17.483h9.322l-13.612,34.257H1305.47z"/>
	<path d="M1331.471,55.682v-8.387h9.063v8.387H1331.471z M1331.471,94.583V60.327h9.063v34.257H1331.471z"/>
	<path d="M1378.374,70.455l-8.936,1.613c-0.302-1.785-0.984-3.129-2.049-4.032c-1.064-0.903-2.446-1.355-4.145-1.355
		c-2.258,0-4.06,0.78-5.403,2.338c-1.344,1.56-2.016,4.167-2.016,7.823c0,4.064,0.683,6.935,2.048,8.612
		c1.365,1.678,3.198,2.516,5.5,2.516c1.72,0,3.129-0.489,4.226-1.468c1.097-0.978,1.871-2.661,2.322-5.048l8.903,1.516
		c-0.925,4.086-2.699,7.172-5.322,9.258c-2.624,2.086-6.14,3.129-10.548,3.129c-5.012,0-9.006-1.581-11.984-4.742
		s-4.467-7.537-4.467-13.128c0-5.656,1.494-10.059,4.483-13.209c2.989-3.15,7.032-4.726,12.129-4.726
		c4.172,0,7.488,0.898,9.951,2.693C1375.529,64.042,1377.298,66.778,1378.374,70.455z"/>
	<path d="M1403.762,83.681l9.032,1.516c-1.162,3.312-2.995,5.833-5.5,7.564c-2.506,1.731-5.641,2.597-9.403,2.597
		c-5.957,0-10.365-1.946-13.226-5.839c-2.258-3.118-3.387-7.053-3.387-11.806c0-5.677,1.483-10.123,4.451-13.338
		c2.968-3.214,6.721-4.822,11.258-4.822c5.097,0,9.118,1.683,12.064,5.048c2.946,3.366,4.354,8.521,4.226,15.467h-22.709
		c0.064,2.688,0.795,4.779,2.193,6.274c1.397,1.495,3.14,2.242,5.226,2.242c1.42,0,2.613-0.387,3.581-1.161
		C1402.536,86.648,1403.267,85.401,1403.762,83.681z M1404.277,74.52c-0.064-2.624-0.741-4.618-2.032-5.983
		c-1.29-1.366-2.86-2.048-4.709-2.048c-1.979,0-3.613,0.721-4.903,2.161c-1.29,1.441-1.925,3.398-1.903,5.871H1404.277z"/>
</g>
<g>
	<path d="M664.943,41.086c1.551,0,3.038,0.388,4.463,1.163c1.424,0.775,2.543,1.887,3.357,3.334
		c0.815,1.448,1.223,2.963,1.223,4.545c0,1.574-0.4,3.075-1.198,4.503c-0.799,1.428-1.913,2.542-3.341,3.341
		c-1.429,0.798-2.93,1.198-4.504,1.198c-1.573,0-3.074-0.399-4.503-1.198c-1.429-0.799-2.542-1.913-3.341-3.341
		s-1.198-2.929-1.198-4.503c0-1.582,0.407-3.097,1.222-4.545c0.814-1.448,1.935-2.559,3.358-3.334
		C661.906,41.474,663.394,41.086,664.943,41.086z M664.955,42.856c-1.243,0-2.436,0.311-3.576,0.933
		c-1.142,0.622-2.04,1.515-2.697,2.68s-0.985,2.384-0.985,3.659c0,1.267,0.32,2.475,0.962,3.624
		c0.641,1.149,1.536,2.046,2.686,2.691c1.148,0.646,2.353,0.968,3.611,0.968c1.268,0,2.474-0.322,3.618-0.968
		c1.146-0.646,2.04-1.542,2.686-2.691s0.968-2.357,0.968-3.624c0-1.275-0.328-2.495-0.985-3.659s-1.558-2.058-2.703-2.68
		C667.394,43.167,666.199,42.856,664.955,42.856z M660.859,54.968v-9.597h1.948c1.825,0,2.849,0.008,3.068,0.024
		c0.646,0.055,1.147,0.183,1.505,0.383c0.358,0.201,0.657,0.508,0.897,0.921s0.36,0.872,0.36,1.375c0,0.693-0.227,1.285-0.679,1.777
		c-0.453,0.492-1.088,0.797-1.906,0.915c0.291,0.11,0.515,0.23,0.673,0.36c0.157,0.13,0.373,0.376,0.648,0.738
		c0.071,0.094,0.308,0.484,0.709,1.168l1.133,1.936h-2.408l-0.803-1.558c-0.543-1.047-0.991-1.706-1.346-1.978
		c-0.354-0.271-0.803-0.407-1.346-0.407h-0.507v3.943H660.859z M662.808,49.514h0.79c1.126,0,1.824-0.043,2.096-0.13
		s0.485-0.238,0.644-0.455c0.157-0.216,0.235-0.462,0.235-0.738c0-0.267-0.076-0.505-0.229-0.714s-0.372-0.358-0.655-0.449
		s-0.979-0.136-2.09-0.136h-0.79V49.514z"/>
</g>
<g>
	<path fill="#35308D" d="M51.114,19.5c0.904-0.181,1.055-1.087,0.543-3.691c-0.504-2.605-0.991-3.394-1.889-3.217
		c-0.9,0.175-1.047,1.079-0.537,3.693C49.744,18.894,50.214,19.667,51.114,19.5z"/>
	<path fill="#35308D" d="M94.914,6.715c0.025,0.207,0.064,0.408,0.109,0.631c0.504,2.601,0.981,3.379,1.875,3.21
		c0.855-0.169,1.027-1.007,0.62-3.272c-0.266-0.023-0.542-0.052-0.856-0.087C96.662,7.196,95.705,7.002,94.914,6.715z"/>
	<path fill="#35308D" d="M33.968,19.27c0.51,2.604,0.987,3.383,1.88,3.207c0.903-0.175,1.051-1.087,0.551-3.685
		c-0.134-0.679-0.265-1.224-0.397-1.67c-0.934,0.063-1.706,0.127-2.294,0.401C33.747,17.998,33.835,18.569,33.968,19.27z"/>
	<path fill="#35308D" d="M64.551,50.249c0.938-0.171,1.1-1.116,0.605-3.808c-0.496-2.701-0.993-3.529-1.931-3.351
		c-0.923,0.171-1.091,1.102-0.59,3.818C63.137,49.614,63.624,50.42,64.551,50.249z"/>
	<path fill="#35308D" d="M53.594,31.591c-0.452-2.506-0.904-3.279-1.783-3.115c-0.855,0.157-1.018,1.02-0.55,3.543
		c0.452,2.513,0.903,3.262,1.765,3.108C53.899,34.971,54.055,34.094,53.594,31.591z"/>
	<path fill="#35308D" d="M81.639,13.532c0.904-0.174,1.055-1.09,0.545-3.684c-0.512-2.606-0.988-3.401-1.902-3.219
		c-0.889,0.176-1.036,1.073-0.529,3.696C80.263,12.93,80.75,13.708,81.639,13.532z"/>
	<path fill="#35308D" d="M38.889,34.261c-0.457-2.513-0.904-3.275-1.782-3.119c-0.861,0.157-1.013,1.02-0.562,3.547
		c0.458,2.513,0.909,3.262,1.768,3.104C39.188,37.637,39.34,36.764,38.889,34.261z"/>
	<path fill="#35308D" d="M66.373,16.516c0.909-0.175,1.057-1.087,0.551-3.685c-0.506-2.605-0.993-3.398-1.896-3.219
		c-0.89,0.17-1.047,1.073-0.535,3.688C65.002,15.914,65.48,16.69,66.373,16.516z"/>
	<path fill="#35308D" d="M71.143,41.623c-0.923,0.185-1.097,1.102-0.59,3.821c0.498,2.709,0.982,3.515,1.916,3.347
		c0.938-0.174,1.095-1.119,0.605-3.81C72.572,42.275,72.08,41.458,71.143,41.623z"/>
	<path fill="#35308D" d="M73.884,24.471c-0.864,0.156-1.018,1.01-0.565,3.545c0.457,2.513,0.907,3.254,1.772,3.104
		c0.87-0.161,1.026-1.026,0.57-3.529C75.205,25.071,74.757,24.305,73.884,24.471z"/>
	<path fill="#35308D" d="M82.445,29.784c0.868-0.153,1.024-1.034,0.574-3.524c-0.462-2.517-0.91-3.283-1.789-3.126
		c-0.855,0.153-1.007,1.019-0.554,3.541C81.133,29.189,81.58,29.945,82.445,29.784z"/>
	<path fill="#35308D" d="M88.297,45.868c0.939-0.179,1.102-1.116,0.605-3.811c-0.496-2.702-0.988-3.525-1.925-3.351
		c-0.929,0.168-1.097,1.098-0.594,3.822C86.885,45.227,87.375,46.036,88.297,45.868z"/>
	<path fill="#35308D" d="M80.273,56.68c-0.942,0.175-1.11,1.126-0.59,3.9c0.516,2.762,1.016,3.585,1.965,3.407
		c0.953-0.186,1.124-1.148,0.609-3.889C81.737,57.336,81.23,56.498,80.273,56.68z"/>
	<path fill="#35308D" d="M94.889,37.245c-0.923,0.171-1.089,1.098-0.584,3.814c0.497,2.703,0.982,3.515,1.91,3.344
		c0.939-0.171,1.102-1.112,0.604-3.808C96.318,37.89,95.829,37.07,94.889,37.245z"/>
	<path fill="#35308D" d="M64.124,59.713c-0.948,0.182-1.113,1.13-0.599,3.903c0.526,2.759,1.026,3.583,1.97,3.408
		c0.962-0.178,1.119-1.147,0.609-3.893C65.578,60.379,65.083,59.532,64.124,59.713z"/>
	<path fill="#35308D" d="M50.126,68.037c0.029,0.008,0.054,0.015,0.084,0.019c-0.036-0.507-0.12-1.12-0.266-1.879
		c-0.517-2.766-1.027-3.608-1.98-3.422c-0.943,0.171-1.114,1.119-0.588,3.9c0.112,0.613,0.225,1.109,0.342,1.54
		C48.898,68.101,50.111,68.001,50.126,68.037z"/>
	<path fill="#35308D" d="M47.391,46.014c-0.917,0.171-1.091,1.098-0.584,3.814c0.496,2.709,0.988,3.522,1.916,3.347
		c0.938-0.167,1.1-1.119,0.605-3.804C48.82,46.663,48.339,45.843,47.391,46.014z"/>
	<path fill="#2C4D98" d="M33.183,73.092c0.353-0.064,0.599-0.242,0.747-0.578c-0.619,0.199-1.161,0.346-1.504,0.407
		c-0.004,0-0.009,0-0.015,0C32.637,73.092,32.883,73.145,33.183,73.092z"/>
	<path fill="#35308D" d="M33.929,72.514c0.24-0.563,0.185-1.583-0.137-3.308c-0.523-2.763-1.027-3.593-1.98-3.422
		c-0.948,0.178-1.114,1.133-0.59,3.903c0.349,1.89,0.702,2.859,1.188,3.233c0.005,0,0.011,0,0.015,0
		C32.769,72.86,33.311,72.713,33.929,72.514z"/>
	<path fill="#35308D" d="M102.742,22.676c0.453,2.511,0.906,3.266,1.764,3.108c0.314-0.062,0.535-0.221,0.668-0.508
		c-1.371-1.891-1.98-4.03-2.171-6.044C102.415,19.541,102.345,20.48,102.742,22.676z"/>
	<path fill="#ED1C27" d="M121.824,107.241c-8.61,0.734-15.697,5.839-26.541,5.448c-1.091-0.157-0.758-1.74-2.039-1.701
		c-0.138-1.001-1.611-0.667-2.042-1.365c-6.745,0.52-12.967,0.955-20.761,1.027c-1.165-0.999-2.943-1.369-3.738-2.717
		c-4.101,1.002-8.796,1.419-12.598,2.717c-1.558,0.505-3.007,0.841-4.736,0.962c-5.304,0.334-15.283-0.631-17.754,0.11
		c-2.707,0.809-4.322,0.239-6.09,1.985c-0.938,0.57-4.913,0.998-7.147,1.704c-2.071,0.507-3.942,0.507-6.13,0
		c-2.572-1.668-4.739-3.821-4.42-7.479c0.481-2.677,3.32-6.188,6.126-6.812c11.414-2.423,24.621-3.047,36.408-5.104
		c2.263-0.399,10.427-2.334,15.314-2.377c2.755,0.015,7.52,1.979,8.852,2.039c6.938,0.213,15.185-2.392,19.39,1.697
		c0.525,0.393,1.542,0.207,2.381,0c0.825-0.064,7.559-2.096,15.118-3.044c0.736-0.093,1.832-0.627,2.725-0.827
		c10.625-2.499,19.773-1.555,20.957-1.907c4.731-2.029,14.402-1.166,18.713,1.015c0.291,0.171,0.556,0.279,1.116-0.263
		c0.471-0.243,0.632-0.663,1.405-1.23c1.552-0.674,1.149,2.118,2.583,1.833c2.353,0.313,2.75-1.152,4.794-1.152
		c1.611,0.015,9.769,6.103,14.601,9.322c1.051,1.073,0.104,2.588,0.678,3.405c0.069,0.542,5.874-0.406,8.512,0.335
		c0.708,0.584-0.579,1.946,0,2.38c3.665,1.726,9.238,0.806,13.272,0c1.23-0.324,0.283,1.53,1.359,1.365
		c3.063,0.015,4.552-0.495,6.463,0.681c1.278,0.812,8.222-1.518,11.853-0.139c1.069,0.952,0.731,2.05,0.401,2.863
		c-0.594,1.682-2.432,2.36-4.086,2.724c-5.643,1.069-10.898,0.691-11.571,1.012c-1.267,0.663-2.545,1.233-4.081,1.704
		c-1.188,0.513-14.793,2.592-14.976,1.704c0.039-1.283,1.542-0.235,0.683-1.704c-0.904-1.03-2.691-0.613-4.018-0.891
		c-0.845-0.25-2.647-1.38-3.67-2.566c-1.163-1.309-1.262-3.354-2.856-4.025c-2.417-0.225-3.267,1.301-4.431,1.02
		c-1.675-0.118-5.584-3.86-8.079-4.089c-5.128-0.242-9.587,0.91-14.352,0.292c-1.384-0.402,0.177-1.476-1.046-1.65
		c-1.783,0.566-1.105-1.023-2.381-0.681c-2.299,1.247-6.513,1.201-8.507,3.072c-1.734,0.613-4.316,0.663-6.124,1.355
		c-1.846,0.506-7.008,0.795-8.698-0.235C121.701,108.296,122.531,107.413,121.824,107.241z"/>
	<path fill="#ED1C27" d="M100.876,76.072c5.781-4.2,14.608-4.866,24.68-4.766c2.191,0.149,2.266-0.646,4.809-1.023
		c2.373-0.339,3.508-1.227,5.663-1.476c15.501-1.298,29.72-0.906,33.762,0.42c14.41,5.254,13.202,11.115,14.67,12.512
		c1.705,1.628,6.896-0.93,7.785,0.334c0.771,1.237,3.335,0.307,4.591,2.503c0.615,1.027,10.488-0.816,11.229,0.338
		c0.372,0.581,0.019,0.81,0.333,1.365c0.31,0.713,4.705-0.52,6.468-1.365c0.648-0.299,1.215-0.755,2.728,0
		c2.789,1.523,9.63-0.332,10.205,2.72c0.589,3.586-4.195,2.837-6.12,4.431c-0.638,0.456-2.141,0.289-3.407,0
		c-1.165-0.26,0.255,1.455-4.401,1.169c-7.545-0.371-7.911,2.663-12.877,2c-0.562-0.143-0.621-0.446-1.779-0.792
		c-1.001-0.164-1.905-0.075-3.061,1.02c-0.432,0.328-1.35,0.685-1.737,0.685c-1.995,0-2.521-0.813-3.366-1.027
		c-0.981-0.827-2.16-1.262-3.402-2.04c-1.827-0.755-2.5-1.269-3.065-2.38c-0.487-0.874,0.167-2.342-1.021-3.066
		c-1.592-0.642-2.952-0.072-4.656-0.289c-1.701-0.353-1.701-1.769-2.78-1.936c-1.08-0.286-1.698-1.341-2.431-1.854
		c-1.911-0.321-2.303,0.87-3.743,1.019c-3.628,0-7.26,0-10.888,0c-1.478-0.228-2.205-1.005-3.743-1.361
		c-2.784-0.642-3.702-0.321-6.645,0.663c-0.433,0.271-0.796,0.392-1.184,0.698c-0.576,0.663-3.429,0.656-6.415,0.396
		c-1.248-0.075-2.269,0.203-3.178,0.553c-3.738,1.693-16.331-0.685-19.332,0.755c-4.322,2.146-10.505,2.332-14.072,4.164
		c-1.542,0.606-5.553,0.92-9.861-1.882c-2.442-1.344-6.513-0.862-7.716,0.435c-1.248,0.441-2.495,0.385-4.082,0
		c-3.522-0.756-6.021-2.681-7.486-2.717c-1.648-0.024-8.751,2.453-13.609,1.355c-4.381-0.178-6.985,1.291-11.232,1.362
		c-2.506-0.2-7.039-1.833-8.84-1.02c-2.221,0.62-3.925,2.466-5.788,2.724c-1.198,0.495-6.359-0.649-10.539,1.618
		c-1.606,1.255-7.956,1.083-9.195,0.763c-0.913-0.1-1.601-0.642-2.387-1.361c-1.021-1.276-1.021-2.338-1.021-3.743
		c0.05-1.769,0.674-2.909,1.016-4.385c0.497-0.991,2.265-4.138,8.169-5.817c6.459-1.48,13.643-1.181,14.98-1.369
		c1.262-0.207,1.609-0.948,3.059-1.358c1.357-0.171,2.447,0.267,3.404,0c8.068-2.25,16.251-3.09,27.058-2.613
		c2.824,0.189,9.705-0.606,10.735-0.149c5.816,2.616,7.329,0.948,9.161,1.058c1.389,0.086,2.071,0.881,3.064,1.358
		C96.894,74.638,100.411,76.335,100.876,76.072z"/>
	<path fill="#ED1C27" d="M189.047,58.825c6.119-1.019,10.069,0.774,13.61,3.743c1.542,1.44,24.642-2.384,34.369,2.039
		c0.708,0.31,0.822,1.711,0,2.381c-2.975,2.125-10.897,3.412-11.909,3.408c-7.422,0.381-17.214,3.708-18.714,3.743
		c-1.507,0.028-1.423-1.533-2.725-1.704c-1.852,0.193-2.059,2.025-4.082,2.046c-1.178,0-1.718-1.847-2.392-1.654
		c-2.923,0.449-3.629-0.728-4.759-1.419c-3.787-2.331-4.73-5.546-5.486-5.889c-1.287-0.87-7.495,1.177-6.42-2.952
		c0.826-2.042-17.284,0.685-20.682-0.478c-2.578-0.795-2.662-1.753-3.486-1.564c-0.728,0.217-1.077,0.73-2.373,0.677
		c-7.038-0.452-12.253,0.917-17.018,2.728c-1.061,0.263-2.24,0.232-3.405,0c-1.547-0.563-1.896-1.319-2.72-1.362
		c-1.292,0.043-2.883,1.255-8.163,0.678c-2.093-0.182-2.957,1.105-5.791,1.027c-1.252,0.078-0.805,1.008-1.7,1.354
		c-1.62,0.642-3.221,0.2-5.441,1.361c-2.74,1.017-9.651,0.278-10.824-0.67c-0.555-0.378-1.175-1.066-1.424-3.073
		c-0.232-2.481,0.25-4.41,0.462-5.262c0.19-0.613,0.962-1.91,1.576-2.224c4.813-1.765,11.718-4.837,13.467-4.755
		c0.839-0.136,1.262-1.098,1.847-1.027c0.938,0.114,1.882-0.749,3.065-0.685c3.281,0.652,6.379-0.713,7.484-0.677
		c13.061,1.312,23.354-4.207,35.048-1.02c0.797,0,1.586,0,2.383,0c1.482,0.061,1.743-0.902,3.747-1.026
		c2.579,1.347,3.684,0.385,7.142,0.349c2.717,0.075,5.889,1.547,6.832,2.04c0.875,0.224,4.759,4.748,6.203,7.393
		C187.372,57.432,187.942,58.944,189.047,58.825z"/>
	<path fill="#ED1C27" d="M166.429,0.335c0.91,1.023-0.289,1.418,0.335,1.883c0.574,0.558,1.547,0.05,3.06,0
		c1.424,0.05,2.504,0.103,4.085,1.361c0.688,0.617,1.341,1.289,1.567,2.034c0.556,1.024,1.18,1.379,1.792,1.914
		c2.627,2.139,4.048,5.987,5.402,6.909c1.111,0.814,2.244,0.357,3.488,1.736c0.972,1.012,11.801-1.1,17.587-0.015
		c1.415,0.399,2.344,0.993,2.937,1.217c1.485,0.88,7.33,2.699,8.398,2.541c2.104-0.013,5.992-1.253,8.513-1.358
		c3.05-0.099,5.089-0.828,7.484,0c1.243,0.369,2.728,1.8,3.742,1.019c6.298-4.609,8.646,0.668,14.632,0.339
		c1.247-0.066,3.296,1.604,5.104,2.041c3.502,0.56,7.146-0.144,10.726-0.437c1.076-0.05,3.91-0.597,3.91,1.117
		c-0.072,1.432-2.097,3.786-3.407,4.083c-1.485,0.216-2.657,0.95-4.082,1.021c-6.405,0.328-12.25,0-18.374,0
		c-0.855-0.057-10.698,2.185-13.61,1.02c-0.481,0.092-2.372,0.841-3.403,0.342c-2.283,1.291-5.393,2.203-7.829,2.381
		c-1.071,0.064-2.761,1.782-2.381,1.361c-0.767,0.663-2.56,0.296-3.404,0c-0.674-0.691-0.938-0.833-0.339-2.042
		c-2.691,0.253-3.552,1.301-5.978,2.192c-1.553,0.324-2.726,0.25-3.36-0.079c-0.806-0.545-1.547-0.834-2.003-1.561
		c-0.633-0.542-3.797-0.962-4.868-1.38c-3.653-2.142-9.646-2.021-11.011-4.275c-0.678-1.599-2.608-1.769-2.726-2.724
		c0-0.566,0.064-1.458-1.066-1.864c-2.465-0.506-4.031,0.888-5.397,0.168c-1.583-0.982-2.574-2.193-3.748-3.407
		c-1.371-0.235-1.566,0.701-2.381,1.02c-2.875-0.729-5.939,0.09-8.842-0.337c-2.194-1.132-3.173-1.658-5.044-1.95
		c-2.155-0.123-5.221,0.459-6.753,1.371c-1.699,0.851-5.559,3.146-9.979,2.619c-0.672,0.106-0.683-0.455-1.027-0.681
		c-0.672-1.26-3.738,0.557-5.785,0.34c-2.146-0.13-7.028,4.41-8.846,4.085c-1.625-0.157-1.639,0.839-3.402,1.021
		c-1.018,0.201-3.606-0.259-4.529-0.018c-1.185-0.04-7.265,2.104-7.722-4.064c-0.083-4.342-0.309-5.686,0.678-8.854
		c0.29-0.745,1.596-2.215,3.065-2.381c5.447,0.166,7.951-2.442,12.427-3.073c1.87-0.114,2.607-2.295,7.936-2.295
		c0.907-0.029,1.99-1.054,3.118-1.099c1.361-0.011,5.167-0.42,5.788-0.69c2.952-1.361,7.238-0.572,9.184-2.371
		c1.262-0.732,4.37-0.407,4.37-0.407c0.795,0.224,1.586,1.361,2.098,1.766c0.683,0.444,5.162-0.046,6.468-1.358
		C163.027,0.519,165.069-0.514,166.429,0.335z"/>
	<g>
		<path fill="none" d="M39.281,45.84c-0.289,1.832-2.224,3.012-2.411,3.119l0.324,1.771c1.181-0.648,1.891-1.472,2.247-1.95
			l1.36,7.358l1.958-0.356l-1.886-10.238L39.281,45.84z"/>
		<path fill="none" d="M47.489,37.523l-1.729-9.511l-1.478,0.271c-0.282,1.704-2.072,2.795-2.251,2.891l0.296,1.643
			c1.094-0.599,1.757-1.358,2.096-1.8l1.239,6.84L47.489,37.523z"/>
		<path fill="none" d="M38.599,39.298c1.508-0.274,2.112-1.305,2.305-2.438c0.205-1.126,0-2.339-0.108-2.944
			c-0.124-0.663-0.369-1.861-0.943-2.845c-0.584-0.977-1.513-1.711-3.015-1.433c-1.514,0.267-2.118,1.298-2.328,2.414
			c-0.188,1.115,0.014,2.32,0.131,2.955c0.118,0.663,0.335,1.868,0.923,2.852C36.139,38.831,37.082,39.577,38.599,39.298z"/>
		<path fill="none" d="M53.309,36.632c1.508-0.271,2.112-1.315,2.305-2.438c0.205-1.133,0.003-2.338-0.114-2.948
			c-0.112-0.656-0.358-1.857-0.937-2.848c-0.585-0.973-1.518-1.711-3.021-1.433c-1.503,0.274-2.112,1.297-2.317,2.413
			c-0.198,1.12,0.009,2.321,0.123,2.962c0.126,0.656,0.342,1.86,0.933,2.844C50.854,36.165,51.792,36.91,53.309,36.632z"/>
		<path fill="none" d="M50.352,45.929c-0.632-1.048-1.629-1.833-3.26-1.533c-1.622,0.296-2.265,1.404-2.486,2.603
			c-0.205,1.205,0.019,2.502,0.148,3.187c0.131,0.706,0.369,2.004,1.007,3.066c0.619,1.051,1.631,1.854,3.271,1.55
			c1.623-0.306,2.27-1.429,2.476-2.641c0.216-1.22-0.009-2.514-0.137-3.166C51.247,48.274,50.976,46.987,50.352,45.929z"/>
		<path fill="none" d="M55.112,42.913c-0.296,1.84-2.226,3.016-2.408,3.123l0.321,1.768c1.178-0.646,1.889-1.472,2.25-1.946
			l1.359,7.358l1.959-0.364l-1.886-10.238L55.112,42.913z"/>
		<path fill="none" d="M88.549,23.009l1.243,6.843l1.826-0.329L89.9,20l-1.493,0.271c-0.274,1.706-2.068,2.802-2.244,2.9
			l0.303,1.636C87.551,24.218,88.225,23.451,88.549,23.009z"/>
		<path fill="none" d="M79.698,29.852c0.57,0.973,1.508,1.718,3.03,1.443c1.514-0.275,2.118-1.312,2.299-2.442
			c0.212-1.134,0.005-2.335-0.104-2.944c-0.123-0.663-0.364-1.861-0.937-2.848c-0.59-0.977-1.514-1.708-3.027-1.431
			c-1.502,0.272-2.112,1.295-2.323,2.413c-0.19,1.117,0.015,2.321,0.132,2.957C78.889,27.659,79.11,28.864,79.698,29.852z"/>
		<path fill="none" d="M30.952,40.524l1.827-0.328l-1.734-9.511l-1.474,0.263c-0.28,1.711-2.077,2.799-2.25,2.902l0.296,1.64
			c1.094-0.599,1.768-1.361,2.096-1.804L30.952,40.524z"/>
		<path fill="none" d="M66.491,27.007l1.239,6.844l1.822-0.334l-1.724-9.506l-1.483,0.271c-0.28,1.705-2.073,2.796-2.246,2.893
			l0.295,1.643C65.489,28.219,66.163,27.457,66.491,27.007z"/>
		<path fill="none" d="M31.36,47.301c-0.29,1.832-2.22,3.015-2.402,3.125l0.324,1.762c1.178-0.646,1.891-1.462,2.244-1.943
			l1.357,7.351l1.964-0.356l-1.886-10.241L31.36,47.301z"/>
		<path fill="none" d="M64.865,51.875c1.625-0.303,2.27-1.419,2.47-2.645c0.221-1.212-0.009-2.509-0.132-3.162
			c-0.132-0.71-0.397-2.004-1.016-3.062c-0.634-1.055-1.636-1.835-3.262-1.532c-1.622,0.299-2.269,1.396-2.49,2.602
			c-0.207,1.198,0.015,2.502,0.146,3.18c0.134,0.712,0.374,2.01,1.012,3.069C62.208,51.375,63.226,52.178,64.865,51.875z"/>
		<path fill="none" d="M95.907,21.672l1.242,6.843l1.822-0.332l-1.724-9.511l-1.483,0.267c-0.276,1.702-2.078,2.792-2.25,2.887
			l0.299,1.649C94.905,22.877,95.577,22.114,95.907,21.672z"/>
		<path fill="none" d="M62.193,34.856l-1.724-9.512l-1.482,0.267c-0.276,1.705-2.073,2.792-2.241,2.896l0.291,1.636
			c1.1-0.588,1.768-1.348,2.093-1.796l1.247,6.836L62.193,34.856z"/>
		<path fill="none" d="M88.136,53.486c-0.289,1.875-2.258,3.086-2.451,3.193l0.338,1.803c1.205-0.662,1.927-1.497,2.29-1.992
			l1.414,7.503l2.008-0.371l-1.964-10.444L88.136,53.486z"/>
		<path fill="none" d="M97.846,37.152c-0.632-1.047-1.634-1.835-3.256-1.532c-1.625,0.299-2.269,1.404-2.49,2.613
			c-0.207,1.197,0.02,2.495,0.143,3.183c0.132,0.706,0.373,2.004,1.013,3.066c0.618,1.047,1.634,1.847,3.276,1.543
			c1.621-0.303,2.269-1.422,2.464-2.638c0.221-1.216-0.005-2.517-0.123-3.169C98.741,39.505,98.47,38.214,97.846,37.152z"/>
		<path fill="none" d="M88.614,47.486c1.62-0.302,2.272-1.422,2.47-2.638c0.216-1.216-0.005-2.513-0.128-3.169
			c-0.132-0.713-0.403-2.003-1.021-3.065c-0.638-1.042-1.636-1.829-3.256-1.534c-1.631,0.307-2.274,1.412-2.489,2.617
			c-0.212,1.194,0.014,2.495,0.137,3.172c0.137,0.713,0.372,2.011,1.012,3.073C85.961,46.987,86.978,47.782,88.614,47.486z"/>
		<path fill="none" d="M83.293,56.58c-0.652-1.066-1.67-1.868-3.33-1.554c-1.659,0.307-2.318,1.433-2.534,2.67
			c-0.207,1.223,0.025,2.549,0.157,3.247c0.137,0.728,0.388,2.05,1.038,3.13c0.638,1.07,1.673,1.882,3.349,1.565
			c1.656-0.307,2.314-1.458,2.515-2.699c0.221-1.247-0.014-2.566-0.138-3.236C84.213,58.975,83.937,57.664,83.293,56.58z"/>
		<path fill="none" d="M74.099,41.544c-0.634-1.052-1.631-1.836-3.251-1.537c-1.627,0.295-2.279,1.4-2.495,2.605
			c-0.212,1.201,0.014,2.503,0.146,3.184c0.128,0.716,0.374,2.007,1.003,3.062c0.624,1.062,1.64,1.854,3.279,1.543
			c1.617-0.296,2.266-1.408,2.467-2.635c0.221-1.212-0.005-2.509-0.123-3.165C74.993,43.89,74.723,42.606,74.099,41.544z"/>
		<path fill="none" d="M79.026,41.473l1.354,7.36l1.961-0.367l-1.886-10.234l-1.603,0.296c-0.285,1.833-2.219,3.016-2.406,3.123
			l0.33,1.761C77.95,42.774,78.668,41.95,79.026,41.473z"/>
		<path fill="none" d="M77.68,30.19c0.202-1.138,0-2.335-0.114-2.944c-0.117-0.668-0.363-1.862-0.937-2.854
			c-0.59-0.968-1.514-1.702-3.026-1.429c-1.507,0.276-2.111,1.294-2.323,2.417c-0.187,1.109,0.015,2.315,0.137,2.953
			c0.118,0.656,0.335,1.861,0.923,2.848c0.565,0.981,1.513,1.722,3.032,1.443C76.878,32.357,77.482,31.313,77.68,30.19z"/>
		<path fill="none" d="M67.14,59.614c-0.649-1.059-1.676-1.864-3.335-1.551c-1.65,0.307-2.319,1.44-2.534,2.667
			c-0.201,1.233,0.03,2.549,0.162,3.251c0.138,0.727,0.384,2.053,1.038,3.13c0.638,1.069,1.674,1.879,3.35,1.561
			c1.659-0.306,2.313-1.455,2.518-2.695c0.212-1.241-0.02-2.566-0.146-3.233C68.058,62.013,67.778,60.693,67.14,59.614z"/>
	</g>
	<path fill="#ED1C27" d="M218.257,39.89c1.478,0,3.068-0.161,3.638,0.264c0.57,0.371,0.398,0.62,0.791,0.756
		c1.136,0,2.264,0,3.404,0c-0.035-0.806,3.634-1.84,3.741,0c0.232,0.998,1.568-0.1,2.157,1.454c0.456,1.188,3.502-0.364,5.335-0.627
		c1.11-0.092,1.394,0.838,2.372,0.877c3.491,0.039,6.474-0.535,8.456,0.656c1.764,2.302,0.801,3.914,0.054,4.448
		c-1.133,0.603-10.388,1.961-17.631,2.243c-3.404,0.096-5.619-0.514-6.528-0.204c-0.756,0.421-1.129,1.283-2.661,1.283
		c-2.741,0.028-4.204,1.615-8.228,1.441c-0.397,0.05,0.06,0.663-0.338,1.026c-3.836,0.649-4.65-1.704-8.512-1.026
		c-0.545,1.493-4.722,2.263-4.822,0.919c-0.109-2.274-2.51-1.312-4.706-1.262c-2.185-0.603-3.133-2.011-5.103-2.716
		c-0.914-0.471-3.458-3.016-3.743-3.408c-2.25-1.95-3.349-4.149-6.778-4.916c-0.481,0.072-0.708-0.188-0.708-0.524
		c-0.643-0.952-3.157-1.269-4.085-1.026c-4.985,0.642-12.549,0.752-13.61,0c-0.954-0.524-1.307-1.64-1.7-2.717
		c-0.377-0.423-0.982,0.563-1.737,0.977c-1.4,1.02-2.524,1.611-3.629,2.153c-2.609,1.062-7.033,1.933-12.628,1.547
		c-1.268-0.125-0.929,1.123-2.426,0.767c-0.673-0.196-2.604-4.282-5.447-1.365c-0.447,0.456-2.831-0.457-4.42,0.342
		c-0.354,0.185-0.64,1.126-1.164,1.166c-1.745,0.196-15.162,4.303-16.866,3.939c-1.661-0.421-3.827-0.813-4.465-4.007
		c-0.236-1.404-0.19-1.618-0.19-2.641c0-1.248,0.721-3.365,1.444-4.303c0.76-1.312,5.766-5.86,7.238-6.487
		c1.247-0.734,4.784-1.312,8.42-1.294c1.34,0.046,3.196-0.325,3.835-0.41c1.369-0.11,1.59-0.303,2.435-0.729
		c0.232-0.396,0.433-1.012,1.018-1.228c7.676,0.088,13.291-1.904,21.099-1.695c0.526-0.121,0.722,0.111,1.365,0.025
		c0.795,0,1.517-0.381,1.93-0.849c2.353-2.062,7.165-0.765,11.395-0.962c1.327-0.087,2.2,1.105,4.023,1.101
		c0.854-0.023,1.547,0.031,2.16-0.763c0.792-0.568,1.189-0.588,1.586-0.595c0.904,0,1.307,0.71,1.357,1.698
		c0.063,0.995,4.204,3.151,6.812,4.513c1.586,0.738,2.652,2.478,2.716,3.989c0.054,0.403,0.574,0.977,0.854,1.568
		c0.377,2.004-0.048,3.754,1.527,4.56c1.184-0.096-0.028-0.923,0.683-1.016c1.273-0.199,2.407,0.539,3.085-0.477
		c1.021-1.134,3.522-0.728,4.027,0.427c0.318,0.906,2.196,2.175,4.293,2.41c2.622,0.517,4.538,0.791,7.199,0.898
		c1.589,0.463,3.301,1.318,3.853,1.843c1.188,0.859,2.819,0.182,3.979-0.196c1.474-0.353,2.014-0.734,3.166-0.827
		C218.767,40.813,217.549,39.993,218.257,39.89z"/>
	<g>
		<path fill="none" d="M39.281,45.84c-0.289,1.832-2.224,3.012-2.411,3.119l0.324,1.771c1.181-0.648,1.891-1.472,2.247-1.95
			l1.36,7.358l1.958-0.356l-1.886-10.238L39.281,45.84z"/>
		<path fill="none" d="M47.489,37.523l-1.729-9.511l-1.478,0.271c-0.282,1.704-2.072,2.795-2.251,2.891l0.296,1.643
			c1.094-0.599,1.757-1.358,2.096-1.8l1.239,6.84L47.489,37.523z"/>
		<path fill="none" d="M50.352,45.929c-0.632-1.048-1.629-1.833-3.26-1.533c-1.622,0.296-2.265,1.404-2.486,2.603
			c-0.205,1.205,0.019,2.502,0.148,3.187c0.131,0.706,0.369,2.004,1.007,3.066c0.619,1.051,1.631,1.854,3.271,1.55
			c1.623-0.306,2.27-1.429,2.476-2.641c0.216-1.22-0.009-2.514-0.137-3.166C51.247,48.274,50.976,46.987,50.352,45.929z"/>
		<path fill="none" d="M38.599,39.298c1.508-0.274,2.112-1.305,2.305-2.438c0.205-1.126,0-2.339-0.108-2.944
			c-0.124-0.663-0.369-1.861-0.943-2.845c-0.584-0.977-1.513-1.711-3.015-1.433c-1.514,0.267-2.118,1.298-2.328,2.414
			c-0.188,1.115,0.014,2.32,0.131,2.955c0.118,0.663,0.335,1.868,0.923,2.852C36.139,38.831,37.082,39.577,38.599,39.298z"/>
		<path fill="none" d="M55.112,42.913c-0.296,1.84-2.226,3.016-2.408,3.123l0.321,1.768c1.178-0.646,1.889-1.472,2.25-1.946
			l1.359,7.358l1.959-0.364l-1.886-10.238L55.112,42.913z"/>
		<path fill="none" d="M53.309,36.632c1.508-0.271,2.112-1.315,2.305-2.438c0.205-1.133,0.003-2.338-0.114-2.948
			c-0.112-0.656-0.358-1.857-0.937-2.848c-0.585-0.973-1.518-1.711-3.021-1.433c-1.503,0.274-2.112,1.297-2.317,2.413
			c-0.198,1.12,0.009,2.321,0.123,2.962c0.126,0.656,0.342,1.86,0.933,2.844C50.854,36.165,51.792,36.91,53.309,36.632z"/>
		<path fill="none" d="M31.36,47.301c-0.29,1.832-2.22,3.015-2.402,3.125l0.324,1.762c1.178-0.646,1.891-1.462,2.244-1.943
			l1.357,7.351l1.964-0.356l-1.886-10.241L31.36,47.301z"/>
		<path fill="none" d="M88.549,23.009l1.243,6.843l1.826-0.329L89.9,20l-1.493,0.271c-0.274,1.706-2.068,2.802-2.244,2.9
			l0.303,1.636C87.551,24.218,88.225,23.451,88.549,23.009z"/>
		<path fill="none" d="M79.698,29.852c0.57,0.973,1.508,1.718,3.03,1.443c1.514-0.275,2.118-1.312,2.299-2.442
			c0.212-1.134,0.005-2.335-0.104-2.944c-0.123-0.663-0.364-1.861-0.937-2.848c-0.59-0.977-1.514-1.708-3.027-1.431
			c-1.502,0.272-2.112,1.295-2.323,2.413c-0.19,1.117,0.015,2.321,0.132,2.957C78.889,27.659,79.11,28.864,79.698,29.852z"/>
		<path fill="none" d="M62.193,34.856l-1.724-9.512l-1.482,0.267c-0.276,1.705-2.073,2.792-2.241,2.896l0.291,1.636
			c1.1-0.588,1.768-1.348,2.093-1.796l1.247,6.836L62.193,34.856z"/>
		<path fill="none" d="M66.491,27.007l1.239,6.844l1.822-0.334l-1.724-9.506l-1.483,0.271c-0.28,1.705-2.073,2.796-2.246,2.893
			l0.295,1.643C65.489,28.219,66.163,27.457,66.491,27.007z"/>
		<path fill="none" d="M30.952,40.524l1.827-0.328l-1.734-9.511l-1.474,0.263c-0.28,1.711-2.077,2.799-2.25,2.902l0.296,1.64
			c1.094-0.599,1.768-1.361,2.096-1.804L30.952,40.524z"/>
		<path fill="none" d="M88.136,53.486c-0.289,1.875-2.258,3.086-2.451,3.193l0.338,1.803c1.205-0.662,1.927-1.497,2.29-1.992
			l1.414,7.503l2.008-0.371l-1.964-10.444L88.136,53.486z"/>
		<path fill="none" d="M95.907,21.672l1.242,6.843l1.822-0.332l-1.724-9.511l-1.483,0.267c-0.276,1.702-2.078,2.792-2.25,2.887
			l0.299,1.649C94.905,22.877,95.577,22.114,95.907,21.672z"/>
		<path fill="none" d="M83.293,56.58c-0.652-1.066-1.67-1.868-3.33-1.554c-1.659,0.307-2.318,1.433-2.534,2.67
			c-0.207,1.223,0.025,2.549,0.157,3.247c0.137,0.728,0.388,2.05,1.038,3.13c0.638,1.07,1.673,1.882,3.349,1.565
			c1.656-0.307,2.314-1.458,2.515-2.699c0.221-1.247-0.014-2.566-0.138-3.236C84.213,58.975,83.937,57.664,83.293,56.58z"/>
		<path fill="none" d="M88.614,47.486c1.62-0.302,2.272-1.422,2.47-2.638c0.216-1.216-0.005-2.513-0.128-3.169
			c-0.132-0.713-0.403-2.003-1.021-3.065c-0.638-1.042-1.636-1.829-3.256-1.534c-1.631,0.307-2.274,1.412-2.489,2.617
			c-0.212,1.194,0.014,2.495,0.137,3.172c0.137,0.713,0.372,2.011,1.012,3.073C85.961,46.987,86.978,47.782,88.614,47.486z"/>
		<path fill="none" d="M97.846,37.152c-0.632-1.047-1.634-1.835-3.256-1.532c-1.625,0.299-2.269,1.404-2.49,2.613
			c-0.207,1.197,0.02,2.495,0.143,3.183c0.132,0.706,0.373,2.004,1.013,3.066c0.618,1.047,1.634,1.847,3.276,1.543
			c1.621-0.303,2.269-1.422,2.464-2.638c0.221-1.216-0.005-2.517-0.123-3.169C98.741,39.505,98.47,38.214,97.846,37.152z"/>
		<path fill="none" d="M74.099,41.544c-0.634-1.052-1.631-1.836-3.251-1.537c-1.627,0.295-2.279,1.4-2.495,2.605
			c-0.212,1.201,0.014,2.503,0.146,3.184c0.128,0.716,0.374,2.007,1.003,3.062c0.624,1.062,1.64,1.854,3.279,1.543
			c1.617-0.296,2.266-1.408,2.467-2.635c0.221-1.212-0.005-2.509-0.123-3.165C74.993,43.89,74.723,42.606,74.099,41.544z"/>
		<path fill="none" d="M64.865,51.875c1.625-0.303,2.27-1.419,2.47-2.645c0.221-1.212-0.009-2.509-0.132-3.162
			c-0.132-0.71-0.397-2.004-1.016-3.062c-0.634-1.055-1.636-1.835-3.262-1.532c-1.622,0.299-2.269,1.396-2.49,2.602
			c-0.207,1.198,0.015,2.502,0.146,3.18c0.134,0.712,0.374,2.01,1.012,3.069C62.208,51.375,63.226,52.178,64.865,51.875z"/>
		<path fill="none" d="M79.026,41.473l1.354,7.36l1.961-0.367l-1.886-10.234l-1.603,0.296c-0.285,1.833-2.219,3.016-2.406,3.123
			l0.33,1.761C77.95,42.774,78.668,41.95,79.026,41.473z"/>
		<path fill="none" d="M67.14,59.614c-0.649-1.059-1.676-1.864-3.335-1.551c-1.65,0.307-2.319,1.44-2.534,2.667
			c-0.201,1.233,0.03,2.549,0.162,3.251c0.138,0.727,0.384,2.053,1.038,3.13c0.638,1.069,1.674,1.879,3.35,1.561
			c1.659-0.306,2.313-1.455,2.518-2.695c0.212-1.241-0.02-2.566-0.146-3.233C68.058,62.013,67.778,60.693,67.14,59.614z"/>
		<path fill="none" d="M77.68,30.19c0.202-1.138,0-2.335-0.114-2.944c-0.117-0.668-0.363-1.862-0.937-2.854
			c-0.59-0.968-1.514-1.702-3.026-1.429c-1.507,0.276-2.111,1.294-2.323,2.417c-0.187,1.109,0.015,2.315,0.137,2.953
			c0.118,0.656,0.335,1.861,0.923,2.848c0.565,0.981,1.513,1.722,3.032,1.443C76.878,32.357,77.482,31.313,77.68,30.19z"/>
		<path fill="#35308D" d="M108.844,26.644c-1.445,0.313-2.197,0.235-2.653-0.008c-0.344,0.307-0.795,0.542-1.396,0.649
			c-1.521,0.278-2.464-0.468-3.038-1.442c-0.585-0.985-0.806-2.19-0.923-2.852c-0.12-0.636-0.321-1.839-0.128-2.957
			c0.201-1.086,0.794-2.083,2.219-2.383c-0.003-3.379,0.959-6.079,0.959-6.079c0.289-0.469,0.49-0.843,0.649-1.141l-1.023-5.197
			c-0.358,0.057-0.736,0.192-1.042,0.407c-1.272,0.957-1.802,1.489-2.906,1.652c0.092,0.643,0.151,1.466,0.019,2.256
			c-0.182,1.17-0.796,2.259-2.363,2.566c-1.581,0.306-2.563-0.455-3.177-1.461c-0.624-1.02-0.87-2.266-1.003-2.952
			c-0.127-0.656-0.358-1.907-0.171-3.069c0.123-0.69,0.389-1.34,0.903-1.823c-1.007-0.979-2.71-0.957-3.684,0.486
			c-0.054,0.699-0.446,0.962-0.628,1.046l1.713,8.781l-1.891,0.369l-1.384-7.092c-0.339,0.464-1.021,1.264-2.151,1.9L85.41,6.603
			c0.104-0.059,0.728-0.46,1.302-1.109c-0.929,0.194-2.759,0.491-3.604,0.088c-0.237,0-0.497,0.003-0.772,0.003
			c0.319,0.258,0.585,0.572,0.811,0.929c0.608,1.025,0.884,2.269,1.016,2.951c0.123,0.629,0.353,1.884,0.151,3.061
			c-0.181,1.178-0.795,2.267-2.356,2.569c-1.578,0.305-2.568-0.45-3.178-1.458c-0.624-1.018-0.87-2.267-1.007-2.956
			c-0.128-0.658-0.353-1.91-0.171-3.069c0.118-0.697,0.392-1.358,0.923-1.839c-1.283,0.121-2.781,0.334-4.495,0.675l1.882,9.656
			l-1.896,0.373l-1.379-7.099c-0.341,0.467-1.027,1.269-2.157,1.905l-0.334-1.702c0.171-0.097,1.822-1.151,2.23-2.764
			c-1.43,0.339-2.993,0.763-4.711,1.313c-0.314,0.077-0.599,0.155-0.889,0.23c0.453,0.272,0.815,0.673,1.1,1.135
			c0.62,1.019,0.89,2.263,1.026,2.946c0.118,0.636,0.35,1.884,0.154,3.067c-0.182,1.176-0.797,2.262-2.363,2.566
			c-1.576,0.312-2.569-0.449-3.173-1.457c-0.627-1.024-0.873-2.272-1.007-2.957c-0.126-0.661-0.358-1.909-0.171-3.069
			c0.078-0.466,0.229-0.917,0.476-1.302c-1.38,0.294-2.613,0.541-3.925,0.82l1.754,8.976l-1.891,0.367l-1.385-7.094
			c-0.339,0.458-1.016,1.269-2.151,1.904l-0.334-1.708c0.143-0.081,1.296-0.812,1.919-1.982c-1.334,0.319-2.843,0.708-4.7,1.239
			c0.193,0.198,0.364,0.423,0.512,0.663c0.619,1.016,0.884,2.266,1.027,2.952c0.123,0.631,0.344,1.88,0.151,3.064
			c-0.182,1.175-0.8,2.26-2.361,2.567c-1.583,0.306-2.569-0.453-3.178-1.458c-0.635-1.023-0.875-2.271-1.001-2.953
			c-0.133-0.663-0.364-1.913-0.178-3.077c0.016-0.078,0.036-0.155,0.05-0.229c-1.116,0.362-2.2,0.722-3.232,1.08l1.494,7.646
			l-1.896,0.364l-1.39-7.087c-0.33,0.463-1.016,1.262-2.141,1.9l-0.265-1.346c-0.708,0.258-1.332,0.492-1.824,0.675
			c0.256,0.706,0.414,1.389,0.503,1.838c0.078,0.416,0.205,1.092,0.224,1.847c0.025,0.427,0.016,0.89-0.053,1.338
			c-0.171,1.177-0.781,2.269-2.333,2.586c-1.581,0.332-2.58-0.42-3.204-1.423c-0.632-1.012-0.887-2.259-1.03-2.944
			c-0.039-0.214-0.098-0.512-0.148-0.825c-0.294,0.352-0.918,0.793-2.205,1.008l0.932,5.169l-1.821,0.33L27.74,20
			c-0.737,0.012-1.484,1.007-2.17,1.57c-0.718,0.576-1.357,0.763-1.038,2.563c0.923,1.983,3.312,1.463,1.838,2.77
			c-1.032,0.923-3.016-0.064-3.03,1.558c-0.005,1.34,1.527,1.547,1.527,1.547c1.866,0,0.283,3.55,0.176,3.569
			c0.112,0.146,0.171,0.282,0.25,0.445c0.394,0.855,0.668,1.903,0.786,2.56c0.114,0.613,0.315,1.818,0.114,2.944
			c-0.188,1.134-0.787,2.224-2.299,2.449c-1.724,0.25-2.647-0.845-3.021-2.032c-1.483,2.117-0.432,5.6-0.432,5.6
			c0.717,1.455,1.469,1.832,2.068,2.082c0.815,0.413,1.144,0.527,1.919,0.863l0.615-0.021l1.886,10.23l-1.964,0.364l-1.002-5.436
			c-0.363,2.62-0.561,5.646-0.708,6.901c0.132,0.096-0.713,5.162-1.076,4.901c-0.093,0.129-0.186,0.243-0.3,0.346
			c0,0-1.665,1.835-1.827,2.976c-0.167,1.134-0.23,4.414,1.11,3.543c0.834-0.763,1.959-1.026,2.963-1.368l-0.429-2.289
			c-0.357,0.484-1.09,1.333-2.289,1.992l-0.334-1.8c0.188-0.107,2.157-1.326,2.447-3.194l1.629-0.31l1.09,5.785
			c0.546,0.186,1.038,0.428,1.749,0.728c0,0,0.433,0.207,1.307,0.499c0.182,0.067,0.358,0.128,0.525,0.186
			c-0.403-0.916-0.59-1.889-0.702-2.467c-0.128-0.705-0.364-2.018-0.157-3.251c0.216-1.226,0.879-2.36,2.534-2.67
			c1.66-0.317,2.676,0.489,3.33,1.555c0.644,1.08,0.918,2.396,1.055,3.122c0.109,0.617,0.315,1.769,0.182,2.919
			c1.454-0.605,2.766-1.329,2.83-1.875c-0.016-0.442,0.177-0.792,0.51-1.009c0.28-0.225,0.624-0.335,0.982-0.389l-0.535-2.859
			c-0.358,0.489-1.085,1.337-2.289,1.997l-0.335-1.804c0.188-0.107,2.158-1.326,2.453-3.197l1.625-0.303l1.192,6.353
			c1.72-0.118,2.221-0.299,3.075-0.299l0,0c-0.143-0.521-0.236-0.984-0.299-1.326c-0.124-0.699-0.364-2.025-0.157-3.248
			c0.221-1.23,0.884-2.364,2.54-2.677c1.65-0.31,2.676,0.492,3.324,1.555c0.643,1.083,0.918,2.402,1.057,3.126
			c0.078,0.403,0.191,1.058,0.225,1.779c0.334,0.014,0.757,0.092,1.278,0.328c1.301,0.492,1.418-0.249,3.001,0.125
			c0.137,0.061,0.318,0.11,0.52,0.16L56,62.568c-0.348,0.485-1.086,1.326-2.283,1.989l-0.334-1.804
			c0.186-0.106,2.155-1.319,2.446-3.194l1.631-0.299l1.753,9.325c1.609,0.267,3.437,0.471,4.396,0.506c0,0,0.948,0.157,1.748,0.043
			c0.58-0.043,3.55-0.485,4.706-2.545c0,0,1.257-2.375,2.868-2.956l-0.772-4.11c-0.352,0.492-1.085,1.337-2.283,1.997l-0.338-1.801
			c0.191-0.11,2.161-1.326,2.451-3.197l1.625-0.307l1.542,8.207c0.384,0.62,0.733,1.468,1.493,2.003c0,0,1.366,0.648,2.147,0.902
			c0,0,9.229,2.074,12.608,0.855c2.574-0.927,3.182-2.442,3.178-3.925c-0.005-0.143-0.011-0.306-0.02-0.467
			c0,0-0.011-0.449-0.142-1.836c-0.075-0.741-0.153-1.497-0.196-2.164c-0.246-0.724-0.394-1.422-0.478-1.886
			c-0.137-0.698-0.373-2.018-0.163-3.247c0.218-1.23,0.881-2.36,2.535-2.674c1.401-0.26,2.344,0.275,2.997,1.095
			c0.31-0.115,0.643-0.2,1.012-0.25c1.65,0.085,2.476-1.526,2.803-5.601c0-1.041-0.146-2.106-0.344-3.105
			c-0.574-0.289-1.011-0.759-1.33-1.308c-0.64-1.059-0.88-2.353-1.012-3.062c-0.123-0.691-0.344-1.982-0.137-3.18
			c0.21-1.169,0.82-2.231,2.322-2.574c0.375-0.549,0.851-1.041,1.479-1.312c0.962,0,2.166-0.802,2.893-1.79l1.011-1.233
			c0,0,0.26-0.527,1.473-1.276C109.797,28.069,110.135,26.756,108.844,26.644z M88.407,20.271L89.9,20l1.718,9.523l-1.826,0.329
			l-1.243-6.843c-0.325,0.442-0.999,1.208-2.083,1.799l-0.303-1.636C86.339,23.074,88.132,21.978,88.407,20.271z M78.637,24.043
			c0.21-1.118,0.821-2.141,2.323-2.413c1.513-0.276,2.437,0.455,3.027,1.431c0.573,0.987,0.814,2.185,0.937,2.848
			c0.109,0.609,0.315,1.811,0.104,2.944c-0.182,1.13-0.786,2.167-2.299,2.442c-1.522,0.275-2.46-0.47-3.03-1.443
			C79.11,28.864,78.889,27.659,78.77,27C78.652,26.364,78.447,25.16,78.637,24.043z M66.345,24.282l1.483-0.271l1.724,9.506
			l-1.822,0.334l-1.239-6.844c-0.328,0.45-1.001,1.212-2.096,1.811l-0.295-1.643C64.272,27.078,66.064,25.986,66.345,24.282z
			 M27.618,35.491l-0.296-1.64c0.173-0.103,1.97-1.19,2.25-2.902l1.474-0.263l1.734,9.511l-1.827,0.328l-1.239-6.837
			C29.386,34.13,28.712,34.893,27.618,35.491z M32.883,57.596l-1.357-7.351c-0.353,0.481-1.066,1.298-2.244,1.943l-0.324-1.762
			c0.182-0.11,2.112-1.294,2.402-3.125l1.601-0.303l1.886,10.241L32.883,57.596z M35.563,37.858
			c-0.588-0.984-0.805-2.188-0.923-2.852c-0.117-0.635-0.318-1.84-0.131-2.955c0.21-1.116,0.814-2.146,2.328-2.414
			c1.502-0.278,2.431,0.457,3.015,1.433c0.574,0.984,0.82,2.182,0.943,2.845c0.108,0.605,0.313,1.818,0.108,2.944
			c-0.193,1.133-0.797,2.164-2.305,2.438C37.082,39.577,36.139,38.831,35.563,37.858z M40.8,56.138l-1.36-7.358
			c-0.355,0.479-1.066,1.302-2.247,1.95l-0.324-1.771c0.187-0.107,2.123-1.287,2.411-3.119l1.592-0.296l1.886,10.238L40.8,56.138z
			 M42.328,32.817l-0.296-1.643c0.179-0.096,1.969-1.188,2.251-2.891l1.478-0.271l1.729,9.511l-1.827,0.335l-1.239-6.84
			C44.085,31.459,43.422,32.219,42.328,32.817z M51.506,52.16c-0.206,1.211-0.853,2.334-2.476,2.641
			c-1.64,0.303-2.652-0.499-3.271-1.55c-0.638-1.062-0.875-2.36-1.007-3.066c-0.129-0.684-0.353-1.982-0.148-3.187
			c0.221-1.198,0.864-2.306,2.486-2.603c1.631-0.299,2.628,0.485,3.26,1.533c0.624,1.059,0.895,2.346,1.018,3.065
			C51.498,49.646,51.722,50.94,51.506,52.16z M50.279,35.184c-0.59-0.984-0.806-2.188-0.933-2.844
			c-0.114-0.642-0.321-1.843-0.123-2.962c0.205-1.116,0.814-2.139,2.317-2.413c1.504-0.279,2.437,0.459,3.021,1.433
			c0.579,0.991,0.825,2.192,0.937,2.848c0.117,0.609,0.319,1.814,0.114,2.948c-0.193,1.123-0.797,2.167-2.305,2.438
			C51.792,36.91,50.854,36.165,50.279,35.184z M56.634,53.215l-1.359-7.358c-0.361,0.474-1.071,1.301-2.25,1.946l-0.321-1.768
			c0.182-0.107,2.112-1.283,2.408-3.123l1.595-0.299l1.886,10.238L56.634,53.215z M59.13,28.348
			c-0.325,0.449-0.993,1.208-2.093,1.796l-0.291-1.636c0.167-0.104,1.964-1.191,2.241-2.896l1.482-0.267l1.724,9.512l-1.816,0.328
			L59.13,28.348z M60.436,44.075c0.221-1.205,0.868-2.303,2.49-2.602c1.625-0.303,2.628,0.477,3.262,1.532
			c0.619,1.059,0.884,2.353,1.016,3.062c0.123,0.652,0.353,1.949,0.132,3.162c-0.201,1.226-0.845,2.342-2.47,2.645
			c-1.64,0.303-2.657-0.499-3.271-1.55c-0.638-1.059-0.878-2.357-1.012-3.069C60.451,46.577,60.229,45.272,60.436,44.075z
			 M68.337,65.977c-0.205,1.24-0.859,2.389-2.518,2.695c-1.676,0.318-2.712-0.492-3.35-1.561c-0.654-1.077-0.9-2.403-1.038-3.13
			c-0.132-0.702-0.363-2.018-0.162-3.251c0.215-1.227,0.884-2.36,2.534-2.667c1.66-0.313,2.686,0.492,3.335,1.551
			c0.638,1.08,0.917,2.399,1.051,3.129C68.318,63.41,68.55,64.736,68.337,65.977z M75.249,47.768
			c-0.201,1.227-0.85,2.338-2.467,2.635c-1.639,0.31-2.655-0.481-3.279-1.543c-0.629-1.055-0.875-2.346-1.003-3.062
			c-0.132-0.681-0.358-1.982-0.146-3.184c0.215-1.205,0.868-2.31,2.495-2.605c1.62-0.299,2.617,0.484,3.251,1.537
			c0.624,1.062,0.894,2.345,1.027,3.058C75.244,45.258,75.47,46.556,75.249,47.768z M75.373,32.625
			c-1.519,0.279-2.467-0.462-3.032-1.443c-0.588-0.987-0.805-2.192-0.923-2.848c-0.123-0.638-0.324-1.844-0.137-2.953
			c0.212-1.123,0.816-2.141,2.323-2.417c1.512-0.272,2.436,0.461,3.026,1.429c0.574,0.992,0.82,2.186,0.937,2.854
			c0.114,0.609,0.316,1.807,0.114,2.944C77.482,31.313,76.878,32.357,75.373,32.625z M76.447,41.651
			c0.187-0.106,2.121-1.29,2.406-3.123l1.603-0.296l1.886,10.234l-1.961,0.367l-1.354-7.36c-0.358,0.477-1.077,1.301-2.25,1.938
			L76.447,41.651z M84.487,62.939c-0.201,1.241-0.859,2.392-2.515,2.699c-1.675,0.317-2.711-0.495-3.349-1.565
			c-0.649-1.08-0.9-2.402-1.038-3.13c-0.132-0.698-0.364-2.024-0.157-3.247c0.216-1.237,0.875-2.363,2.534-2.67
			c1.66-0.314,2.677,0.488,3.33,1.554c0.644,1.084,0.92,2.396,1.057,3.123C84.473,60.373,84.708,61.692,84.487,62.939z
			 M84.325,42.87c-0.123-0.677-0.349-1.978-0.137-3.172c0.215-1.205,0.858-2.31,2.489-2.617c1.62-0.295,2.619,0.492,3.256,1.534
			c0.619,1.062,0.89,2.352,1.021,3.065c0.123,0.656,0.344,1.953,0.128,3.169c-0.197,1.216-0.85,2.335-2.47,2.638
			c-1.636,0.296-2.652-0.499-3.276-1.543C84.697,44.88,84.462,43.583,84.325,42.87z M89.728,63.994l-1.414-7.503
			c-0.363,0.496-1.085,1.33-2.29,1.992l-0.338-1.803c0.193-0.107,2.162-1.319,2.451-3.193l1.636-0.307l1.964,10.444L89.728,63.994z
			 M95.764,18.94l1.483-0.267l1.724,9.511l-1.822,0.332l-1.242-6.843c-0.33,0.442-1.002,1.205-2.093,1.804l-0.299-1.649
			C93.686,21.731,95.488,20.642,95.764,18.94z M98.995,43.387c-0.195,1.215-0.844,2.334-2.464,2.638
			c-1.642,0.303-2.658-0.496-3.276-1.543c-0.64-1.062-0.88-2.36-1.013-3.066c-0.123-0.688-0.349-1.986-0.143-3.183
			c0.221-1.208,0.864-2.313,2.49-2.613c1.623-0.303,2.624,0.485,3.256,1.532c0.624,1.062,0.895,2.353,1.027,3.066
			C98.99,40.871,99.216,42.171,98.995,43.387z"/>
	</g>
	<g>
		<path fill="#35308D" d="M23.855,35.47c-1.419,1.857-0.962,1.74-1.685,2.763c0.392,1.975,0.864,2.292,1.433,2.231
			c0.88-0.093,1.032-1.034,0.576-3.533C24.076,36.347,23.963,35.873,23.855,35.47z"/>
	</g>
</g>
<g>
	<g>
		<path fill="#010101" d="M70.488,136.74c-0.379-1.651-1.628-2.538-3.192-2.538c-3.763,0-3.763,4.146-3.763,5.122
			c0,1.412,0.166,2.831,0.804,3.808c0.55,0.848,1.563,1.476,2.918,1.476c2.028,0,2.961-1.541,3.34-3.194l2.964,0.934
			c-0.319,1.183-1.332,4.883-6.281,4.883c-4.107,0-6.894-2.98-6.894-7.699c0-4.207,2.131-7.95,7.058-7.95
			c0.85,0,2.964,0.085,4.64,1.732c0.755,0.763,1.135,1.651,1.433,2.709L70.488,136.74z"/>
		<path fill="#010101" d="M74.807,136.023h3.087l2.595,7.782h0.044l2.538-7.782h3.005l-3.871,10.552
			c-0.042,0.085-0.148,0.399-0.275,0.72c-0.846,2.452-1.442,4.121-4.529,4.121c-0.761,0-1.248-0.078-1.647-0.164l-0.253-2.26
			c0.506,0.103,0.78,0.121,1.225,0.121c0.658,0,1.672-0.086,2.246-2.11L74.807,136.023z"/>
		<path fill="#010101" d="M87.806,146.974v-15.143h2.9v5.461c0.422-0.485,1.417-1.526,3.197-1.526c2.433,0,4.605,1.754,4.605,5.629
			c0,3.932-2.215,5.835-4.587,5.835c-0.656,0-2.238-0.228-3.361-1.86h-0.042v1.604H87.806z M91.659,144.311
			c0.528,0.51,1.163,0.613,1.563,0.613c0.996,0,2.308-0.695,2.308-3.405c0-1.226-0.274-3.529-2.411-3.529
			c-1.353,0-2.431,1.034-2.431,3.255C90.688,142.832,90.962,143.637,91.659,144.311z"/>
		<path fill="#010101" d="M102.972,142.326c0.042,1.312,0.743,2.688,2.39,2.688c1.354,0,1.693-1.016,1.841-1.526l2.898,0.492
			c-0.233,0.67-1.145,3.251-4.78,3.251c-0.954,0-3.492-0.128-4.651-2.623c-0.487-1.056-0.661-2.136-0.661-3.045
			c0-2.958,1.563-5.796,5.037-5.796c4.123,0,5.265,3.322,5.201,6.559H102.972z M107.373,140.55c-0.066-2.395-1.718-2.56-2.155-2.56
			c-1.377,0-2.203,1.119-2.179,2.56H107.373z"/>
		<path fill="#010101" d="M115.174,137.563h0.042c0.615-1.055,1.225-1.797,2.477-1.797c0.633,0,1.393,0.235,1.904,0.527
			l-0.913,2.545c-0.23-0.149-0.804-0.449-1.353-0.449c-1.882,0-1.946,2.16-1.946,5.205v3.379h-2.896v-10.951h2.685V137.563z"/>
		<path fill="#010101" d="M130.424,136.74c-0.381-1.651-1.629-2.538-3.192-2.538c-3.768,0-3.768,4.146-3.768,5.122
			c0,1.412,0.169,2.831,0.804,3.808c0.549,0.848,1.563,1.476,2.918,1.476c2.032,0,2.962-1.541,3.344-3.194l2.962,0.934
			c-0.321,1.183-1.335,4.883-6.283,4.883c-4.103,0-6.896-2.98-6.896-7.699c0-4.207,2.138-7.95,7.065-7.95
			c0.845,0,2.958,0.085,4.628,1.732c0.765,0.763,1.146,1.651,1.441,2.709L130.424,136.74z"/>
		<path fill="#010101" d="M140.997,135.767c3.804,0,5.665,2.923,5.665,5.692c0,3.023-2.115,5.797-5.647,5.797
			c-1.732,0-5.664-0.824-5.664-5.9C135.351,138.747,137.104,135.767,140.997,135.767z M140.997,144.842
			c1.312,0,2.685-0.93,2.685-3.365c0-2.2-1.207-3.301-2.685-3.301c-1.397,0-2.67,1.019-2.67,3.321
			C138.327,143.823,139.623,144.842,140.997,144.842z"/>
		<path fill="#010101" d="M151.589,137.563h0.041c0.617-1.055,1.23-1.797,2.479-1.797c0.632,0,1.394,0.235,1.901,0.527l-0.905,2.545
			c-0.236-0.149-0.808-0.449-1.36-0.449c-1.88,0-1.939,2.16-1.939,5.205v3.379h-2.899v-10.951h2.684V137.563z"/>
		<path fill="#010101" d="M160.066,137.635h0.043c1.118-1.633,2.706-1.868,3.362-1.868c2.367,0,4.588,1.903,4.588,5.842
			c0,3.868-2.177,5.622-4.611,5.622c-1.774,0-2.77-1.037-3.194-1.522v5.436h-2.896v-15.122h2.709V137.635z M162.668,145.013
			c2.137,0,2.406-2.31,2.406-3.536c0-2.709-1.306-3.401-2.301-3.401c-0.403,0-1.038,0.101-1.569,0.613
			c-0.698,0.677-0.975,1.476-0.975,3.066C160.23,143.979,161.314,145.013,162.668,145.013z"/>
		<path fill="#010101" d="M176.732,139.174c-0.361-1.29-1.544-1.333-2.054-1.333c-0.486,0-1.987,0.021-1.987,0.905
			c0,0.321,0.233,0.556,0.549,0.684c0.549,0.211,1.736,0.506,2.453,0.671c1.95,0.47,4.147,1.041,4.147,3.45
			c0,1.711-1.377,3.679-4.992,3.679c-1.059,0-2.812-0.185-4.084-1.326c-0.826-0.745-1.053-1.632-1.16-2.06l2.896-0.439
			c0.338,1.458,1.415,1.754,2.348,1.754c0.251,0,2.09-0.025,2.09-1.205c0-0.639-0.504-0.785-1.183-0.931
			c-3.317-0.723-5.751-1.29-5.751-3.893c0-2.517,2.308-3.365,4.614-3.365c2.597,0,4.227,0.72,4.863,2.898L176.732,139.174z"/>
	</g>
	<g>
		<path fill="#010101" d="M0,163.664L2.418,152.3h3.012c1.556,0,2.522,0,3.51,0.634c1.381,0.884,1.859,2.507,1.859,4.095
			c0,1.811-0.522,3.362-1.59,4.667c-1.617,1.983-3.727,1.968-5.205,1.968H0z M4.353,154.199l-1.604,7.561h1.172
			c1.116,0,2.039,0.029,2.813-0.62c0.524-0.442,1.748-1.696,1.748-4.192c0-2.777-1.62-2.749-2.812-2.749H4.353z"/>
		<path fill="#010101" d="M19.203,161.458c-0.968,1.985-2.604,2.399-3.749,2.399c-2.289,0-3.73-1.608-3.73-3.83
			c0-2.06,1.318-4.793,4.587-4.793c2.606,0,3.285,2,3.285,3.561c0,0.222-0.014,0.898-0.137,1.44h-5.592
			c-0.063,1.29,0.683,2.032,1.605,2.032c1.106,0,1.6-0.888,1.73-1.146L19.203,161.458z M17.583,158.887
			c0.048-1.098-0.348-2.063-1.507-2.063c-1.287,0-1.828,1.283-1.988,2.063H17.583z"/>
		<path fill="#010101" d="M25.969,155.441l-0.335,1.621H24.06l-1.376,6.602H20.46l1.379-6.602h-1.256l0.354-1.621h1.239l0.172-0.856
			c0.253-1.208,0.523-2.478,2.574-2.478c0.521,0,1.299,0.093,2.142,0.364l-0.431,1.604c-0.586-0.207-1.064-0.281-1.285-0.281
			c-0.604,0-0.697,0.395-0.825,1.058l-0.129,0.589H25.969z"/>
		<path fill="#010101" d="M33.161,161.458c-0.966,1.985-2.604,2.399-3.747,2.399c-2.285,0-3.73-1.608-3.73-3.83
			c0-2.06,1.317-4.793,4.593-4.793c2.601,0,3.285,2,3.285,3.561c0,0.222-0.018,0.898-0.142,1.44h-5.593
			c-0.057,1.29,0.685,2.032,1.605,2.032c1.113,0,1.603-0.888,1.731-1.146L33.161,161.458z M31.544,158.887
			c0.05-1.098-0.351-2.063-1.51-2.063c-1.285,0-1.828,1.283-1.981,2.063H31.544z"/>
		<path fill="#010101" d="M37.799,156.471l0.037,0.035c0.652-0.592,1.565-1.272,2.906-1.272c1.632,0,2.174,1.144,2.174,2.127
			c0,0.447-0.116,1.02-0.239,1.634l-0.982,4.669H39.47l0.982-4.684c0-0.032,0.018-0.14,0.05-0.25
			c0.032-0.129,0.064-0.291,0.064-0.32c0.093-0.442,0.093-0.553,0.093-0.664c0-0.844-0.717-0.922-0.956-0.922
			c-0.679,0-1.377,0.574-1.789,1.108c-0.414,0.569-0.51,1.098-0.779,2.353l-0.717,3.379h-2.221l1.73-8.223h2.097L37.799,156.471z"/>
		<path fill="#010101" d="M49.635,162.808l-0.032-0.035c-0.431,0.448-1.221,1.084-2.556,1.084c-1.765,0-2.86-1.234-2.86-3.444
			c0-2.656,1.604-5.162,4.069-5.162c1.651,0,2.283,0.999,2.488,1.302l0.891-4.252h2.221l-2.382,11.364h-2.031L49.635,162.808z
			 M47.889,162.174c1.632,0,2.27-2.11,2.27-3.305c0-1.045-0.638-1.935-1.588-1.935c-1.431,0-2.224,1.935-2.224,3.378
			C46.347,161.332,46.886,162.174,47.889,162.174z"/>
		<path fill="#010101" d="M55.325,155.441h2.219l-1.714,8.223h-2.227L55.325,155.441z M55.987,152.3h2.223l-0.433,1.996h-2.221
			L55.987,152.3z"/>
		<path fill="#010101" d="M61.626,156.471l0.032,0.035c0.651-0.592,1.569-1.272,2.903-1.272c1.639,0,2.176,1.144,2.176,2.127
			c0,0.447-0.112,1.02-0.24,1.634l-0.981,4.669h-2.226l0.987-4.684c0-0.032,0.012-0.14,0.044-0.25
			c0.032-0.129,0.064-0.291,0.064-0.32c0.098-0.442,0.098-0.553,0.098-0.664c0-0.844-0.717-0.922-0.956-0.922
			c-0.685,0-1.38,0.574-1.793,1.108c-0.413,0.569-0.509,1.098-0.775,2.353l-0.716,3.379h-2.225l1.733-8.223h2.092L61.626,156.471z"
			/>
		<path fill="#010101" d="M74.852,155.441h2.098l-1.427,6.858c-0.633,3.047-0.981,4.701-4.428,4.701c-0.941,0-3.831,0-3.513-2.909
			l2.352,0.351c-0.019,0.435,0.139,0.969,1.207,0.969c1.524,0,1.697-0.858,1.968-2.284l0.064-0.368l-0.032-0.028
			c-0.289,0.286-1.11,0.984-2.349,0.984c-1.223,0-2.747-0.763-2.747-3.366c0-3.222,1.889-5.115,3.934-5.115
			c1.031,0,2.034,0.539,2.562,1.65h0.027L74.852,155.441z M71.677,162.032c1.431,0,2.256-1.765,2.256-3.259
			c0-0.998-0.604-1.949-1.554-1.949c-1.572,0-2.174,2.413-2.174,3.304C70.205,161.347,70.82,162.032,71.677,162.032z"/>
		<path fill="#010101" d="M89.324,161.154h-4.509l-1.368,2.51h-2.394l6.428-11.364h2.588l1.861,11.364h-2.225L89.324,161.154z
			 M85.875,159.25h3.162l-0.636-4.577h-0.03L85.875,159.25z"/>
		<path fill="#010101" d="M96.918,156.393l0.031,0.032c0.381-0.379,1.252-1.191,2.542-1.191c0.665,0,1.825,0.146,2.078,1.461
			c0.522-0.766,1.632-1.461,2.891-1.461c1.429,0,2.064,0.874,2.064,1.922c0,0.399-0.099,0.968-0.189,1.475l-1.064,5.033h-2.226
			l1.046-5.033c0.018-0.043,0.05-0.202,0.083-0.35c0.079-0.362,0.142-0.556,0.142-0.712c0-0.286-0.142-0.745-0.844-0.745
			c-0.584,0-1.124,0.395-1.504,0.922c-0.445,0.614-0.672,1.618-0.781,2.186l-0.779,3.731H98.17l1.082-5.111
			c0.11-0.574,0.143-0.714,0.143-0.984c0-0.478-0.35-0.745-0.827-0.745c-0.682,0-1.237,0.553-1.51,0.922
			c-0.397,0.553-0.522,1.191-0.728,2.143l-0.794,3.774h-2.221l1.73-8.223h2.098L96.918,156.393z"/>
		<path fill="#010101" d="M115.229,161.458c-0.973,1.985-2.604,2.399-3.748,2.399c-2.289,0-3.729-1.608-3.729-3.83
			c0-2.06,1.317-4.793,4.588-4.793c2.6,0,3.285,2,3.285,3.561c0,0.222-0.014,0.898-0.143,1.44h-5.587
			c-0.064,1.29,0.679,2.032,1.603,2.032c1.113,0,1.604-0.888,1.732-1.146L115.229,161.458z M113.611,158.887
			c0.046-1.098-0.354-2.063-1.509-2.063c-1.286,0-1.825,1.283-1.985,2.063H113.611z"/>
		<path fill="#010101" d="M119.63,156.997l0.031,0.032c0.573-0.909,1.394-1.796,2.491-1.796c0.477,0,0.812,0.146,1.031,0.238
			l-0.857,1.833c-0.123-0.057-0.303-0.118-0.633-0.118c-0.968,0-1.62,0.846-1.761,1.031c-0.542,0.698-0.78,1.825-1,2.858
			l-0.542,2.588h-2.221l1.711-8.223h2.083L119.63,156.997z"/>
		<path fill="#010101" d="M124.157,155.441h2.22l-1.709,8.223h-2.225L124.157,155.441z M124.822,152.3h2.22l-0.427,1.996h-2.219
			L124.822,152.3z"/>
		<path fill="#010101" d="M133.092,158.217c-0.024-0.299-0.155-1.315-1.329-1.315c-1.729,0-2.35,2.378-2.35,3.699
			c0,1.062,0.635,1.509,1.253,1.509c0.413,0,1.336-0.221,1.793-1.541l2.174,0.351c-0.665,1.778-2.013,2.922-4.014,2.922
			c-2.507,0-3.411-1.796-3.411-3.507c0-2.845,1.87-5.115,4.697-5.115c2.239,0,3.193,1.411,3.32,2.777L133.092,158.217z"/>
		<path fill="#010101" d="M138.167,163.857c-1.269,0-2.367-0.878-2.367-2.399c0-2.463,2.29-2.649,3.349-2.728
			c0.87-0.086,1.688-0.164,2.128-0.32c0.046-0.143,0.148-0.461,0.148-0.75c0-0.599-0.56-0.836-1.148-0.836
			c-0.665,0-1.225,0.238-1.412,0.933l-2.175-0.175c0.639-1.86,2.271-2.349,3.747-2.349c2.903,0,3.142,1.715,3.142,2.21
			c0,0.588-0.128,1.079-0.443,2.505c-0.034,0.129-0.189,0.824-0.207,0.971c-0.13,0.538-0.225,1.112-0.225,1.568
			c0,0.478,0.064,0.763,0.172,1.176h-2.16c-0.104-0.381-0.125-0.521-0.157-0.934C139.799,163.585,138.865,163.857,138.167,163.857z
			 M140.974,159.822c-0.137,0.049-0.207,0.067-0.522,0.1c-1.368,0.17-2.556,0.378-2.556,1.348c0,0.427,0.299,0.905,1.02,0.905
			c1.568,0,1.87-1.38,2.014-2.047L140.974,159.822z"/>
		<path fill="#010101" d="M146.788,152.3h2.259l-0.384,1.761c-0.188,0.905-0.569,2.791-2.828,2.841l0.208-1.03
			c0.716-0.161,1.113-0.493,1.317-1.434h-1.014L146.788,152.3z"/>
		<path fill="#010101" d="M154.758,157.757c-0.348-0.98-1.456-0.98-1.714-0.98c-0.922,0-1.301,0.364-1.301,0.76
			c0,0.496,0.416,0.62,1.56,0.955c1.239,0.36,2.952,0.859,2.952,2.475c0,1.115-0.857,2.892-3.76,2.892
			c-2.116,0-3.562-0.73-4.084-2.493l2.162-0.353c0.266,0.685,0.685,1.305,1.87,1.305c0.793,0,1.556-0.399,1.556-0.952
			c0-0.444-0.173-0.494-1.697-1.016c-1.399-0.478-2.652-0.904-2.652-2.448c0-1.38,1.207-2.667,3.749-2.667
			c1.156,0,3.001,0.238,3.427,2.165L154.758,157.757z"/>
		<path fill="#010101" d="M170.897,155.978c-0.114-0.537-0.367-1.917-2.142-1.917c-2.67,0-3.639,3.141-3.639,4.982
			c0,1.558,0.763,2.859,2.27,2.859c0.888,0,2.209-0.491,2.795-2.331l2.35,0.36c-0.647,1.828-2.188,3.925-5.303,3.925
			c-3.414,0-4.431-2.461-4.431-4.892c0-3.893,2.449-6.858,6.004-6.858c2.064,0,4.032,1.03,4.335,3.655L170.897,155.978z"/>
		<path fill="#010101" d="M174.104,155.441h2.212l0.555,4.095c0.064,0.432,0.064,0.491,0.155,1.305
			c0.066,0.539,0.08,0.685,0.08,0.901h0.036c0.044-0.217,0.174-0.588,0.365-1.015c0.474-1.021,0.519-1.142,0.79-1.651l1.967-3.635
			h2.369l-5.078,9.036c-0.874,1.539-1.431,2.523-3.083,2.523c-0.619,0-1.348-0.178-1.601-0.242l0.207-1.669
			c0.393,0.132,0.684,0.132,0.775,0.132c0.747,0,1.289-0.62,1.682-1.558L174.104,155.441z"/>
		<path fill="#010101" d="M184.146,163.664h-2.031l2.38-11.364h2.224l-0.797,3.807c0.494-0.385,1.177-0.874,2.301-0.874
			c2.079,0,2.876,1.618,2.876,3.411c0,2.96-1.844,5.213-4.083,5.213c-1.762,0-2.396-1.178-2.569-1.541h-0.037L184.146,163.664z
			 M186.688,162.174c1.574,0,2.251-2.161,2.251-3.463c0-1.208-0.715-1.888-1.554-1.888c-1.399,0-2.27,1.742-2.27,3.489
			C185.114,161.25,185.716,162.174,186.688,162.174z"/>
		<path fill="#010101" d="M199.706,161.458c-0.968,1.985-2.601,2.399-3.748,2.399c-2.284,0-3.729-1.608-3.729-3.83
			c0-2.06,1.317-4.793,4.587-4.793c2.606,0,3.289,2,3.289,3.561c0,0.222-0.018,0.898-0.141,1.44h-5.594
			c-0.059,1.29,0.685,2.032,1.604,2.032c1.111,0,1.607-0.888,1.73-1.146L199.706,161.458z M198.091,158.887
			c0.047-1.098-0.353-2.063-1.513-2.063c-1.283,0-1.827,1.283-1.982,2.063H198.091z"/>
		<path fill="#010101" d="M204.11,156.997l0.031,0.032c0.574-0.909,1.396-1.796,2.491-1.796c0.477,0,0.809,0.146,1.031,0.238
			l-0.857,1.833c-0.121-0.057-0.303-0.118-0.631-0.118c-0.974,0-1.622,0.846-1.761,1.031c-0.544,0.698-0.781,1.825-1.008,2.858
			l-0.534,2.588h-2.227l1.717-8.223h2.082L204.11,156.997z"/>
		<path fill="#010101" d="M213.019,157.757c-0.348-0.98-1.464-0.98-1.715-0.98c-0.918,0-1.303,0.364-1.303,0.76
			c0,0.496,0.411,0.62,1.554,0.955c1.239,0.36,2.956,0.859,2.956,2.475c0,1.115-0.857,2.892-3.763,2.892
			c-2.111,0-3.558-0.73-4.079-2.493l2.157-0.353c0.27,0.685,0.683,1.305,1.871,1.305c0.799,0,1.556-0.399,1.556-0.952
			c0-0.444-0.17-0.494-1.698-1.016c-1.394-0.478-2.648-0.904-2.648-2.448c0-1.38,1.203-2.667,3.745-2.667
			c1.16,0,3.005,0.238,3.431,2.165L213.019,157.757z"/>
		<path fill="#010101" d="M219.244,156.285l0.035,0.029c0.429-0.442,1.222-1.081,2.557-1.081c1.757,0,2.859,1.237,2.859,3.443
			c0,2.655-1.606,5.181-4.064,5.181c-1.652,0-2.291-1.021-2.497-1.32l-0.891,4.272h-2.22l2.367-11.368h2.026L219.244,156.285z
			 M220.991,156.916c-1.634,0-2.271,2.114-2.271,3.304c0,1.049,0.638,1.922,1.588,1.922c1.432,0,2.226-1.922,2.226-3.369
			C222.533,157.757,221.991,156.916,220.991,156.916z"/>
		<path fill="#010101" d="M227.933,163.857c-1.27,0-2.366-0.878-2.366-2.399c0-2.463,2.288-2.649,3.351-2.728
			c0.873-0.086,1.681-0.164,2.132-0.32c0.045-0.143,0.139-0.461,0.139-0.75c0-0.599-0.558-0.836-1.141-0.836
			c-0.67,0-1.225,0.238-1.413,0.933l-2.179-0.175c0.637-1.86,2.271-2.349,3.749-2.349c2.903,0,3.146,1.715,3.146,2.21
			c0,0.588-0.128,1.079-0.443,2.505c-0.034,0.129-0.194,0.824-0.207,0.971c-0.129,0.538-0.227,1.112-0.227,1.568
			c0,0.478,0.065,0.763,0.175,1.176h-2.158c-0.107-0.381-0.127-0.521-0.163-0.934C229.569,163.585,228.634,163.857,227.933,163.857z
			 M230.745,159.822c-0.147,0.049-0.206,0.067-0.521,0.1c-1.369,0.17-2.563,0.378-2.563,1.348c0,0.427,0.305,0.905,1.02,0.905
			c1.574,0,1.872-1.38,2.018-2.047L230.745,159.822z"/>
		<path fill="#010101" d="M240.529,158.217c-0.032-0.299-0.16-1.315-1.335-1.315c-1.729,0-2.348,2.378-2.348,3.699
			c0,1.062,0.631,1.509,1.251,1.509c0.412,0,1.335-0.221,1.796-1.541l2.176,0.351c-0.669,1.778-2.019,2.922-4.016,2.922
			c-2.51,0-3.419-1.796-3.419-3.507c0-2.845,1.875-5.115,4.702-5.115c2.238,0,3.191,1.411,3.316,2.777L240.529,158.217z"/>
		<path fill="#010101" d="M250.915,161.458c-0.972,1.985-2.605,2.399-3.747,2.399c-2.286,0-3.729-1.608-3.729-3.83
			c0-2.06,1.315-4.793,4.588-4.793c2.604,0,3.287,2,3.287,3.561c0,0.222-0.018,0.898-0.146,1.44h-5.588
			c-0.063,1.29,0.683,2.032,1.606,2.032c1.11,0,1.6-0.888,1.729-1.146L250.915,161.458z M249.296,158.887
			c0.045-1.098-0.349-2.063-1.51-2.063c-1.284,0-1.824,1.283-1.986,2.063H249.296z"/>
	</g>
	<g>
		<path fill="#010101" d="M192.963,139.402c0,2.859-2.304,5.162-5.158,5.162c-2.855,0-5.172-2.303-5.172-5.162
			c0-2.851,2.317-5.154,5.172-5.154C190.659,134.248,192.963,136.551,192.963,139.402z M183.656,139.402
			c0,2.292,1.86,4.128,4.149,4.128c2.291,0,4.139-1.835,4.139-4.128c0-2.281-1.848-4.117-4.139-4.117
			C185.516,135.286,183.656,137.121,183.656,139.402z M185.463,142.169v-5.479h1.101c2.012,0,2.333,0,2.761,0.317
			c0.385,0.292,0.586,0.759,0.586,1.212c0,0.61-0.365,1.383-1.488,1.534v0.028c0.51,0.192,0.678,0.453,1.165,1.283l0.646,1.105
			h-1.381l-0.454-0.899c-0.647-1.276-0.991-1.354-1.547-1.354h-0.287v2.253H185.463z M186.564,137.56v1.486h0.458
			c0.989,0,1.679,0,1.679-0.756c0-0.73-0.715-0.73-1.679-0.73H186.564z"/>
	</g>
</g>
<g>
</g>
<g>
</g>
<g>
</g>
<g>
</g>
<g>
</g>
<g>
</g>
</svg>
