<?xml version="1.0" encoding="UTF-8"?>
<svg enable-background="new 0 0 1414.601 167" version="1.1" viewBox="0 0 1414.6 167" xml:space="preserve" xmlns="http://www.w3.org/2000/svg" xmlns:cc="http://creativecommons.org/ns#" xmlns:dc="http://purl.org/dc/elements/1.1/" xmlns:rdf="http://www.w3.org/1999/02/22-rdf-syntax-ns#"><metadata><rdf:RDF><cc:Work rdf:about=""><dc:format>image/svg+xml</dc:format><dc:type rdf:resource="http://purl.org/dc/dcmitype/StillImage"/><dc:title/></cc:Work></rdf:RDF></metadata><g fill="#fff"><path d="m340.12 77.197 9.258 2.936c-1.419 5.161-3.779 8.995-7.08 11.5-3.302 2.505-7.489 3.758-12.564 3.758-6.279 0-11.44-2.146-15.483-6.436s-6.064-10.155-6.064-17.596c0-7.871 2.032-13.983 6.097-18.338 4.064-4.354 9.408-6.532 16.031-6.532 5.785 0 10.484 1.709 14.097 5.129 2.15 2.021 3.763 4.925 4.839 8.709l-9.451 2.258c-0.56-2.452-1.727-4.387-3.5-5.806-1.774-1.419-3.931-2.129-6.468-2.129-3.506 0-6.35 1.258-8.532 3.774s-3.273 6.591-3.273 12.226c0 5.979 1.074 10.236 3.226 12.773 2.149 2.538 4.945 3.807 8.387 3.807 2.537 0 4.72-0.807 6.548-2.419s3.136-4.151 3.932-7.614z"/><path d="m351.56 60.327h9.646l8.193 24.322 7.999-24.322h9.388l-12.097 32.966-2.161 5.968c-0.796 2-1.554 3.527-2.274 4.581-0.721 1.053-1.548 1.908-2.483 2.564-0.936 0.656-2.087 1.166-3.452 1.532-1.365 0.365-2.908 0.548-4.629 0.548-1.741 0-3.451-0.183-5.129-0.548l-0.806-7.097c1.419 0.279 2.698 0.419 3.838 0.419 2.107 0 3.666-0.619 4.678-1.855 1.011-1.237 1.784-2.812 2.322-4.726z"/><path d="m390.23 94.583v-47.289h9.064v17.032c2.795-3.182 6.107-4.774 9.936-4.774 4.172 0 7.623 1.511 10.354 4.532 2.73 3.021 4.097 7.36 4.097 13.016 0 5.85-1.393 10.354-4.178 13.516s-6.167 4.742-10.145 4.742c-1.957 0-3.888-0.49-5.79-1.468-1.903-0.979-3.544-2.424-4.92-4.339v5.032zm9-17.87c0 3.548 0.559 6.172 1.678 7.871 1.569 2.409 3.655 3.613 6.258 3.613 2 0 3.704-0.855 5.112-2.564 1.408-1.71 2.113-4.403 2.113-8.081 0-3.914-0.71-6.736-2.129-8.467-1.42-1.731-3.237-2.597-5.452-2.597-2.172 0-3.979 0.844-5.419 2.532-1.442 1.688-2.161 4.252-2.161 7.693z"/><path d="m450.81 83.681 9.032 1.516c-1.162 3.312-2.995 5.833-5.5 7.564-2.506 1.731-5.641 2.597-9.403 2.597-5.957 0-10.365-1.946-13.226-5.839-2.258-3.118-3.387-7.053-3.387-11.806 0-5.677 1.483-10.123 4.451-13.338 2.968-3.214 6.721-4.822 11.258-4.822 5.097 0 9.118 1.683 12.064 5.048 2.946 3.366 4.354 8.521 4.226 15.467h-22.709c0.064 2.688 0.795 4.779 2.193 6.274 1.397 1.495 3.14 2.242 5.226 2.242 1.42 0 2.613-0.387 3.581-1.161 0.968-0.775 1.699-2.022 2.194-3.742zm0.515-9.161c-0.064-2.624-0.741-4.618-2.032-5.983-1.29-1.366-2.86-2.048-4.709-2.048-1.979 0-3.613 0.721-4.903 2.161-1.29 1.441-1.925 3.398-1.903 5.871h13.547z"/><path d="m474.07 94.583h-9.064v-34.256h8.419v4.871c1.44-2.301 2.736-3.817 3.888-4.548 1.149-0.73 2.456-1.097 3.919-1.097 2.064 0 4.054 0.57 5.968 1.709l-2.807 7.903c-1.527-0.989-2.946-1.484-4.258-1.484-1.27 0-2.345 0.35-3.226 1.048-0.882 0.699-1.576 1.962-2.081 3.79s-0.758 5.656-0.758 11.483z"/><path d="m521.43 77.197 9.258 2.936c-1.419 5.161-3.779 8.995-7.08 11.5-3.302 2.505-7.489 3.758-12.564 3.758-6.279 0-11.44-2.146-15.483-6.436s-6.064-10.155-6.064-17.596c0-7.871 2.032-13.983 6.097-18.338 4.064-4.354 9.408-6.532 16.031-6.532 5.785 0 10.484 1.709 14.097 5.129 2.15 2.021 3.763 4.925 4.839 8.709l-9.451 2.258c-0.56-2.452-1.727-4.387-3.5-5.806-1.774-1.419-3.931-2.129-6.468-2.129-3.506 0-6.35 1.258-8.532 3.774s-3.273 6.591-3.273 12.226c0 5.979 1.074 10.236 3.226 12.773 2.149 2.538 4.945 3.807 8.387 3.807 2.537 0 4.72-0.807 6.548-2.419s3.136-4.151 3.932-7.614z"/><path d="m533.41 76.971c0-3.011 0.741-5.924 2.226-8.742 1.483-2.817 3.585-4.968 6.306-6.452 2.721-1.483 5.758-2.226 9.113-2.226 5.182 0 9.43 1.683 12.741 5.048 3.312 3.366 4.968 7.618 4.968 12.758 0 5.183-1.673 9.479-5.017 12.887-3.344 3.409-7.554 5.113-12.628 5.113-3.141 0-6.135-0.71-8.983-2.129-2.851-1.419-5.017-3.5-6.5-6.242-1.485-2.741-2.226-6.08-2.226-10.015zm9.29 0.484c0 3.398 0.806 6 2.419 7.806 1.612 1.806 3.602 2.709 5.968 2.709 2.365 0 4.349-0.903 5.951-2.709 1.602-1.807 2.403-4.43 2.403-7.871 0-3.355-0.802-5.936-2.403-7.742-1.603-1.807-3.586-2.71-5.951-2.71-2.366 0-4.355 0.903-5.968 2.71s-2.419 4.41-2.419 7.807z"/><path d="m581.24 94.583h-9.064v-34.256h8.419v4.871c1.44-2.301 2.736-3.817 3.888-4.548 1.149-0.73 2.456-1.097 3.919-1.097 2.064 0 4.054 0.57 5.968 1.709l-2.807 7.903c-1.527-0.989-2.946-1.484-4.258-1.484-1.27 0-2.345 0.35-3.226 1.048-0.882 0.699-1.576 1.962-2.081 3.79s-0.758 5.656-0.758 11.483z"/><path d="m597.35 60.327h8.452v5.032c1.097-1.72 2.58-3.118 4.451-4.193s3.945-1.613 6.226-1.613c3.979 0 7.354 1.56 10.129 4.677 2.773 3.119 4.161 7.462 4.161 13.032 0 5.721-1.398 10.167-4.193 13.338-2.796 3.172-6.183 4.758-10.161 4.758-1.893 0-3.608-0.377-5.146-1.129s-3.156-2.042-4.854-3.871v17.257h-9.064v-47.288zm8.967 16.548c0 3.85 0.763 6.693 2.29 8.532s3.388 2.758 5.581 2.758c2.107 0 3.859-0.844 5.258-2.532 1.397-1.688 2.097-4.457 2.097-8.306 0-3.591-0.721-6.258-2.161-8-1.441-1.742-3.226-2.613-5.354-2.613-2.216 0-4.055 0.855-5.517 2.564-1.463 1.709-2.194 4.242-2.194 7.597z"/><path d="m633.12 84.81 9.096-1.387c0.388 1.764 1.172 3.103 2.355 4.016 1.182 0.915 2.838 1.371 4.967 1.371 2.344 0 4.107-0.43 5.291-1.291 0.795-0.602 1.193-1.408 1.193-2.419 0-0.688-0.216-1.258-0.646-1.71-0.451-0.43-1.463-0.828-3.032-1.193-7.312-1.613-11.946-3.085-13.902-4.419-2.71-1.849-4.064-4.419-4.064-7.709 0-2.967 1.172-5.462 3.516-7.483s5.979-3.032 10.903-3.032c4.688 0 8.171 0.764 10.451 2.291 2.279 1.527 3.849 3.785 4.709 6.774l-8.548 1.581c-0.366-1.333-1.06-2.355-2.08-3.064-1.022-0.71-2.479-1.064-4.371-1.064-2.387 0-4.097 0.333-5.129 1-0.688 0.473-1.032 1.086-1.032 1.838 0 0.645 0.301 1.194 0.903 1.645 0.816 0.603 3.64 1.452 8.467 2.548 4.828 1.097 8.199 2.441 10.113 4.032 1.892 1.613 2.839 3.86 2.839 6.742 0 3.14-1.312 5.839-3.936 8.097s-6.506 3.387-11.646 3.387c-4.666 0-8.359-0.946-11.08-2.839-2.72-1.895-4.499-4.465-5.337-7.712z"/><path d="m671.49 69.391v-9.064h9.064v9.064zm0 25.192v-9.064h9.064v9.064z"/><path d="m707.75 79.197 9.29-0.903c0.56 3.119 1.693 5.409 3.403 6.871s4.017 2.193 6.919 2.193c3.075 0 5.393-0.65 6.952-1.952 1.559-1.301 2.338-2.822 2.338-4.564 0-1.118-0.328-2.069-0.983-2.854-0.656-0.785-1.802-1.468-3.436-2.048-1.118-0.387-3.667-1.075-7.645-2.064-5.119-1.269-8.71-2.828-10.774-4.677-2.903-2.602-4.354-5.774-4.354-9.516 0-2.408 0.683-4.661 2.048-6.758 1.366-2.097 3.334-3.693 5.903-4.79s5.672-1.645 9.307-1.645c5.935 0 10.402 1.301 13.402 3.903 3 2.603 4.575 6.076 4.726 10.419l-9.548 0.419c-0.409-2.43-1.285-4.177-2.629-5.242-1.345-1.064-3.36-1.597-6.048-1.597-2.774 0-4.947 0.57-6.517 1.709-1.011 0.731-1.516 1.71-1.516 2.936 0 1.119 0.473 2.076 1.419 2.871 1.204 1.011 4.129 2.064 8.774 3.161s8.08 2.231 10.306 3.403 3.968 2.774 5.226 4.807 1.888 4.543 1.888 7.532c0 2.71-0.754 5.248-2.259 7.613-1.505 2.366-3.634 4.124-6.387 5.274s-6.183 1.726-10.29 1.726c-5.979 0-10.569-1.382-13.773-4.145-3.205-2.765-5.118-6.792-5.742-12.082z"/><path d="m782.72 70.455-8.936 1.613c-0.302-1.785-0.984-3.129-2.049-4.032-1.064-0.903-2.446-1.355-4.145-1.355-2.258 0-4.06 0.78-5.403 2.338-1.344 1.56-2.016 4.167-2.016 7.823 0 4.064 0.683 6.935 2.048 8.612 1.365 1.678 3.198 2.516 5.5 2.516 1.72 0 3.129-0.489 4.226-1.468 1.097-0.978 1.871-2.661 2.322-5.048l8.903 1.516c-0.925 4.086-2.699 7.172-5.322 9.258-2.624 2.086-6.14 3.129-10.548 3.129-5.012 0-9.006-1.581-11.984-4.742s-4.467-7.537-4.467-13.128c0-5.656 1.494-10.059 4.483-13.209s7.032-4.726 12.129-4.726c4.172 0 7.488 0.898 9.951 2.693 2.463 1.797 4.232 4.533 5.308 8.21z"/><path d="m797.3 47.294v17.387c2.925-3.419 6.42-5.129 10.484-5.129 2.085 0 3.967 0.387 5.645 1.161s2.94 1.764 3.79 2.968c0.85 1.205 1.43 2.538 1.742 4s0.468 3.731 0.468 6.806v20.096h-9.064v-18.096c0-3.591-0.173-5.871-0.516-6.838-0.345-0.968-0.952-1.736-1.823-2.307-0.871-0.569-1.963-0.854-3.273-0.854-1.506 0-2.851 0.366-4.032 1.097-1.184 0.731-2.049 1.833-2.597 3.306-0.549 1.473-0.823 3.651-0.823 6.532v17.161h-9.063v-47.29z"/><path d="m825.2 76.971c0-3.011 0.741-5.924 2.226-8.742 1.483-2.817 3.585-4.968 6.306-6.452 2.721-1.483 5.758-2.226 9.113-2.226 5.182 0 9.43 1.683 12.741 5.048 3.312 3.366 4.968 7.618 4.968 12.758 0 5.183-1.673 9.479-5.017 12.887-3.344 3.409-7.554 5.113-12.628 5.113-3.141 0-6.135-0.71-8.983-2.129-2.851-1.419-5.017-3.5-6.5-6.242-1.485-2.741-2.226-6.08-2.226-10.015zm9.29 0.484c0 3.398 0.806 6 2.419 7.806 1.612 1.806 3.602 2.709 5.968 2.709 2.365 0 4.349-0.903 5.951-2.709 1.602-1.807 2.403-4.43 2.403-7.871 0-3.355-0.802-5.936-2.403-7.742-1.603-1.807-3.586-2.71-5.951-2.71-2.366 0-4.355 0.903-5.968 2.71s-2.419 4.41-2.419 7.807z"/><path d="m866.33 94.583v-47.289h9.063v47.289z"/><path d="m890.14 70.778-8.226-1.484c0.925-3.312 2.517-5.763 4.774-7.354 2.258-1.591 5.612-2.387 10.064-2.387 4.042 0 7.053 0.479 9.031 1.436 1.979 0.957 3.371 2.172 4.178 3.645s1.21 4.177 1.21 8.113l-0.098 10.58c0 3.011 0.146 5.231 0.436 6.661 0.291 1.431 0.834 2.963 1.629 4.597h-8.967c-0.237-0.602-0.527-1.495-0.871-2.677-0.15-0.538-0.258-0.892-0.322-1.064-1.549 1.505-3.205 2.634-4.968 3.387-1.764 0.752-3.646 1.129-5.646 1.129-3.526 0-6.306-0.957-8.338-2.871s-3.049-4.333-3.049-7.258c0-1.936 0.463-3.661 1.388-5.177 0.924-1.516 2.22-2.677 3.887-3.484 1.666-0.806 4.069-1.511 7.209-2.113 4.236-0.795 7.172-1.537 8.807-2.226v-0.903c0-1.742-0.431-2.984-1.29-3.726-0.86-0.742-2.484-1.113-4.871-1.113-1.613 0-2.871 0.317-3.774 0.951s-1.634 1.747-2.193 3.338zm12.129 7.354c-1.161 0.387-3 0.85-5.516 1.387-2.517 0.538-4.161 1.064-4.936 1.581-1.184 0.838-1.774 1.903-1.774 3.193 0 1.269 0.473 2.366 1.419 3.29 0.946 0.925 2.15 1.387 3.613 1.387 1.634 0 3.193-0.537 4.677-1.613 1.098-0.817 1.817-1.817 2.162-3 0.236-0.774 0.354-2.247 0.354-4.419v-1.806z"/><path d="m927.46 94.583h-9.064v-34.256h8.419v4.871c1.44-2.301 2.736-3.817 3.888-4.548 1.149-0.73 2.456-1.097 3.919-1.097 2.064 0 4.054 0.57 5.968 1.709l-2.807 7.903c-1.527-0.989-2.946-1.484-4.258-1.484-1.27 0-2.345 0.35-3.226 1.048-0.882 0.699-1.576 1.962-2.081 3.79s-0.758 5.656-0.758 11.483z"/><path d="m939.98 84.81 9.096-1.387c0.388 1.764 1.172 3.103 2.355 4.016 1.182 0.915 2.838 1.371 4.967 1.371 2.344 0 4.107-0.43 5.291-1.291 0.795-0.602 1.193-1.408 1.193-2.419 0-0.688-0.216-1.258-0.646-1.71-0.451-0.43-1.463-0.828-3.032-1.193-7.312-1.613-11.946-3.085-13.902-4.419-2.71-1.849-4.064-4.419-4.064-7.709 0-2.967 1.172-5.462 3.516-7.483s5.979-3.032 10.903-3.032c4.688 0 8.171 0.764 10.451 2.291 2.279 1.527 3.849 3.785 4.709 6.774l-8.548 1.581c-0.366-1.333-1.06-2.355-2.08-3.064-1.022-0.71-2.479-1.064-4.371-1.064-2.387 0-4.097 0.333-5.129 1-0.688 0.473-1.032 1.086-1.032 1.838 0 0.645 0.301 1.194 0.903 1.645 0.816 0.603 3.64 1.452 8.467 2.548 4.828 1.097 8.199 2.441 10.113 4.032 1.892 1.613 2.839 3.86 2.839 6.742 0 3.14-1.312 5.839-3.936 8.097s-6.506 3.387-11.646 3.387c-4.666 0-8.359-0.946-11.08-2.839-2.72-1.895-4.5-4.465-5.337-7.712z"/><path d="m987.62 47.294v17.387c2.925-3.419 6.42-5.129 10.484-5.129 2.085 0 3.967 0.387 5.645 1.161s2.94 1.764 3.79 2.968c0.85 1.205 1.43 2.538 1.742 4s0.468 3.731 0.468 6.806v20.096h-9.064v-18.096c0-3.591-0.173-5.871-0.516-6.838-0.345-0.968-0.952-1.736-1.823-2.307-0.871-0.569-1.963-0.854-3.273-0.854-1.506 0-2.851 0.366-4.032 1.097-1.184 0.731-2.049 1.833-2.597 3.306-0.549 1.473-0.823 3.651-0.823 6.532v17.161h-9.063v-47.29z"/><path d="m1017.6 55.682v-8.387h9.063v8.387zm0 38.901v-34.256h9.063v34.257h-9.063z"/><path d="m1034.4 60.327h8.452v5.032c1.097-1.72 2.58-3.118 4.451-4.193s3.945-1.613 6.226-1.613c3.979 0 7.354 1.56 10.129 4.677 2.773 3.119 4.161 7.462 4.161 13.032 0 5.721-1.398 10.167-4.193 13.338-2.796 3.172-6.183 4.758-10.161 4.758-1.893 0-3.608-0.377-5.146-1.129s-3.156-2.042-4.854-3.871v17.257h-9.064v-47.288zm8.967 16.548c0 3.85 0.763 6.693 2.29 8.532s3.388 2.758 5.581 2.758c2.107 0 3.859-0.844 5.258-2.532 1.397-1.688 2.097-4.457 2.097-8.306 0-3.591-0.721-6.258-2.161-8-1.441-1.742-3.226-2.613-5.354-2.613-2.216 0-4.055 0.855-5.517 2.564-1.463 1.709-2.194 4.242-2.194 7.597z"/><path d="m1086.8 60.327h5.032v-2.581c0-2.882 0.306-5.032 0.919-6.452s1.742-2.575 3.387-3.468c1.646-0.892 3.726-1.338 6.242-1.338 2.58 0 5.107 0.387 7.58 1.161l-1.226 6.322c-1.441-0.344-2.828-0.516-4.161-0.516-1.312 0-2.253 0.307-2.822 0.919-0.57 0.613-0.855 1.791-0.855 3.532v2.419h6.774v7.128h-6.774v27.128h-9.063v-27.126h-5.032v-7.128z"/><path d="m1109.3 76.971c0-3.011 0.741-5.924 2.226-8.742 1.483-2.817 3.585-4.968 6.306-6.452 2.721-1.483 5.758-2.226 9.113-2.226 5.182 0 9.43 1.683 12.741 5.048 3.312 3.366 4.968 7.618 4.968 12.758 0 5.183-1.673 9.479-5.017 12.887-3.344 3.409-7.554 5.113-12.628 5.113-3.141 0-6.135-0.71-8.983-2.129-2.851-1.419-5.017-3.5-6.5-6.242-1.485-2.741-2.226-6.08-2.226-10.015zm9.29 0.484c0 3.398 0.806 6 2.419 7.806 1.612 1.806 3.602 2.709 5.968 2.709 2.365 0 4.349-0.903 5.951-2.709 1.602-1.807 2.403-4.43 2.403-7.871 0-3.355-0.802-5.936-2.403-7.742-1.603-1.807-3.586-2.71-5.951-2.71-2.366 0-4.355 0.903-5.968 2.71-1.614 1.807-2.419 4.41-2.419 7.807z"/><path d="m1159.1 94.583h-9.064v-34.256h8.419v4.871c1.44-2.301 2.736-3.817 3.888-4.548 1.149-0.73 2.456-1.097 3.919-1.097 2.064 0 4.054 0.57 5.968 1.709l-2.807 7.903c-1.527-0.989-2.946-1.484-4.258-1.484-1.27 0-2.345 0.35-3.226 1.048-0.882 0.699-1.576 1.962-2.081 3.79s-0.758 5.656-0.758 11.483z"/><path d="m1189.5 79.197 9.29-0.903c0.56 3.119 1.693 5.409 3.403 6.871s4.017 2.193 6.919 2.193c3.075 0 5.393-0.65 6.952-1.952 1.559-1.301 2.338-2.822 2.338-4.564 0-1.118-0.328-2.069-0.983-2.854-0.656-0.785-1.802-1.468-3.436-2.048-1.118-0.387-3.667-1.075-7.645-2.064-5.119-1.269-8.71-2.828-10.774-4.677-2.903-2.602-4.354-5.774-4.354-9.516 0-2.408 0.683-4.661 2.048-6.758 1.366-2.097 3.334-3.693 5.903-4.79s5.672-1.645 9.307-1.645c5.935 0 10.402 1.301 13.402 3.903 3 2.603 4.575 6.076 4.726 10.419l-9.548 0.419c-0.409-2.43-1.285-4.177-2.629-5.242-1.345-1.064-3.36-1.597-6.048-1.597-2.774 0-4.947 0.57-6.517 1.709-1.011 0.731-1.516 1.71-1.516 2.936 0 1.119 0.473 2.076 1.419 2.871 1.204 1.011 4.129 2.064 8.774 3.161s8.08 2.231 10.306 3.403 3.968 2.774 5.226 4.807 1.888 4.543 1.888 7.532c0 2.71-0.754 5.248-2.259 7.613-1.505 2.366-3.634 4.124-6.387 5.274s-6.183 1.726-10.29 1.726c-5.979 0-10.569-1.382-13.773-4.145-3.205-2.765-5.118-6.792-5.742-12.082z"/><path d="m1254.4 83.681 9.032 1.516c-1.162 3.312-2.995 5.833-5.5 7.564-2.506 1.731-5.641 2.597-9.403 2.597-5.957 0-10.365-1.946-13.226-5.839-2.258-3.118-3.387-7.053-3.387-11.806 0-5.677 1.483-10.123 4.451-13.338 2.968-3.214 6.721-4.822 11.258-4.822 5.097 0 9.118 1.683 12.064 5.048 2.946 3.366 4.354 8.521 4.226 15.467h-22.709c0.064 2.688 0.795 4.779 2.193 6.274 1.397 1.495 3.14 2.242 5.226 2.242 1.42 0 2.613-0.387 3.581-1.161 0.968-0.775 1.699-2.022 2.194-3.742zm0.515-9.161c-0.064-2.624-0.741-4.618-2.032-5.983-1.29-1.366-2.86-2.048-4.709-2.048-1.979 0-3.613 0.721-4.903 2.161-1.29 1.441-1.925 3.398-1.903 5.871h13.547z"/><path d="m1278.7 94.583h-9.064v-34.256h8.419v4.871c1.44-2.301 2.736-3.817 3.888-4.548 1.149-0.73 2.456-1.097 3.919-1.097 2.064 0 4.054 0.57 5.968 1.709l-2.807 7.903c-1.527-0.989-2.946-1.484-4.258-1.484-1.27 0-2.345 0.35-3.226 1.048-0.882 0.699-1.576 1.962-2.081 3.79s-0.758 5.656-0.758 11.483z"/><path d="m1305.5 94.583-13.807-34.257h9.517l6.451 17.483 1.871 5.839c0.494-1.484 0.806-2.462 0.936-2.936 0.301-0.968 0.623-1.936 0.967-2.903l6.517-17.483h9.322l-13.612 34.257z"/><path d="m1331.5 55.682v-8.387h9.063v8.387zm0 38.901v-34.256h9.063v34.257h-9.063z"/><path d="m1378.4 70.455-8.936 1.613c-0.302-1.785-0.984-3.129-2.049-4.032-1.064-0.903-2.446-1.355-4.145-1.355-2.258 0-4.06 0.78-5.403 2.338-1.344 1.56-2.016 4.167-2.016 7.823 0 4.064 0.683 6.935 2.048 8.612 1.365 1.678 3.198 2.516 5.5 2.516 1.72 0 3.129-0.489 4.226-1.468 1.097-0.978 1.871-2.661 2.322-5.048l8.903 1.516c-0.925 4.086-2.699 7.172-5.322 9.258-2.624 2.086-6.14 3.129-10.548 3.129-5.012 0-9.006-1.581-11.984-4.742s-4.467-7.537-4.467-13.128c0-5.656 1.494-10.059 4.483-13.209s7.032-4.726 12.129-4.726c4.172 0 7.488 0.898 9.951 2.693 2.463 1.797 4.232 4.533 5.308 8.21z"/><path d="m1403.8 83.681 9.032 1.516c-1.162 3.312-2.995 5.833-5.5 7.564-2.506 1.731-5.641 2.597-9.403 2.597-5.957 0-10.365-1.946-13.226-5.839-2.258-3.118-3.387-7.053-3.387-11.806 0-5.677 1.483-10.123 4.451-13.338 2.968-3.214 6.721-4.822 11.258-4.822 5.097 0 9.118 1.683 12.064 5.048 2.946 3.366 4.354 8.521 4.226 15.467h-22.709c0.064 2.688 0.795 4.779 2.193 6.274 1.397 1.495 3.14 2.242 5.226 2.242 1.42 0 2.613-0.387 3.581-1.161 0.968-0.775 1.699-2.022 2.194-3.742zm0.515-9.161c-0.064-2.624-0.741-4.618-2.032-5.983-1.29-1.366-2.86-2.048-4.709-2.048-1.979 0-3.613 0.721-4.903 2.161-1.29 1.441-1.925 3.398-1.903 5.871h13.547z"/></g><g fill="#fff"><path d="m664.94 41.086c1.551 0 3.038 0.388 4.463 1.163 1.424 0.775 2.543 1.887 3.357 3.334 0.815 1.448 1.223 2.963 1.223 4.545 0 1.574-0.4 3.075-1.198 4.503-0.799 1.428-1.913 2.542-3.341 3.341-1.429 0.798-2.93 1.198-4.504 1.198-1.573 0-3.074-0.399-4.503-1.198s-2.542-1.913-3.341-3.341-1.198-2.929-1.198-4.503c0-1.582 0.407-3.097 1.222-4.545 0.814-1.448 1.935-2.559 3.358-3.334 1.425-0.775 2.913-1.163 4.462-1.163zm0.012 1.77c-1.243 0-2.436 0.311-3.576 0.933-1.142 0.622-2.04 1.515-2.697 2.68s-0.985 2.384-0.985 3.659c0 1.267 0.32 2.475 0.962 3.624 0.641 1.149 1.536 2.046 2.686 2.691 1.148 0.646 2.353 0.968 3.611 0.968 1.268 0 2.474-0.322 3.618-0.968 1.146-0.646 2.04-1.542 2.686-2.691s0.968-2.357 0.968-3.624c0-1.275-0.328-2.495-0.985-3.659s-1.558-2.058-2.703-2.68c-1.146-0.622-2.341-0.933-3.585-0.933zm-4.096 12.112v-9.597h1.948c1.825 0 2.849 8e-3 3.068 0.024 0.646 0.055 1.147 0.183 1.505 0.383 0.358 0.201 0.657 0.508 0.897 0.921s0.36 0.872 0.36 1.375c0 0.693-0.227 1.285-0.679 1.777-0.453 0.492-1.088 0.797-1.906 0.915 0.291 0.11 0.515 0.23 0.673 0.36 0.157 0.13 0.373 0.376 0.648 0.738 0.071 0.094 0.308 0.484 0.709 1.168l1.133 1.936h-2.408l-0.803-1.558c-0.543-1.047-0.991-1.706-1.346-1.978-0.354-0.271-0.803-0.407-1.346-0.407h-0.507v3.943zm1.949-5.454h0.79c1.126 0 1.824-0.043 2.096-0.13s0.485-0.238 0.644-0.455c0.157-0.216 0.235-0.462 0.235-0.738 0-0.267-0.076-0.505-0.229-0.714s-0.372-0.358-0.655-0.449-0.979-0.136-2.09-0.136h-0.79v2.622z" fill="#fff"/></g><g fill="#c8c8c8"><g><path d="m108.84 26.644c-1.445 0.313-2.197 0.235-2.653-8e-3 -0.344 0.307-0.795 0.542-1.396 0.649-1.521 0.278-2.464-0.468-3.038-1.442-0.585-0.985-0.806-2.19-0.923-2.852-0.12-0.636-0.321-1.839-0.128-2.957 0.201-1.086 0.794-2.083 2.219-2.383-3e-3 -3.379 0.959-6.079 0.959-6.079 0.289-0.469 0.49-0.843 0.649-1.141l-1.023-5.197c-0.358 0.057-0.736 0.192-1.042 0.407-1.272 0.957-1.802 1.489-2.906 1.652 0.092 0.643 0.151 1.466 0.019 2.256-0.182 1.17-0.796 2.259-2.363 2.566-1.581 0.306-2.563-0.455-3.177-1.461-0.624-1.02-0.87-2.266-1.003-2.952-0.127-0.656-0.358-1.907-0.171-3.069 0.123-0.69 0.389-1.34 0.903-1.823-1.007-0.979-2.71-0.957-3.684 0.486-0.054 0.699-0.446 0.962-0.628 1.046l1.713 8.781-1.891 0.369-1.384-7.092c-0.339 0.464-1.021 1.264-2.151 1.9l-0.335-1.697c0.104-0.059 0.728-0.46 1.302-1.109-0.929 0.194-2.759 0.491-3.604 0.088-0.237 0-0.497 3e-3 -0.772 3e-3 0.319 0.258 0.585 0.572 0.811 0.929 0.608 1.025 0.884 2.269 1.016 2.951 0.123 0.629 0.353 1.884 0.151 3.061-0.181 1.178-0.795 2.267-2.356 2.569-1.578 0.305-2.568-0.45-3.178-1.458-0.624-1.018-0.87-2.267-1.007-2.956-0.128-0.658-0.353-1.91-0.171-3.069 0.118-0.697 0.392-1.358 0.923-1.839-1.283 0.121-2.781 0.334-4.495 0.675l1.882 9.656-1.896 0.373-1.379-7.099c-0.341 0.467-1.027 1.269-2.157 1.905l-0.334-1.702c0.171-0.097 1.822-1.151 2.23-2.764-1.43 0.339-2.993 0.763-4.711 1.313-0.314 0.077-0.599 0.155-0.889 0.23 0.453 0.272 0.815 0.673 1.1 1.135 0.62 1.019 0.89 2.263 1.026 2.946 0.118 0.636 0.35 1.884 0.154 3.067-0.182 1.176-0.797 2.262-2.363 2.566-1.576 0.312-2.569-0.449-3.173-1.457-0.627-1.024-0.873-2.272-1.007-2.957-0.126-0.661-0.358-1.909-0.171-3.069 0.078-0.466 0.229-0.917 0.476-1.302-1.38 0.294-2.613 0.541-3.925 0.82l1.754 8.976-1.891 0.367-1.385-7.094c-0.339 0.458-1.016 1.269-2.151 1.904l-0.334-1.708c0.143-0.081 1.296-0.812 1.919-1.982-1.334 0.319-2.843 0.708-4.7 1.239 0.193 0.198 0.364 0.423 0.512 0.663 0.619 1.016 0.884 2.266 1.027 2.952 0.123 0.631 0.344 1.88 0.151 3.064-0.182 1.175-0.8 2.26-2.361 2.567-1.583 0.306-2.569-0.453-3.178-1.458-0.635-1.023-0.875-2.271-1.001-2.953-0.133-0.663-0.364-1.913-0.178-3.077 0.016-0.078 0.036-0.155 0.05-0.229-1.116 0.362-2.2 0.722-3.232 1.08l1.494 7.646-1.896 0.364-1.39-7.087c-0.33 0.463-1.016 1.262-2.141 1.9l-0.265-1.346c-0.708 0.258-1.332 0.492-1.824 0.675 0.256 0.706 0.414 1.389 0.503 1.838 0.078 0.416 0.205 1.092 0.224 1.847 0.025 0.427 0.016 0.89-0.053 1.338-0.171 1.177-0.781 2.269-2.333 2.586-1.581 0.332-2.58-0.42-3.204-1.423-0.632-1.012-0.887-2.259-1.03-2.944-0.039-0.214-0.098-0.512-0.148-0.825-0.294 0.352-0.918 0.793-2.205 1.008l0.932 5.169-1.821 0.33-0.998-5.496c-0.737 0.012-1.484 1.007-2.17 1.57-0.718 0.576-1.357 0.763-1.038 2.563 0.923 1.983 3.312 1.463 1.838 2.77-1.032 0.923-3.016-0.064-3.03 1.558-5e-3 1.34 1.527 1.547 1.527 1.547 1.866 0 0.283 3.55 0.176 3.569 0.112 0.146 0.171 0.282 0.25 0.445 0.394 0.855 0.668 1.903 0.786 2.56 0.114 0.613 0.315 1.818 0.114 2.944-0.188 1.134-0.787 2.224-2.299 2.449-1.724 0.25-2.647-0.845-3.021-2.032-1.483 2.117-0.432 5.6-0.432 5.6 0.717 1.455 1.469 1.832 2.068 2.082 0.815 0.413 1.144 0.527 1.919 0.863l0.615-0.021 1.886 10.23-1.964 0.364-1.002-5.436c-0.363 2.62-0.561 5.646-0.708 6.901 0.132 0.096-0.713 5.162-1.076 4.901-0.093 0.129-0.186 0.243-0.3 0.346 0 0-1.665 1.835-1.827 2.976-0.167 1.134-0.23 4.414 1.11 3.543 0.834-0.763 1.959-1.026 2.963-1.368l-0.429-2.289c-0.357 0.484-1.09 1.333-2.289 1.992l-0.334-1.8c0.188-0.107 2.157-1.326 2.447-3.194l1.629-0.31 1.09 5.785c0.546 0.186 1.038 0.428 1.749 0.728 0 0 0.433 0.207 1.307 0.499 0.182 0.067 0.358 0.128 0.525 0.186-0.403-0.916-0.59-1.889-0.702-2.467-0.128-0.705-0.364-2.018-0.157-3.251 0.216-1.226 0.879-2.36 2.534-2.67 1.66-0.317 2.676 0.489 3.33 1.555 0.644 1.08 0.918 2.396 1.055 3.122 0.109 0.617 0.315 1.769 0.182 2.919 1.454-0.605 2.766-1.329 2.83-1.875-0.016-0.442 0.177-0.792 0.51-1.009 0.28-0.225 0.624-0.335 0.982-0.389l-0.535-2.859c-0.358 0.489-1.085 1.337-2.289 1.997l-0.335-1.804c0.188-0.107 2.158-1.326 2.453-3.197l1.625-0.303 1.192 6.353c1.72-0.118 2.221-0.299 3.075-0.299-0.143-0.521-0.236-0.984-0.299-1.326-0.124-0.699-0.364-2.025-0.157-3.248 0.221-1.23 0.884-2.364 2.54-2.677 1.65-0.31 2.676 0.492 3.324 1.555 0.643 1.083 0.918 2.402 1.057 3.126 0.078 0.403 0.191 1.058 0.225 1.779 0.334 0.014 0.757 0.092 1.278 0.328 1.301 0.492 1.418-0.249 3.001 0.125 0.137 0.061 0.318 0.11 0.52 0.16l-1.059-5.598c-0.348 0.485-1.086 1.326-2.283 1.989l-0.334-1.804c0.186-0.106 2.155-1.319 2.446-3.194l1.631-0.299 1.753 9.325c1.609 0.267 3.437 0.471 4.396 0.506 0 0 0.948 0.157 1.748 0.043 0.58-0.043 3.55-0.485 4.706-2.545 0 0 1.257-2.375 2.868-2.956l-0.772-4.11c-0.352 0.492-1.085 1.337-2.283 1.997l-0.338-1.801c0.191-0.11 2.161-1.326 2.451-3.197l1.625-0.307 1.542 8.207c0.384 0.62 0.733 1.468 1.493 2.003 0 0 1.366 0.648 2.147 0.902 0 0 9.229 2.074 12.608 0.855 2.574-0.927 3.182-2.442 3.178-3.925-5e-3 -0.143-0.011-0.306-0.02-0.467 0 0-0.011-0.449-0.142-1.836-0.075-0.741-0.153-1.497-0.196-2.164-0.246-0.724-0.394-1.422-0.478-1.886-0.137-0.698-0.373-2.018-0.163-3.247 0.218-1.23 0.881-2.36 2.535-2.674 1.401-0.26 2.344 0.275 2.997 1.095 0.31-0.115 0.643-0.2 1.012-0.25 1.65 0.085 2.476-1.526 2.803-5.601 0-1.041-0.146-2.106-0.344-3.105-0.574-0.289-1.011-0.759-1.33-1.308-0.64-1.059-0.88-2.353-1.012-3.062-0.123-0.691-0.344-1.982-0.137-3.18 0.21-1.169 0.82-2.231 2.322-2.574 0.375-0.549 0.851-1.041 1.479-1.312 0.962 0 2.166-0.802 2.893-1.79l1.011-1.233s0.26-0.527 1.473-1.276c0.512-0.318 0.85-1.631-0.441-1.743zm-20.437-6.373 1.493-0.271 1.718 9.523-1.826 0.329-1.243-6.843c-0.325 0.442-0.999 1.208-2.083 1.799l-0.303-1.636c0.176-0.098 1.969-1.194 2.244-2.901zm-9.77 3.772c0.21-1.118 0.821-2.141 2.323-2.413 1.513-0.276 2.437 0.455 3.027 1.431 0.573 0.987 0.814 2.185 0.937 2.848 0.109 0.609 0.315 1.811 0.104 2.944-0.182 1.13-0.786 2.167-2.299 2.442-1.522 0.275-2.46-0.47-3.03-1.443-0.589-0.988-0.81-2.193-0.929-2.852-0.118-0.636-0.323-1.84-0.133-2.957zm-12.292 0.239 1.483-0.271 1.724 9.506-1.822 0.334-1.239-6.844c-0.328 0.45-1.001 1.212-2.096 1.811l-0.295-1.643c0.172-0.097 1.964-1.189 2.245-2.893zm-38.727 11.209-0.296-1.64c0.173-0.103 1.97-1.19 2.25-2.902l1.474-0.263 1.734 9.511-1.827 0.328-1.239-6.837c-0.328 0.442-1.002 1.205-2.096 1.803zm5.265 22.105-1.357-7.351c-0.353 0.481-1.066 1.298-2.244 1.943l-0.324-1.762c0.182-0.11 2.112-1.294 2.402-3.125l1.601-0.303 1.886 10.241zm2.68-19.738c-0.588-0.984-0.805-2.188-0.923-2.852-0.117-0.635-0.318-1.84-0.131-2.955 0.21-1.116 0.814-2.146 2.328-2.414 1.502-0.278 2.431 0.457 3.015 1.433 0.574 0.984 0.82 2.182 0.943 2.845 0.108 0.605 0.313 1.818 0.108 2.944-0.193 1.133-0.797 2.164-2.305 2.438-1.516 0.28-2.459-0.466-3.035-1.439zm5.237 18.28-1.36-7.358c-0.355 0.479-1.066 1.302-2.247 1.95l-0.324-1.771c0.187-0.107 2.123-1.287 2.411-3.119l1.592-0.296 1.886 10.238zm1.528-23.321-0.296-1.643c0.179-0.096 1.969-1.188 2.251-2.891l1.478-0.271 1.729 9.511-1.827 0.335-1.239-6.84c-0.339 0.441-1.002 1.201-2.096 1.799zm9.178 19.343c-0.206 1.211-0.853 2.334-2.476 2.641-1.64 0.303-2.652-0.499-3.271-1.55-0.638-1.062-0.875-2.36-1.007-3.066-0.129-0.684-0.353-1.982-0.148-3.187 0.221-1.198 0.864-2.306 2.486-2.603 1.631-0.299 2.628 0.485 3.26 1.533 0.624 1.059 0.895 2.346 1.018 3.065 0.13 0.653 0.354 1.947 0.138 3.167zm-1.227-16.976c-0.59-0.984-0.806-2.188-0.933-2.844-0.114-0.642-0.321-1.843-0.123-2.962 0.205-1.116 0.814-2.139 2.317-2.413 1.504-0.279 2.437 0.459 3.021 1.433 0.579 0.991 0.825 2.192 0.937 2.848 0.117 0.609 0.319 1.814 0.114 2.948-0.193 1.123-0.797 2.167-2.305 2.438-1.515 0.278-2.453-0.467-3.028-1.448zm6.355 18.031-1.359-7.358c-0.361 0.474-1.071 1.301-2.25 1.946l-0.321-1.768c0.182-0.107 2.112-1.283 2.408-3.123l1.595-0.299 1.886 10.238zm2.496-24.867c-0.325 0.449-0.993 1.208-2.093 1.796l-0.291-1.636c0.167-0.104 1.964-1.191 2.241-2.896l1.482-0.267 1.724 9.512-1.816 0.328zm1.306 15.727c0.221-1.205 0.868-2.303 2.49-2.602 1.625-0.303 2.628 0.477 3.262 1.532 0.619 1.059 0.884 2.353 1.016 3.062 0.123 0.652 0.353 1.949 0.132 3.162-0.201 1.226-0.845 2.342-2.47 2.645-1.64 0.303-2.657-0.499-3.271-1.55-0.638-1.059-0.878-2.357-1.012-3.069-0.132-0.678-0.354-1.983-0.147-3.18zm7.901 21.902c-0.205 1.24-0.859 2.389-2.518 2.695-1.676 0.318-2.712-0.492-3.35-1.561-0.654-1.077-0.9-2.403-1.038-3.13-0.132-0.702-0.363-2.018-0.162-3.251 0.215-1.227 0.884-2.36 2.534-2.667 1.66-0.313 2.686 0.492 3.335 1.551 0.638 1.08 0.917 2.399 1.051 3.129 0.129 0.667 0.361 1.993 0.148 3.234zm6.912-18.209c-0.201 1.227-0.85 2.338-2.467 2.635-1.639 0.31-2.655-0.481-3.279-1.543-0.629-1.055-0.875-2.346-1.003-3.062-0.132-0.681-0.358-1.982-0.146-3.184 0.215-1.205 0.868-2.31 2.495-2.605 1.62-0.299 2.617 0.484 3.251 1.537 0.624 1.062 0.894 2.345 1.027 3.058 0.117 0.654 0.343 1.952 0.122 3.164zm0.124-15.143c-1.519 0.279-2.467-0.462-3.032-1.443-0.588-0.987-0.805-2.192-0.923-2.848-0.123-0.638-0.324-1.844-0.137-2.953 0.212-1.123 0.816-2.141 2.323-2.417 1.512-0.272 2.436 0.461 3.026 1.429 0.574 0.992 0.82 2.186 0.937 2.854 0.114 0.609 0.316 1.807 0.114 2.944-0.199 1.122-0.803 2.166-2.308 2.434zm1.074 9.026c0.187-0.106 2.121-1.29 2.406-3.123l1.603-0.296 1.886 10.234-1.961 0.367-1.354-7.36c-0.358 0.477-1.077 1.301-2.25 1.938zm8.04 21.288c-0.201 1.241-0.859 2.392-2.515 2.699-1.675 0.317-2.711-0.495-3.349-1.565-0.649-1.08-0.9-2.402-1.038-3.13-0.132-0.698-0.364-2.024-0.157-3.247 0.216-1.237 0.875-2.363 2.534-2.67 1.66-0.314 2.677 0.488 3.33 1.554 0.644 1.084 0.92 2.396 1.057 3.123 0.124 0.67 0.359 1.989 0.138 3.236zm-0.162-20.069c-0.123-0.677-0.349-1.978-0.137-3.172 0.215-1.205 0.858-2.31 2.489-2.617 1.62-0.295 2.619 0.492 3.256 1.534 0.619 1.062 0.89 2.352 1.021 3.065 0.123 0.656 0.344 1.953 0.128 3.169-0.197 1.216-0.85 2.335-2.47 2.638-1.636 0.296-2.652-0.499-3.276-1.543-0.639-1.064-0.874-2.361-1.011-3.074zm5.403 21.124-1.414-7.503c-0.363 0.496-1.085 1.33-2.29 1.992l-0.338-1.803c0.193-0.107 2.162-1.319 2.451-3.193l1.636-0.307 1.964 10.444zm6.036-45.054 1.483-0.267 1.724 9.511-1.822 0.332-1.242-6.843c-0.33 0.442-1.002 1.205-2.093 1.804l-0.299-1.649c0.171-0.097 1.973-1.186 2.249-2.888zm3.231 24.447c-0.195 1.215-0.844 2.334-2.464 2.638-1.642 0.303-2.658-0.496-3.276-1.543-0.64-1.062-0.88-2.36-1.013-3.066-0.123-0.688-0.349-1.986-0.143-3.183 0.221-1.208 0.864-2.313 2.49-2.613 1.623-0.303 2.624 0.485 3.256 1.532 0.624 1.062 0.895 2.353 1.027 3.066 0.118 0.653 0.344 1.953 0.123 3.169z" fill="#c8c8c8"/><g fill="#fff"><path d="m39.281 45.84c-0.289 1.832-2.224 3.012-2.411 3.119l0.324 1.771c1.181-0.648 1.891-1.472 2.247-1.95l1.36 7.358 1.958-0.356-1.886-10.238z" display="none"/><path d="m47.489 37.523-1.729-9.511-1.478 0.271c-0.282 1.704-2.072 2.795-2.251 2.891l0.296 1.643c1.094-0.599 1.757-1.358 2.096-1.8l1.239 6.84z" display="none"/><path d="m50.352 45.929c-0.632-1.048-1.629-1.833-3.26-1.533-1.622 0.296-2.265 1.404-2.486 2.603-0.205 1.205 0.019 2.502 0.148 3.187 0.131 0.706 0.369 2.004 1.007 3.066 0.619 1.051 1.631 1.854 3.271 1.55 1.623-0.306 2.27-1.429 2.476-2.641 0.216-1.22-9e-3 -2.514-0.137-3.166-0.124-0.721-0.395-2.008-1.019-3.066z" display="none"/><path d="m38.599 39.298c1.508-0.274 2.112-1.305 2.305-2.438 0.205-1.126 0-2.339-0.108-2.944-0.124-0.663-0.369-1.861-0.943-2.845-0.584-0.977-1.513-1.711-3.015-1.433-1.514 0.267-2.118 1.298-2.328 2.414-0.188 1.115 0.014 2.32 0.131 2.955 0.118 0.663 0.335 1.868 0.923 2.852 0.575 0.972 1.518 1.718 3.035 1.439z" display="none"/><path d="m55.112 42.913c-0.296 1.84-2.226 3.016-2.408 3.123l0.321 1.768c1.178-0.646 1.889-1.472 2.25-1.946l1.359 7.358 1.959-0.364-1.886-10.238z" display="none"/><path d="m53.309 36.632c1.508-0.271 2.112-1.315 2.305-2.438 0.205-1.133 3e-3 -2.338-0.114-2.948-0.112-0.656-0.358-1.857-0.937-2.848-0.585-0.973-1.518-1.711-3.021-1.433-1.503 0.274-2.112 1.297-2.317 2.413-0.198 1.12 9e-3 2.321 0.123 2.962 0.126 0.656 0.342 1.86 0.933 2.844 0.573 0.981 1.511 1.726 3.028 1.448z" display="none"/><path d="m31.36 47.301c-0.29 1.832-2.22 3.015-2.402 3.125l0.324 1.762c1.178-0.646 1.891-1.462 2.244-1.943l1.357 7.351 1.964-0.356-1.886-10.241z" display="none"/><path d="m88.549 23.009 1.243 6.843 1.826-0.329-1.718-9.523-1.493 0.271c-0.274 1.706-2.068 2.802-2.244 2.9l0.303 1.636c1.085-0.589 1.759-1.356 2.083-1.798z" display="none"/><path d="m79.698 29.852c0.57 0.973 1.508 1.718 3.03 1.443 1.514-0.275 2.118-1.312 2.299-2.442 0.212-1.134 5e-3 -2.335-0.104-2.944-0.123-0.663-0.364-1.861-0.937-2.848-0.59-0.977-1.514-1.708-3.027-1.431-1.502 0.272-2.112 1.295-2.323 2.413-0.19 1.117 0.015 2.321 0.132 2.957 0.121 0.659 0.342 1.864 0.93 2.852z" display="none"/><path d="m62.193 34.856-1.724-9.512-1.482 0.267c-0.276 1.705-2.073 2.792-2.241 2.896l0.291 1.636c1.1-0.588 1.768-1.348 2.093-1.796l1.247 6.836z" display="none"/><path d="m66.491 27.007 1.239 6.844 1.822-0.334-1.724-9.506-1.483 0.271c-0.28 1.705-2.073 2.796-2.246 2.893l0.295 1.643c1.095-0.599 1.769-1.361 2.097-1.811z" display="none"/><path d="m30.952 40.524 1.827-0.328-1.734-9.511-1.474 0.263c-0.28 1.711-2.077 2.799-2.25 2.902l0.296 1.64c1.094-0.599 1.768-1.361 2.096-1.804z" display="none"/><path d="m88.136 53.486c-0.289 1.875-2.258 3.086-2.451 3.193l0.338 1.803c1.205-0.662 1.927-1.497 2.29-1.992l1.414 7.503 2.008-0.371-1.964-10.444z" display="none"/><path d="m95.907 21.672 1.242 6.843 1.822-0.332-1.724-9.511-1.483 0.267c-0.276 1.702-2.078 2.792-2.25 2.887l0.299 1.649c1.092-0.598 1.764-1.361 2.094-1.803z" display="none"/><path d="m83.293 56.58c-0.652-1.066-1.67-1.868-3.33-1.554-1.659 0.307-2.318 1.433-2.534 2.67-0.207 1.223 0.025 2.549 0.157 3.247 0.137 0.728 0.388 2.05 1.038 3.13 0.638 1.07 1.673 1.882 3.349 1.565 1.656-0.307 2.314-1.458 2.515-2.699 0.221-1.247-0.014-2.566-0.138-3.236-0.137-0.728-0.413-2.039-1.057-3.123z" display="none"/><path d="m88.614 47.486c1.62-0.302 2.272-1.422 2.47-2.638 0.216-1.216-5e-3 -2.513-0.128-3.169-0.132-0.713-0.403-2.003-1.021-3.065-0.638-1.042-1.636-1.829-3.256-1.534-1.631 0.307-2.274 1.412-2.489 2.617-0.212 1.194 0.014 2.495 0.137 3.172 0.137 0.713 0.372 2.011 1.012 3.073 0.622 1.045 1.639 1.84 3.275 1.544z" display="none"/><path d="m97.846 37.152c-0.632-1.047-1.634-1.835-3.256-1.532-1.625 0.299-2.269 1.404-2.49 2.613-0.207 1.197 0.02 2.495 0.143 3.183 0.132 0.706 0.373 2.004 1.013 3.066 0.618 1.047 1.634 1.847 3.276 1.543 1.621-0.303 2.269-1.422 2.464-2.638 0.221-1.216-5e-3 -2.517-0.123-3.169-0.132-0.713-0.403-2.004-1.027-3.066z" display="none"/><path d="m74.099 41.544c-0.634-1.052-1.631-1.836-3.251-1.537-1.627 0.295-2.279 1.4-2.495 2.605-0.212 1.201 0.014 2.503 0.146 3.184 0.128 0.716 0.374 2.007 1.003 3.062 0.624 1.062 1.64 1.854 3.279 1.543 1.617-0.296 2.266-1.408 2.467-2.635 0.221-1.212-5e-3 -2.509-0.123-3.165-0.132-0.711-0.402-1.995-1.026-3.057z" display="none"/><path d="m64.865 51.875c1.625-0.303 2.27-1.419 2.47-2.645 0.221-1.212-9e-3 -2.509-0.132-3.162-0.132-0.71-0.397-2.004-1.016-3.062-0.634-1.055-1.636-1.835-3.262-1.532-1.622 0.299-2.269 1.396-2.49 2.602-0.207 1.198 0.015 2.502 0.146 3.18 0.134 0.712 0.374 2.01 1.012 3.069 0.615 1.05 1.633 1.853 3.272 1.55z" display="none"/><path d="m79.026 41.473 1.354 7.36 1.961-0.367-1.886-10.234-1.603 0.296c-0.285 1.833-2.219 3.016-2.406 3.123l0.33 1.761c1.174-0.638 1.892-1.462 2.25-1.939z" display="none"/><path d="m67.14 59.614c-0.649-1.059-1.676-1.864-3.335-1.551-1.65 0.307-2.319 1.44-2.534 2.667-0.201 1.233 0.03 2.549 0.162 3.251 0.138 0.727 0.384 2.053 1.038 3.13 0.638 1.069 1.674 1.879 3.35 1.561 1.659-0.306 2.313-1.455 2.518-2.695 0.212-1.241-0.02-2.566-0.146-3.233-0.135-0.731-0.415-2.051-1.053-3.13z" display="none"/><path d="m77.68 30.19c0.202-1.138 0-2.335-0.114-2.944-0.117-0.668-0.363-1.862-0.937-2.854-0.59-0.968-1.514-1.702-3.026-1.429-1.507 0.276-2.111 1.294-2.323 2.417-0.187 1.109 0.015 2.315 0.137 2.953 0.118 0.656 0.335 1.861 0.923 2.848 0.565 0.981 1.513 1.722 3.032 1.443 1.506-0.267 2.11-1.311 2.308-2.434z" display="none"/></g></g><path d="m51.114 19.5c0.904-0.181 1.055-1.087 0.543-3.691-0.504-2.605-0.991-3.394-1.889-3.217-0.9 0.175-1.047 1.079-0.537 3.693 0.513 2.609 0.983 3.382 1.883 3.215z"/><path d="m94.914 6.715c0.025 0.207 0.064 0.408 0.109 0.631 0.504 2.601 0.981 3.379 1.875 3.21 0.855-0.169 1.027-1.007 0.62-3.272-0.266-0.023-0.542-0.052-0.856-0.087 0-1e-3 -0.957-0.195-1.748-0.482z"/><path d="m33.968 19.27c0.51 2.604 0.987 3.383 1.88 3.207 0.903-0.175 1.051-1.087 0.551-3.685-0.134-0.679-0.265-1.224-0.397-1.67-0.934 0.063-1.706 0.127-2.294 0.401 0.039 0.475 0.127 1.046 0.26 1.747z"/><path d="m64.551 50.249c0.938-0.171 1.1-1.116 0.605-3.808-0.496-2.701-0.993-3.529-1.931-3.351-0.923 0.171-1.091 1.102-0.59 3.818 0.502 2.706 0.989 3.512 1.916 3.341z"/><path d="m53.594 31.591c-0.452-2.506-0.904-3.279-1.783-3.115-0.855 0.157-1.018 1.02-0.55 3.543 0.452 2.513 0.903 3.262 1.765 3.108 0.873-0.156 1.029-1.033 0.568-3.536z"/><path d="m81.639 13.532c0.904-0.174 1.055-1.09 0.545-3.684-0.512-2.606-0.988-3.401-1.902-3.219-0.889 0.176-1.036 1.073-0.529 3.696 0.51 2.605 0.997 3.383 1.886 3.207z"/><path d="m38.889 34.261c-0.457-2.513-0.904-3.275-1.782-3.119-0.861 0.157-1.013 1.02-0.562 3.547 0.458 2.513 0.909 3.262 1.768 3.104 0.875-0.156 1.027-1.029 0.576-3.532z"/><path d="m66.373 16.516c0.909-0.175 1.057-1.087 0.551-3.685-0.506-2.605-0.993-3.398-1.896-3.219-0.89 0.17-1.047 1.073-0.535 3.688 0.509 2.614 0.987 3.39 1.88 3.216z"/><path d="m71.143 41.623c-0.923 0.185-1.097 1.102-0.59 3.821 0.498 2.709 0.982 3.515 1.916 3.347 0.938-0.174 1.095-1.119 0.605-3.81-0.502-2.706-0.994-3.523-1.931-3.358z"/><path d="m73.884 24.471c-0.864 0.156-1.018 1.01-0.565 3.545 0.457 2.513 0.907 3.254 1.772 3.104 0.87-0.161 1.026-1.026 0.57-3.529-0.456-2.52-0.904-3.286-1.777-3.12z"/><path d="m82.445 29.784c0.868-0.153 1.024-1.034 0.574-3.524-0.462-2.517-0.91-3.283-1.789-3.126-0.855 0.153-1.007 1.019-0.554 3.541 0.457 2.514 0.904 3.27 1.769 3.109z"/><path d="m88.297 45.868c0.939-0.179 1.102-1.116 0.605-3.811-0.496-2.702-0.988-3.525-1.925-3.351-0.929 0.168-1.097 1.098-0.594 3.822 0.502 2.699 0.992 3.508 1.914 3.34z"/><path d="m80.273 56.68c-0.942 0.175-1.11 1.126-0.59 3.9 0.516 2.762 1.016 3.585 1.965 3.407 0.953-0.186 1.124-1.148 0.609-3.889-0.52-2.762-1.027-3.6-1.984-3.418z"/><path d="m94.889 37.245c-0.923 0.171-1.089 1.098-0.584 3.814 0.497 2.703 0.982 3.515 1.91 3.344 0.939-0.171 1.102-1.112 0.604-3.808-0.501-2.705-0.99-3.525-1.93-3.35z"/><path d="m64.124 59.713c-0.948 0.182-1.113 1.13-0.599 3.903 0.526 2.759 1.026 3.583 1.97 3.408 0.962-0.178 1.119-1.147 0.609-3.893-0.526-2.752-1.021-3.599-1.98-3.418z"/><path d="m50.126 68.037c0.029 8e-3 0.054 0.015 0.084 0.019-0.036-0.507-0.12-1.12-0.266-1.879-0.517-2.766-1.027-3.608-1.98-3.422-0.943 0.171-1.114 1.119-0.588 3.9 0.112 0.613 0.225 1.109 0.342 1.54 1.18-0.094 2.393-0.194 2.408-0.158z"/><path d="m47.391 46.014c-0.917 0.171-1.091 1.098-0.584 3.814 0.496 2.709 0.988 3.522 1.916 3.347 0.938-0.167 1.1-1.119 0.605-3.804-0.508-2.708-0.989-3.528-1.937-3.357z"/><path d="m33.183 73.092c0.353-0.064 0.599-0.242 0.747-0.578-0.619 0.199-1.161 0.346-1.504 0.407h-0.015c0.226 0.171 0.472 0.224 0.772 0.171z" display="none"/><path d="m33.929 72.514c0.24-0.563 0.185-1.583-0.137-3.308-0.523-2.763-1.027-3.593-1.98-3.422-0.948 0.178-1.114 1.133-0.59 3.903 0.349 1.89 0.702 2.859 1.188 3.233h0.015c0.344-0.06 0.886-0.207 1.504-0.406z"/><path d="m102.74 22.676c0.453 2.511 0.906 3.266 1.764 3.108 0.314-0.062 0.535-0.221 0.668-0.508-1.371-1.891-1.98-4.03-2.171-6.044-0.588 0.309-0.658 1.248-0.261 3.444z"/></g><g fill="#fff"><path d="m121.82 107.24c-8.61 0.734-15.697 5.839-26.541 5.448-1.091-0.157-0.758-1.74-2.039-1.701-0.138-1.001-1.611-0.667-2.042-1.365-6.745 0.52-12.967 0.955-20.761 1.027-1.165-0.999-2.943-1.369-3.738-2.717-4.101 1.002-8.796 1.419-12.598 2.717-1.558 0.505-3.007 0.841-4.736 0.962-5.304 0.334-15.283-0.631-17.754 0.11-2.707 0.809-4.322 0.239-6.09 1.985-0.938 0.57-4.913 0.998-7.147 1.704-2.071 0.507-3.942 0.507-6.13 0-2.572-1.668-4.739-3.821-4.42-7.479 0.481-2.677 3.32-6.188 6.126-6.812 11.414-2.423 24.621-3.047 36.408-5.104 2.263-0.399 10.427-2.334 15.314-2.377 2.755 0.015 7.52 1.979 8.852 2.039 6.938 0.213 15.185-2.392 19.39 1.697 0.525 0.393 1.542 0.207 2.381 0 0.825-0.064 7.559-2.096 15.118-3.044 0.736-0.093 1.832-0.627 2.725-0.827 10.625-2.499 19.773-1.555 20.957-1.907 4.731-2.029 14.402-1.166 18.713 1.015 0.291 0.171 0.556 0.279 1.116-0.263 0.471-0.243 0.632-0.663 1.405-1.23 1.552-0.674 1.149 2.118 2.583 1.833 2.353 0.313 2.75-1.152 4.794-1.152 1.611 0.015 9.769 6.103 14.601 9.322 1.051 1.073 0.104 2.588 0.678 3.405 0.069 0.542 5.874-0.406 8.512 0.335 0.708 0.584-0.579 1.946 0 2.38 3.665 1.726 9.238 0.806 13.272 0 1.23-0.324 0.283 1.53 1.359 1.365 3.063 0.015 4.552-0.495 6.463 0.681 1.278 0.812 8.222-1.518 11.853-0.139 1.069 0.952 0.731 2.05 0.401 2.863-0.594 1.682-2.432 2.36-4.086 2.724-5.643 1.069-10.898 0.691-11.571 1.012-1.267 0.663-2.545 1.233-4.081 1.704-1.188 0.513-14.793 2.592-14.976 1.704 0.039-1.283 1.542-0.235 0.683-1.704-0.904-1.03-2.691-0.613-4.018-0.891-0.845-0.25-2.647-1.38-3.67-2.566-1.163-1.309-1.262-3.354-2.856-4.025-2.417-0.225-3.267 1.301-4.431 1.02-1.675-0.118-5.584-3.86-8.079-4.089-5.128-0.242-9.587 0.91-14.352 0.292-1.384-0.402 0.177-1.476-1.046-1.65-1.783 0.566-1.105-1.023-2.381-0.681-2.299 1.247-6.513 1.201-8.507 3.072-1.734 0.613-4.316 0.663-6.124 1.355-1.846 0.506-7.008 0.795-8.698-0.235-0.955-0.758-0.125-1.641-0.832-1.813z"/><path d="m100.88 76.072c5.781-4.2 14.608-4.866 24.68-4.766 2.191 0.149 2.266-0.646 4.809-1.023 2.373-0.339 3.508-1.227 5.663-1.476 15.501-1.298 29.72-0.906 33.762 0.42 14.41 5.254 13.202 11.115 14.67 12.512 1.705 1.628 6.896-0.93 7.785 0.334 0.771 1.237 3.335 0.307 4.591 2.503 0.615 1.027 10.488-0.816 11.229 0.338 0.372 0.581 0.019 0.81 0.333 1.365 0.31 0.713 4.705-0.52 6.468-1.365 0.648-0.299 1.215-0.755 2.728 0 2.789 1.523 9.63-0.332 10.205 2.72 0.589 3.586-4.195 2.837-6.12 4.431-0.638 0.456-2.141 0.289-3.407 0-1.165-0.26 0.255 1.455-4.401 1.169-7.545-0.371-7.911 2.663-12.877 2-0.562-0.143-0.621-0.446-1.779-0.792-1.001-0.164-1.905-0.075-3.061 1.02-0.432 0.328-1.35 0.685-1.737 0.685-1.995 0-2.521-0.813-3.366-1.027-0.981-0.827-2.16-1.262-3.402-2.04-1.827-0.755-2.5-1.269-3.065-2.38-0.487-0.874 0.167-2.342-1.021-3.066-1.592-0.642-2.952-0.072-4.656-0.289-1.701-0.353-1.701-1.769-2.78-1.936-1.08-0.286-1.698-1.341-2.431-1.854-1.911-0.321-2.303 0.87-3.743 1.019h-10.888c-1.478-0.228-2.205-1.005-3.743-1.361-2.784-0.642-3.702-0.321-6.645 0.663-0.433 0.271-0.796 0.392-1.184 0.698-0.576 0.663-3.429 0.656-6.415 0.396-1.248-0.075-2.269 0.203-3.178 0.553-3.738 1.693-16.331-0.685-19.332 0.755-4.322 2.146-10.505 2.332-14.072 4.164-1.542 0.606-5.553 0.92-9.861-1.882-2.442-1.344-6.513-0.862-7.716 0.435-1.248 0.441-2.495 0.385-4.082 0-3.522-0.756-6.021-2.681-7.486-2.717-1.648-0.024-8.751 2.453-13.609 1.355-4.381-0.178-6.985 1.291-11.232 1.362-2.506-0.2-7.039-1.833-8.84-1.02-2.221 0.62-3.925 2.466-5.788 2.724-1.198 0.495-6.359-0.649-10.539 1.618-1.606 1.255-7.956 1.083-9.195 0.763-0.913-0.1-1.601-0.642-2.387-1.361-1.021-1.276-1.021-2.338-1.021-3.743 0.05-1.769 0.674-2.909 1.016-4.385 0.497-0.991 2.265-4.138 8.169-5.817 6.459-1.48 13.643-1.181 14.98-1.369 1.262-0.207 1.609-0.948 3.059-1.358 1.357-0.171 2.447 0.267 3.404 0 8.068-2.25 16.251-3.09 27.058-2.613 2.824 0.189 9.705-0.606 10.735-0.149 5.816 2.616 7.329 0.948 9.161 1.058 1.389 0.086 2.071 0.881 3.064 1.358 3.508-0.063 7.025 1.634 7.49 1.371z"/><path d="m189.05 58.825c6.119-1.019 10.069 0.774 13.61 3.743 1.542 1.44 24.642-2.384 34.369 2.039 0.708 0.31 0.822 1.711 0 2.381-2.975 2.125-10.897 3.412-11.909 3.408-7.422 0.381-17.214 3.708-18.714 3.743-1.507 0.028-1.423-1.533-2.725-1.704-1.852 0.193-2.059 2.025-4.082 2.046-1.178 0-1.718-1.847-2.392-1.654-2.923 0.449-3.629-0.728-4.759-1.419-3.787-2.331-4.73-5.546-5.486-5.889-1.287-0.87-7.495 1.177-6.42-2.952 0.826-2.042-17.284 0.685-20.682-0.478-2.578-0.795-2.662-1.753-3.486-1.564-0.728 0.217-1.077 0.73-2.373 0.677-7.038-0.452-12.253 0.917-17.018 2.728-1.061 0.263-2.24 0.232-3.405 0-1.547-0.563-1.896-1.319-2.72-1.362-1.292 0.043-2.883 1.255-8.163 0.678-2.093-0.182-2.957 1.105-5.791 1.027-1.252 0.078-0.805 1.008-1.7 1.354-1.62 0.642-3.221 0.2-5.441 1.361-2.74 1.017-9.651 0.278-10.824-0.67-0.555-0.378-1.175-1.066-1.424-3.073-0.232-2.481 0.25-4.41 0.462-5.262 0.19-0.613 0.962-1.91 1.576-2.224 4.813-1.765 11.718-4.837 13.467-4.755 0.839-0.136 1.262-1.098 1.847-1.027 0.938 0.114 1.882-0.749 3.065-0.685 3.281 0.652 6.379-0.713 7.484-0.677 13.061 1.312 23.354-4.207 35.048-1.02h2.383c1.482 0.061 1.743-0.902 3.747-1.026 2.579 1.347 3.684 0.385 7.142 0.349 2.717 0.075 5.889 1.547 6.832 2.04 0.875 0.224 4.759 4.748 6.203 7.393 0.604 1.081 1.174 2.593 2.279 2.474z"/><path d="m166.43 0.335c0.91 1.023-0.289 1.418 0.335 1.883 0.574 0.558 1.547 0.05 3.06 0 1.424 0.05 2.504 0.103 4.085 1.361 0.688 0.617 1.341 1.289 1.567 2.034 0.556 1.024 1.18 1.379 1.792 1.914 2.627 2.139 4.048 5.987 5.402 6.909 1.111 0.814 2.244 0.357 3.488 1.736 0.972 1.012 11.801-1.1 17.587-0.015 1.415 0.399 2.344 0.993 2.937 1.217 1.485 0.88 7.33 2.699 8.398 2.541 2.104-0.013 5.992-1.253 8.513-1.358 3.05-0.099 5.089-0.828 7.484 0 1.243 0.369 2.728 1.8 3.742 1.019 6.298-4.609 8.646 0.668 14.632 0.339 1.247-0.066 3.296 1.604 5.104 2.041 3.502 0.56 7.146-0.144 10.726-0.437 1.076-0.05 3.91-0.597 3.91 1.117-0.072 1.432-2.097 3.786-3.407 4.083-1.485 0.216-2.657 0.95-4.082 1.021-6.405 0.328-12.25 0-18.374 0-0.855-0.057-10.698 2.185-13.61 1.02-0.481 0.092-2.372 0.841-3.403 0.342-2.283 1.291-5.393 2.203-7.829 2.381-1.071 0.064-2.761 1.782-2.381 1.361-0.767 0.663-2.56 0.296-3.404 0-0.674-0.691-0.938-0.833-0.339-2.042-2.691 0.253-3.552 1.301-5.978 2.192-1.553 0.324-2.726 0.25-3.36-0.079-0.806-0.545-1.547-0.834-2.003-1.561-0.633-0.542-3.797-0.962-4.868-1.38-3.653-2.142-9.646-2.021-11.011-4.275-0.678-1.599-2.608-1.769-2.726-2.724 0-0.566 0.064-1.458-1.066-1.864-2.465-0.506-4.031 0.888-5.397 0.168-1.583-0.982-2.574-2.193-3.748-3.407-1.371-0.235-1.566 0.701-2.381 1.02-2.875-0.729-5.939 0.09-8.842-0.337-2.194-1.132-3.173-1.658-5.044-1.95-2.155-0.123-5.221 0.459-6.753 1.371-1.699 0.851-5.559 3.146-9.979 2.619-0.672 0.106-0.683-0.455-1.027-0.681-0.672-1.26-3.738 0.557-5.785 0.34-2.146-0.13-7.028 4.41-8.846 4.085-1.625-0.157-1.639 0.839-3.402 1.021-1.018 0.201-3.606-0.259-4.529-0.018-1.185-0.04-7.265 2.104-7.722-4.064-0.083-4.342-0.309-5.686 0.678-8.854 0.29-0.745 1.596-2.215 3.065-2.381 5.447 0.166 7.951-2.442 12.427-3.073 1.87-0.114 2.607-2.295 7.936-2.295 0.907-0.029 1.99-1.054 3.118-1.099 1.361-0.011 5.167-0.42 5.788-0.69 2.952-1.361 7.238-0.572 9.184-2.371 1.262-0.732 4.37-0.407 4.37-0.407 0.795 0.224 1.586 1.361 2.098 1.766 0.683 0.444 5.162-0.046 6.468-1.358 0 3e-3 2.042-1.03 3.402-0.181z"/></g><g fill="none"><path d="m39.281 45.84c-0.289 1.832-2.224 3.012-2.411 3.119l0.324 1.771c1.181-0.648 1.891-1.472 2.247-1.95l1.36 7.358 1.958-0.356-1.886-10.238z"/><path d="m47.489 37.523-1.729-9.511-1.478 0.271c-0.282 1.704-2.072 2.795-2.251 2.891l0.296 1.643c1.094-0.599 1.757-1.358 2.096-1.8l1.239 6.84z"/><path d="m38.599 39.298c1.508-0.274 2.112-1.305 2.305-2.438 0.205-1.126 0-2.339-0.108-2.944-0.124-0.663-0.369-1.861-0.943-2.845-0.584-0.977-1.513-1.711-3.015-1.433-1.514 0.267-2.118 1.298-2.328 2.414-0.188 1.115 0.014 2.32 0.131 2.955 0.118 0.663 0.335 1.868 0.923 2.852 0.575 0.972 1.518 1.718 3.035 1.439z"/><path d="m53.309 36.632c1.508-0.271 2.112-1.315 2.305-2.438 0.205-1.133 3e-3 -2.338-0.114-2.948-0.112-0.656-0.358-1.857-0.937-2.848-0.585-0.973-1.518-1.711-3.021-1.433-1.503 0.274-2.112 1.297-2.317 2.413-0.198 1.12 9e-3 2.321 0.123 2.962 0.126 0.656 0.342 1.86 0.933 2.844 0.573 0.981 1.511 1.726 3.028 1.448z"/><path d="m50.352 45.929c-0.632-1.048-1.629-1.833-3.26-1.533-1.622 0.296-2.265 1.404-2.486 2.603-0.205 1.205 0.019 2.502 0.148 3.187 0.131 0.706 0.369 2.004 1.007 3.066 0.619 1.051 1.631 1.854 3.271 1.55 1.623-0.306 2.27-1.429 2.476-2.641 0.216-1.22-9e-3 -2.514-0.137-3.166-0.124-0.721-0.395-2.008-1.019-3.066z"/><path d="m55.112 42.913c-0.296 1.84-2.226 3.016-2.408 3.123l0.321 1.768c1.178-0.646 1.889-1.472 2.25-1.946l1.359 7.358 1.959-0.364-1.886-10.238z"/><path d="m88.549 23.009 1.243 6.843 1.826-0.329-1.718-9.523-1.493 0.271c-0.274 1.706-2.068 2.802-2.244 2.9l0.303 1.636c1.085-0.589 1.759-1.356 2.083-1.798z"/><path d="m79.698 29.852c0.57 0.973 1.508 1.718 3.03 1.443 1.514-0.275 2.118-1.312 2.299-2.442 0.212-1.134 5e-3 -2.335-0.104-2.944-0.123-0.663-0.364-1.861-0.937-2.848-0.59-0.977-1.514-1.708-3.027-1.431-1.502 0.272-2.112 1.295-2.323 2.413-0.19 1.117 0.015 2.321 0.132 2.957 0.121 0.659 0.342 1.864 0.93 2.852z"/><path d="m30.952 40.524 1.827-0.328-1.734-9.511-1.474 0.263c-0.28 1.711-2.077 2.799-2.25 2.902l0.296 1.64c1.094-0.599 1.768-1.361 2.096-1.804z"/><path d="m66.491 27.007 1.239 6.844 1.822-0.334-1.724-9.506-1.483 0.271c-0.28 1.705-2.073 2.796-2.246 2.893l0.295 1.643c1.095-0.599 1.769-1.361 2.097-1.811z"/><path d="m31.36 47.301c-0.29 1.832-2.22 3.015-2.402 3.125l0.324 1.762c1.178-0.646 1.891-1.462 2.244-1.943l1.357 7.351 1.964-0.356-1.886-10.241z"/><path d="m64.865 51.875c1.625-0.303 2.27-1.419 2.47-2.645 0.221-1.212-9e-3 -2.509-0.132-3.162-0.132-0.71-0.397-2.004-1.016-3.062-0.634-1.055-1.636-1.835-3.262-1.532-1.622 0.299-2.269 1.396-2.49 2.602-0.207 1.198 0.015 2.502 0.146 3.18 0.134 0.712 0.374 2.01 1.012 3.069 0.615 1.05 1.633 1.853 3.272 1.55z"/><path d="m95.907 21.672 1.242 6.843 1.822-0.332-1.724-9.511-1.483 0.267c-0.276 1.702-2.078 2.792-2.25 2.887l0.299 1.649c1.092-0.598 1.764-1.361 2.094-1.803z"/><path d="m62.193 34.856-1.724-9.512-1.482 0.267c-0.276 1.705-2.073 2.792-2.241 2.896l0.291 1.636c1.1-0.588 1.768-1.348 2.093-1.796l1.247 6.836z"/><path d="m88.136 53.486c-0.289 1.875-2.258 3.086-2.451 3.193l0.338 1.803c1.205-0.662 1.927-1.497 2.29-1.992l1.414 7.503 2.008-0.371-1.964-10.444z"/><path d="m97.846 37.152c-0.632-1.047-1.634-1.835-3.256-1.532-1.625 0.299-2.269 1.404-2.49 2.613-0.207 1.197 0.02 2.495 0.143 3.183 0.132 0.706 0.373 2.004 1.013 3.066 0.618 1.047 1.634 1.847 3.276 1.543 1.621-0.303 2.269-1.422 2.464-2.638 0.221-1.216-5e-3 -2.517-0.123-3.169-0.132-0.713-0.403-2.004-1.027-3.066z"/><path d="m88.614 47.486c1.62-0.302 2.272-1.422 2.47-2.638 0.216-1.216-5e-3 -2.513-0.128-3.169-0.132-0.713-0.403-2.003-1.021-3.065-0.638-1.042-1.636-1.829-3.256-1.534-1.631 0.307-2.274 1.412-2.489 2.617-0.212 1.194 0.014 2.495 0.137 3.172 0.137 0.713 0.372 2.011 1.012 3.073 0.622 1.045 1.639 1.84 3.275 1.544z"/><path d="m83.293 56.58c-0.652-1.066-1.67-1.868-3.33-1.554-1.659 0.307-2.318 1.433-2.534 2.67-0.207 1.223 0.025 2.549 0.157 3.247 0.137 0.728 0.388 2.05 1.038 3.13 0.638 1.07 1.673 1.882 3.349 1.565 1.656-0.307 2.314-1.458 2.515-2.699 0.221-1.247-0.014-2.566-0.138-3.236-0.137-0.728-0.413-2.039-1.057-3.123z"/><path d="m74.099 41.544c-0.634-1.052-1.631-1.836-3.251-1.537-1.627 0.295-2.279 1.4-2.495 2.605-0.212 1.201 0.014 2.503 0.146 3.184 0.128 0.716 0.374 2.007 1.003 3.062 0.624 1.062 1.64 1.854 3.279 1.543 1.617-0.296 2.266-1.408 2.467-2.635 0.221-1.212-5e-3 -2.509-0.123-3.165-0.132-0.711-0.402-1.995-1.026-3.057z"/><path d="m79.026 41.473 1.354 7.36 1.961-0.367-1.886-10.234-1.603 0.296c-0.285 1.833-2.219 3.016-2.406 3.123l0.33 1.761c1.174-0.638 1.892-1.462 2.25-1.939z"/><path d="m77.68 30.19c0.202-1.138 0-2.335-0.114-2.944-0.117-0.668-0.363-1.862-0.937-2.854-0.59-0.968-1.514-1.702-3.026-1.429-1.507 0.276-2.111 1.294-2.323 2.417-0.187 1.109 0.015 2.315 0.137 2.953 0.118 0.656 0.335 1.861 0.923 2.848 0.565 0.981 1.513 1.722 3.032 1.443 1.506-0.267 2.11-1.311 2.308-2.434z"/><path d="m67.14 59.614c-0.649-1.059-1.676-1.864-3.335-1.551-1.65 0.307-2.319 1.44-2.534 2.667-0.201 1.233 0.03 2.549 0.162 3.251 0.138 0.727 0.384 2.053 1.038 3.13 0.638 1.069 1.674 1.879 3.35 1.561 1.659-0.306 2.313-1.455 2.518-2.695 0.212-1.241-0.02-2.566-0.146-3.233-0.135-0.731-0.415-2.051-1.053-3.13z"/></g><path d="m218.26 39.89c1.478 0 3.068-0.161 3.638 0.264 0.57 0.371 0.398 0.62 0.791 0.756h3.404c-0.035-0.806 3.634-1.84 3.741 0 0.232 0.998 1.568-0.1 2.157 1.454 0.456 1.188 3.502-0.364 5.335-0.627 1.11-0.092 1.394 0.838 2.372 0.877 3.491 0.039 6.474-0.535 8.456 0.656 1.764 2.302 0.801 3.914 0.054 4.448-1.133 0.603-10.388 1.961-17.631 2.243-3.404 0.096-5.619-0.514-6.528-0.204-0.756 0.421-1.129 1.283-2.661 1.283-2.741 0.028-4.204 1.615-8.228 1.441-0.397 0.05 0.06 0.663-0.338 1.026-3.836 0.649-4.65-1.704-8.512-1.026-0.545 1.493-4.722 2.263-4.822 0.919-0.109-2.274-2.51-1.312-4.706-1.262-2.185-0.603-3.133-2.011-5.103-2.716-0.914-0.471-3.458-3.016-3.743-3.408-2.25-1.95-3.349-4.149-6.778-4.916-0.481 0.072-0.708-0.188-0.708-0.524-0.643-0.952-3.157-1.269-4.085-1.026-4.985 0.642-12.549 0.752-13.61 0-0.954-0.524-1.307-1.64-1.7-2.717-0.377-0.423-0.982 0.563-1.737 0.977-1.4 1.02-2.524 1.611-3.629 2.153-2.609 1.062-7.033 1.933-12.628 1.547-1.268-0.125-0.929 1.123-2.426 0.767-0.673-0.196-2.604-4.282-5.447-1.365-0.447 0.456-2.831-0.457-4.42 0.342-0.354 0.185-0.64 1.126-1.164 1.166-1.745 0.196-15.162 4.303-16.866 3.939-1.661-0.421-3.827-0.813-4.465-4.007-0.236-1.404-0.19-1.618-0.19-2.641 0-1.248 0.721-3.365 1.444-4.303 0.76-1.312 5.766-5.86 7.238-6.487 1.247-0.734 4.784-1.312 8.42-1.294 1.34 0.046 3.196-0.325 3.835-0.41 1.369-0.11 1.59-0.303 2.435-0.729 0.232-0.396 0.433-1.012 1.018-1.228 7.676 0.088 13.291-1.904 21.099-1.695 0.526-0.121 0.722 0.111 1.365 0.025 0.795 0 1.517-0.381 1.93-0.849 2.353-2.062 7.165-0.765 11.395-0.962 1.327-0.087 2.2 1.105 4.023 1.101 0.854-0.023 1.547 0.031 2.16-0.763 0.792-0.568 1.189-0.588 1.586-0.595 0.904 0 1.307 0.71 1.357 1.698 0.063 0.995 4.204 3.151 6.812 4.513 1.586 0.738 2.652 2.478 2.716 3.989 0.054 0.403 0.574 0.977 0.854 1.568 0.377 2.004-0.048 3.754 1.527 4.56 1.184-0.096-0.028-0.923 0.683-1.016 1.273-0.199 2.407 0.539 3.085-0.477 1.021-1.134 3.522-0.728 4.027 0.427 0.318 0.906 2.196 2.175 4.293 2.41 2.622 0.517 4.538 0.791 7.199 0.898 1.589 0.463 3.301 1.318 3.853 1.843 1.188 0.859 2.819 0.182 3.979-0.196 1.474-0.353 2.014-0.734 3.166-0.827 1.188-0.097-0.03-0.917 0.678-1.02z" fill="#fff"/><g fill="#c8c8c8"><path d="m23.855 35.47c-1.419 1.857-0.962 1.74-1.685 2.763 0.392 1.975 0.864 2.292 1.433 2.231 0.88-0.093 1.032-1.034 0.576-3.533-0.103-0.584-0.216-1.058-0.324-1.461z" fill="#c8c8c8"/></g><g fill="#fff"><path d="m70.488 136.74c-0.379-1.651-1.628-2.538-3.192-2.538-3.763 0-3.763 4.146-3.763 5.122 0 1.412 0.166 2.831 0.804 3.808 0.55 0.848 1.563 1.476 2.918 1.476 2.028 0 2.961-1.541 3.34-3.194l2.964 0.934c-0.319 1.183-1.332 4.883-6.281 4.883-4.107 0-6.894-2.98-6.894-7.699 0-4.207 2.131-7.95 7.058-7.95 0.85 0 2.964 0.085 4.64 1.732 0.755 0.763 1.135 1.651 1.433 2.709z"/><path d="m74.807 136.02h3.087l2.595 7.782h0.044l2.538-7.782h3.005l-3.871 10.552c-0.042 0.085-0.148 0.399-0.275 0.72-0.846 2.452-1.442 4.121-4.529 4.121-0.761 0-1.248-0.078-1.647-0.164l-0.253-2.26c0.506 0.103 0.78 0.121 1.225 0.121 0.658 0 1.672-0.086 2.246-2.11z"/><path d="m87.806 146.97v-15.143h2.9v5.461c0.422-0.485 1.417-1.526 3.197-1.526 2.433 0 4.605 1.754 4.605 5.629 0 3.932-2.215 5.835-4.587 5.835-0.656 0-2.238-0.228-3.361-1.86h-0.042v1.604zm3.853-2.663c0.528 0.51 1.163 0.613 1.563 0.613 0.996 0 2.308-0.695 2.308-3.405 0-1.226-0.274-3.529-2.411-3.529-1.353 0-2.431 1.034-2.431 3.255 0 1.587 0.274 2.392 0.971 3.066z"/><path d="m102.97 142.33c0.042 1.312 0.743 2.688 2.39 2.688 1.354 0 1.693-1.016 1.841-1.526l2.898 0.492c-0.233 0.67-1.145 3.251-4.78 3.251-0.954 0-3.492-0.128-4.651-2.623-0.487-1.056-0.661-2.136-0.661-3.045 0-2.958 1.563-5.796 5.037-5.796 4.123 0 5.265 3.322 5.201 6.559zm4.401-1.776c-0.066-2.395-1.718-2.56-2.155-2.56-1.377 0-2.203 1.119-2.179 2.56z"/><path d="m115.17 137.56h0.042c0.615-1.055 1.225-1.797 2.477-1.797 0.633 0 1.393 0.235 1.904 0.527l-0.913 2.545c-0.23-0.149-0.804-0.449-1.353-0.449-1.882 0-1.946 2.16-1.946 5.205v3.379h-2.896v-10.951h2.685z"/><path d="m130.42 136.74c-0.381-1.651-1.629-2.538-3.192-2.538-3.768 0-3.768 4.146-3.768 5.122 0 1.412 0.169 2.831 0.804 3.808 0.549 0.848 1.563 1.476 2.918 1.476 2.032 0 2.962-1.541 3.344-3.194l2.962 0.934c-0.321 1.183-1.335 4.883-6.283 4.883-4.103 0-6.896-2.98-6.896-7.699 0-4.207 2.138-7.95 7.065-7.95 0.845 0 2.958 0.085 4.628 1.732 0.765 0.763 1.146 1.651 1.441 2.709z"/><path d="m141 135.77c3.804 0 5.665 2.923 5.665 5.692 0 3.023-2.115 5.797-5.647 5.797-1.732 0-5.664-0.824-5.664-5.9 0-2.609 1.753-5.589 5.646-5.589zm0 9.075c1.312 0 2.685-0.93 2.685-3.365 0-2.2-1.207-3.301-2.685-3.301-1.397 0-2.67 1.019-2.67 3.321 0 2.326 1.296 3.345 2.67 3.345z"/><path d="m151.59 137.56h0.041c0.617-1.055 1.23-1.797 2.479-1.797 0.632 0 1.394 0.235 1.901 0.527l-0.905 2.545c-0.236-0.149-0.808-0.449-1.36-0.449-1.88 0-1.939 2.16-1.939 5.205v3.379h-2.899v-10.951h2.684v1.541z"/><path d="m160.07 137.64h0.043c1.118-1.633 2.706-1.868 3.362-1.868 2.367 0 4.588 1.903 4.588 5.842 0 3.868-2.177 5.622-4.611 5.622-1.774 0-2.77-1.037-3.194-1.522v5.436h-2.896v-15.122h2.709v1.612zm2.602 7.378c2.137 0 2.406-2.31 2.406-3.536 0-2.709-1.306-3.401-2.301-3.401-0.403 0-1.038 0.101-1.569 0.613-0.698 0.677-0.975 1.476-0.975 3.066 1e-3 2.224 1.085 3.258 2.439 3.258z"/><path d="m176.73 139.17c-0.361-1.29-1.544-1.333-2.054-1.333-0.486 0-1.987 0.021-1.987 0.905 0 0.321 0.233 0.556 0.549 0.684 0.549 0.211 1.736 0.506 2.453 0.671 1.95 0.47 4.147 1.041 4.147 3.45 0 1.711-1.377 3.679-4.992 3.679-1.059 0-2.812-0.185-4.084-1.326-0.826-0.745-1.053-1.632-1.16-2.06l2.896-0.439c0.338 1.458 1.415 1.754 2.348 1.754 0.251 0 2.09-0.025 2.09-1.205 0-0.639-0.504-0.785-1.183-0.931-3.317-0.723-5.751-1.29-5.751-3.893 0-2.517 2.308-3.365 4.614-3.365 2.597 0 4.227 0.72 4.863 2.898z"/><path d="m0 163.66 2.418-11.364h3.012c1.556 0 2.522 0 3.51 0.634 1.381 0.884 1.859 2.507 1.859 4.095 0 1.811-0.522 3.362-1.59 4.667-1.617 1.983-3.727 1.968-5.205 1.968zm4.353-9.465-1.604 7.561h1.172c1.116 0 2.039 0.029 2.813-0.62 0.524-0.442 1.748-1.696 1.748-4.192 0-2.777-1.62-2.749-2.812-2.749z"/><path d="m19.203 161.46c-0.968 1.985-2.604 2.399-3.749 2.399-2.289 0-3.73-1.608-3.73-3.83 0-2.06 1.318-4.793 4.587-4.793 2.606 0 3.285 2 3.285 3.561 0 0.222-0.014 0.898-0.137 1.44h-5.592c-0.063 1.29 0.683 2.032 1.605 2.032 1.106 0 1.6-0.888 1.73-1.146zm-1.62-2.571c0.048-1.098-0.348-2.063-1.507-2.063-1.287 0-1.828 1.283-1.988 2.063z"/><path d="m25.969 155.44-0.335 1.621h-1.574l-1.376 6.602h-2.224l1.379-6.602h-1.256l0.354-1.621h1.239l0.172-0.856c0.253-1.208 0.523-2.478 2.574-2.478 0.521 0 1.299 0.093 2.142 0.364l-0.431 1.604c-0.586-0.207-1.064-0.281-1.285-0.281-0.604 0-0.697 0.395-0.825 1.058l-0.129 0.589z"/><path d="m33.161 161.46c-0.966 1.985-2.604 2.399-3.747 2.399-2.285 0-3.73-1.608-3.73-3.83 0-2.06 1.317-4.793 4.593-4.793 2.601 0 3.285 2 3.285 3.561 0 0.222-0.018 0.898-0.142 1.44h-5.593c-0.057 1.29 0.685 2.032 1.605 2.032 1.113 0 1.603-0.888 1.731-1.146zm-1.617-2.571c0.05-1.098-0.351-2.063-1.51-2.063-1.285 0-1.828 1.283-1.981 2.063z"/><path d="m37.799 156.47 0.037 0.035c0.652-0.592 1.565-1.272 2.906-1.272 1.632 0 2.174 1.144 2.174 2.127 0 0.447-0.116 1.02-0.239 1.634l-0.982 4.669h-2.225l0.982-4.684c0-0.032 0.018-0.14 0.05-0.25 0.032-0.129 0.064-0.291 0.064-0.32 0.093-0.442 0.093-0.553 0.093-0.664 0-0.844-0.717-0.922-0.956-0.922-0.679 0-1.377 0.574-1.789 1.108-0.414 0.569-0.51 1.098-0.779 2.353l-0.717 3.379h-2.221l1.73-8.223h2.097z"/><path d="m49.635 162.81-0.032-0.035c-0.431 0.448-1.221 1.084-2.556 1.084-1.765 0-2.86-1.234-2.86-3.444 0-2.656 1.604-5.162 4.069-5.162 1.651 0 2.283 0.999 2.488 1.302l0.891-4.252h2.221l-2.382 11.364h-2.031zm-1.746-0.634c1.632 0 2.27-2.11 2.27-3.305 0-1.045-0.638-1.935-1.588-1.935-1.431 0-2.224 1.935-2.224 3.378 0 1.02 0.539 1.862 1.542 1.862z"/><path d="m55.325 155.44h2.219l-1.714 8.223h-2.227zm0.662-3.141h2.223l-0.433 1.996h-2.221z"/><path d="m61.626 156.47 0.032 0.035c0.651-0.592 1.569-1.272 2.903-1.272 1.639 0 2.176 1.144 2.176 2.127 0 0.447-0.112 1.02-0.24 1.634l-0.981 4.669h-2.226l0.987-4.684c0-0.032 0.012-0.14 0.044-0.25 0.032-0.129 0.064-0.291 0.064-0.32 0.098-0.442 0.098-0.553 0.098-0.664 0-0.844-0.717-0.922-0.956-0.922-0.685 0-1.38 0.574-1.793 1.108-0.413 0.569-0.509 1.098-0.775 2.353l-0.716 3.379h-2.225l1.733-8.223h2.092z"/><path d="m74.852 155.44h2.098l-1.427 6.858c-0.633 3.047-0.981 4.701-4.428 4.701-0.941 0-3.831 0-3.513-2.909l2.352 0.351c-0.019 0.435 0.139 0.969 1.207 0.969 1.524 0 1.697-0.858 1.968-2.284l0.064-0.368-0.032-0.028c-0.289 0.286-1.11 0.984-2.349 0.984-1.223 0-2.747-0.763-2.747-3.366 0-3.222 1.889-5.115 3.934-5.115 1.031 0 2.034 0.539 2.562 1.65h0.027zm-3.175 6.591c1.431 0 2.256-1.765 2.256-3.259 0-0.998-0.604-1.949-1.554-1.949-1.572 0-2.174 2.413-2.174 3.304 0 1.219 0.615 1.904 1.472 1.904z"/><path d="m89.324 161.15h-4.509l-1.368 2.51h-2.394l6.428-11.364h2.588l1.861 11.364h-2.225zm-3.449-1.904h3.162l-0.636-4.577h-0.03z"/><path d="m96.918 156.39 0.031 0.032c0.381-0.379 1.252-1.191 2.542-1.191 0.665 0 1.825 0.146 2.078 1.461 0.522-0.766 1.632-1.461 2.891-1.461 1.429 0 2.064 0.874 2.064 1.922 0 0.399-0.099 0.968-0.189 1.475l-1.064 5.033h-2.226l1.046-5.033c0.018-0.043 0.05-0.202 0.083-0.35 0.079-0.362 0.142-0.556 0.142-0.712 0-0.286-0.142-0.745-0.844-0.745-0.584 0-1.124 0.395-1.504 0.922-0.445 0.614-0.672 1.618-0.781 2.186l-0.779 3.731h-2.238l1.082-5.111c0.11-0.574 0.143-0.714 0.143-0.984 0-0.478-0.35-0.745-0.827-0.745-0.682 0-1.237 0.553-1.51 0.922-0.397 0.553-0.522 1.191-0.728 2.143l-0.794 3.774h-2.221l1.73-8.223h2.098z"/><path d="m115.23 161.46c-0.973 1.985-2.604 2.399-3.748 2.399-2.289 0-3.729-1.608-3.729-3.83 0-2.06 1.317-4.793 4.588-4.793 2.6 0 3.285 2 3.285 3.561 0 0.222-0.014 0.898-0.143 1.44h-5.587c-0.064 1.29 0.679 2.032 1.603 2.032 1.113 0 1.604-0.888 1.732-1.146zm-1.618-2.571c0.046-1.098-0.354-2.063-1.509-2.063-1.286 0-1.825 1.283-1.985 2.063z"/><path d="m119.63 157 0.031 0.032c0.573-0.909 1.394-1.796 2.491-1.796 0.477 0 0.812 0.146 1.031 0.238l-0.857 1.833c-0.123-0.057-0.303-0.118-0.633-0.118-0.968 0-1.62 0.846-1.761 1.031-0.542 0.698-0.78 1.825-1 2.858l-0.542 2.588h-2.221l1.711-8.223h2.083z"/><path d="m124.16 155.44h2.22l-1.709 8.223h-2.225zm0.665-3.141h2.22l-0.427 1.996h-2.219z"/><path d="m133.09 158.22c-0.024-0.299-0.155-1.315-1.329-1.315-1.729 0-2.35 2.378-2.35 3.699 0 1.062 0.635 1.509 1.253 1.509 0.413 0 1.336-0.221 1.793-1.541l2.174 0.351c-0.665 1.778-2.013 2.922-4.014 2.922-2.507 0-3.411-1.796-3.411-3.507 0-2.845 1.87-5.115 4.697-5.115 2.239 0 3.193 1.411 3.32 2.777z"/><path d="m138.17 163.86c-1.269 0-2.367-0.878-2.367-2.399 0-2.463 2.29-2.649 3.349-2.728 0.87-0.086 1.688-0.164 2.128-0.32 0.046-0.143 0.148-0.461 0.148-0.75 0-0.599-0.56-0.836-1.148-0.836-0.665 0-1.225 0.238-1.412 0.933l-2.175-0.175c0.639-1.86 2.271-2.349 3.747-2.349 2.903 0 3.142 1.715 3.142 2.21 0 0.588-0.128 1.079-0.443 2.505-0.034 0.129-0.189 0.824-0.207 0.971-0.13 0.538-0.225 1.112-0.225 1.568 0 0.478 0.064 0.763 0.172 1.176h-2.16c-0.104-0.381-0.125-0.521-0.157-0.934-0.76 0.856-1.694 1.128-2.392 1.128zm2.807-4.035c-0.137 0.049-0.207 0.067-0.522 0.1-1.368 0.17-2.556 0.378-2.556 1.348 0 0.427 0.299 0.905 1.02 0.905 1.568 0 1.87-1.38 2.014-2.047z"/><path d="m146.79 152.3h2.259l-0.384 1.761c-0.188 0.905-0.569 2.791-2.828 2.841l0.208-1.03c0.716-0.161 1.113-0.493 1.317-1.434h-1.014z"/><path d="m154.76 157.76c-0.348-0.98-1.456-0.98-1.714-0.98-0.922 0-1.301 0.364-1.301 0.76 0 0.496 0.416 0.62 1.56 0.955 1.239 0.36 2.952 0.859 2.952 2.475 0 1.115-0.857 2.892-3.76 2.892-2.116 0-3.562-0.73-4.084-2.493l2.162-0.353c0.266 0.685 0.685 1.305 1.87 1.305 0.793 0 1.556-0.399 1.556-0.952 0-0.444-0.173-0.494-1.697-1.016-1.399-0.478-2.652-0.904-2.652-2.448 0-1.38 1.207-2.667 3.749-2.667 1.156 0 3.001 0.238 3.427 2.165z"/><path d="m170.9 155.98c-0.114-0.537-0.367-1.917-2.142-1.917-2.67 0-3.639 3.141-3.639 4.982 0 1.558 0.763 2.859 2.27 2.859 0.888 0 2.209-0.491 2.795-2.331l2.35 0.36c-0.647 1.828-2.188 3.925-5.303 3.925-3.414 0-4.431-2.461-4.431-4.892 0-3.893 2.449-6.858 6.004-6.858 2.064 0 4.032 1.03 4.335 3.655z"/><path d="m174.1 155.44h2.212l0.555 4.095c0.064 0.432 0.064 0.491 0.155 1.305 0.066 0.539 0.08 0.685 0.08 0.901h0.036c0.044-0.217 0.174-0.588 0.365-1.015 0.474-1.021 0.519-1.142 0.79-1.651l1.967-3.635h2.369l-5.078 9.036c-0.874 1.539-1.431 2.523-3.083 2.523-0.619 0-1.348-0.178-1.601-0.242l0.207-1.669c0.393 0.132 0.684 0.132 0.775 0.132 0.747 0 1.289-0.62 1.682-1.558z"/><path d="m184.15 163.66h-2.031l2.38-11.364h2.224l-0.797 3.807c0.494-0.385 1.177-0.874 2.301-0.874 2.079 0 2.876 1.618 2.876 3.411 0 2.96-1.844 5.213-4.083 5.213-1.762 0-2.396-1.178-2.569-1.541h-0.037zm2.542-1.49c1.574 0 2.251-2.161 2.251-3.463 0-1.208-0.715-1.888-1.554-1.888-1.399 0-2.27 1.742-2.27 3.489-1e-3 0.938 0.601 1.862 1.573 1.862z"/><path d="m199.71 161.46c-0.968 1.985-2.601 2.399-3.748 2.399-2.284 0-3.729-1.608-3.729-3.83 0-2.06 1.317-4.793 4.587-4.793 2.606 0 3.289 2 3.289 3.561 0 0.222-0.018 0.898-0.141 1.44h-5.594c-0.059 1.29 0.685 2.032 1.604 2.032 1.111 0 1.607-0.888 1.73-1.146zm-1.615-2.571c0.047-1.098-0.353-2.063-1.513-2.063-1.283 0-1.827 1.283-1.982 2.063z"/><path d="m204.11 157 0.031 0.032c0.574-0.909 1.396-1.796 2.491-1.796 0.477 0 0.809 0.146 1.031 0.238l-0.857 1.833c-0.121-0.057-0.303-0.118-0.631-0.118-0.974 0-1.622 0.846-1.761 1.031-0.544 0.698-0.781 1.825-1.008 2.858l-0.534 2.588h-2.227l1.717-8.223h2.082z"/><path d="m213.02 157.76c-0.348-0.98-1.464-0.98-1.715-0.98-0.918 0-1.303 0.364-1.303 0.76 0 0.496 0.411 0.62 1.554 0.955 1.239 0.36 2.956 0.859 2.956 2.475 0 1.115-0.857 2.892-3.763 2.892-2.111 0-3.558-0.73-4.079-2.493l2.157-0.353c0.27 0.685 0.683 1.305 1.871 1.305 0.799 0 1.556-0.399 1.556-0.952 0-0.444-0.17-0.494-1.698-1.016-1.394-0.478-2.648-0.904-2.648-2.448 0-1.38 1.203-2.667 3.745-2.667 1.16 0 3.005 0.238 3.431 2.165z"/><path d="m219.24 156.28 0.035 0.029c0.429-0.442 1.222-1.081 2.557-1.081 1.757 0 2.859 1.237 2.859 3.443 0 2.655-1.606 5.181-4.064 5.181-1.652 0-2.291-1.021-2.497-1.32l-0.891 4.272h-2.22l2.367-11.368h2.026zm1.747 0.631c-1.634 0-2.271 2.114-2.271 3.304 0 1.049 0.638 1.922 1.588 1.922 1.432 0 2.226-1.922 2.226-3.369-1e-3 -1.016-0.543-1.857-1.543-1.857z"/><path d="m227.93 163.86c-1.27 0-2.366-0.878-2.366-2.399 0-2.463 2.288-2.649 3.351-2.728 0.873-0.086 1.681-0.164 2.132-0.32 0.045-0.143 0.139-0.461 0.139-0.75 0-0.599-0.558-0.836-1.141-0.836-0.67 0-1.225 0.238-1.413 0.933l-2.179-0.175c0.637-1.86 2.271-2.349 3.749-2.349 2.903 0 3.146 1.715 3.146 2.21 0 0.588-0.128 1.079-0.443 2.505-0.034 0.129-0.194 0.824-0.207 0.971-0.129 0.538-0.227 1.112-0.227 1.568 0 0.478 0.065 0.763 0.175 1.176h-2.158c-0.107-0.381-0.127-0.521-0.163-0.934-0.759 0.856-1.694 1.128-2.395 1.128zm2.812-4.035c-0.147 0.049-0.206 0.067-0.521 0.1-1.369 0.17-2.563 0.378-2.563 1.348 0 0.427 0.305 0.905 1.02 0.905 1.574 0 1.872-1.38 2.018-2.047z"/><path d="m240.53 158.22c-0.032-0.299-0.16-1.315-1.335-1.315-1.729 0-2.348 2.378-2.348 3.699 0 1.062 0.631 1.509 1.251 1.509 0.412 0 1.335-0.221 1.796-1.541l2.176 0.351c-0.669 1.778-2.019 2.922-4.016 2.922-2.51 0-3.419-1.796-3.419-3.507 0-2.845 1.875-5.115 4.702-5.115 2.238 0 3.191 1.411 3.316 2.777z"/><path d="m250.92 161.46c-0.972 1.985-2.605 2.399-3.747 2.399-2.286 0-3.729-1.608-3.729-3.83 0-2.06 1.315-4.793 4.588-4.793 2.604 0 3.287 2 3.287 3.561 0 0.222-0.018 0.898-0.146 1.44h-5.588c-0.063 1.29 0.683 2.032 1.606 2.032 1.11 0 1.6-0.888 1.729-1.146zm-1.619-2.571c0.045-1.098-0.349-2.063-1.51-2.063-1.284 0-1.824 1.283-1.986 2.063z"/><path d="m192.96 139.4c0 2.859-2.304 5.162-5.158 5.162-2.855 0-5.172-2.303-5.172-5.162 0-2.851 2.317-5.154 5.172-5.154 2.854 0 5.158 2.303 5.158 5.154zm-9.307 0c0 2.292 1.86 4.128 4.149 4.128 2.291 0 4.139-1.835 4.139-4.128 0-2.281-1.848-4.117-4.139-4.117-2.289 1e-3 -4.149 1.836-4.149 4.117zm1.807 2.767v-5.479h1.101c2.012 0 2.333 0 2.761 0.317 0.385 0.292 0.586 0.759 0.586 1.212 0 0.61-0.365 1.383-1.488 1.534v0.028c0.51 0.192 0.678 0.453 1.165 1.283l0.646 1.105h-1.381l-0.454-0.899c-0.647-1.276-0.991-1.354-1.547-1.354h-0.287v2.253zm1.101-4.609v1.486h0.458c0.989 0 1.679 0 1.679-0.756 0-0.73-0.715-0.73-1.679-0.73z" fill="#fff"/></g></svg>
